<svg xmlns="http://www.w3.org/2000/svg" xmlns:xlink="http://www.w3.org/1999/xlink" width="85" height="85" viewBox="0 0 85 85">
  <defs>
    <clipPath id="clip-path">
      <rect id="Rectángulo_379775" data-name="Rectángulo 379775" width="49" height="49" transform="translate(303 3881)" fill="#12263f"/>
    </clipPath>
  </defs>
  <g id="Grupo_1081491" data-name="Grupo 1081491" transform="translate(-285 -4111)">
    <g id="Grupo_1013928" data-name="Grupo 1013928" transform="translate(0 -2464)">
      <path id="Trazado_834422" data-name="Trazado 834422" d="M42.5,0A42.5,42.5,0,1,1,0,42.5,42.5,42.5,0,0,1,42.5,0Z" transform="translate(285 6575)" fill="#e6ebfb"/>
    </g>
    <g id="Enmascarar_grupo_108" data-name="Enmascarar grupo 108" transform="translate(0 248)" clip-path="url(#clip-path)">
      <g id="documentos" transform="translate(303 3881)">
        <path id="Trazado_834366" data-name="Trazado 834366" d="M24.755,14.374h7.577a1.2,1.2,0,0,0,1.2-1.2V5.569a1.2,1.2,0,0,0-1.2-1.2H24.755a1.2,1.2,0,0,0-1.2,1.2v1.8a.718.718,0,0,0,1.436,0V5.808h7.1v7.131h-7.1V10.823a.718.718,0,1,0-1.436,0v2.355A1.2,1.2,0,0,0,24.755,14.374Z" fill="#12263f"/>
        <path id="Trazado_834367" data-name="Trazado 834367" d="M11.387,13.214h9.778a.718.718,0,0,0,0-1.436H11.387a.718.718,0,0,0,0,1.436Z" fill="#12263f"/>
        <path id="Trazado_834368" data-name="Trazado 834368" d="M27.75,18.565a.718.718,0,0,0-.718-.718H17.165a.718.718,0,0,0,0,1.436h9.867A.718.718,0,0,0,27.75,18.565Z" fill="#12263f"/>
        <path id="Trazado_834369" data-name="Trazado 834369" d="M11.387,10.091h9.778a.718.718,0,0,0,0-1.436H11.387a.718.718,0,0,0,0,1.436Z" fill="#12263f"/>
        <path id="Trazado_834370" data-name="Trazado 834370" d="M11.387,6.968h9.778a.718.718,0,0,0,0-1.436H11.387a.718.718,0,0,0,0,1.436Z" fill="#12263f"/>
        <path id="Trazado_834371" data-name="Trazado 834371" d="M11.387,27.224H26.112a.718.718,0,0,0,0-1.436H11.387a.718.718,0,1,0,0,1.436Z" fill="#12263f"/>
        <path id="Trazado_834372" data-name="Trazado 834372" d="M11.387,23.209H23.032a.718.718,0,0,0,0-1.436H11.387a.718.718,0,0,0,0,1.436Z" fill="#12263f"/>
        <path id="Trazado_834373" data-name="Trazado 834373" d="M32.855,21.773H26.144a.718.718,0,0,0,0,1.436h6.712a.718.718,0,0,0,0-1.436Z" fill="#12263f"/>
        <path id="Trazado_834374" data-name="Trazado 834374" d="M48.165,44.4l-.027-.025-4.417-3.93a9.365,9.365,0,0,0,1.149-4.181.718.718,0,1,0-1.435-.051,7.947,7.947,0,1,1-.454-2.965.718.718,0,1,0,1.353-.481A9.4,9.4,0,0,0,36.64,26.6V1.2a1.2,1.2,0,0,0-1.2-1.2H8.754a1.2,1.2,0,0,0-1.2,1.2v2.6H4.976a1.2,1.2,0,0,0-1.2,1.2v2.6H1.2A1.2,1.2,0,0,0,0,8.781V44.589a1.2,1.2,0,0,0,1.2,1.2H24.054a1.2,1.2,0,0,0,1.2-1.2v-2.6h3.116A9.347,9.347,0,0,0,39.947,44.2L44.4,48.184A2.671,2.671,0,1,0,48.165,44.4ZM8.994,1.436H35.2v25.1a9.381,9.381,0,0,0-7.48,4.163H24.81a.718.718,0,0,0,0,1.436h2.125q-.144.328-.265.67a9.4,9.4,0,0,0-.529,3.12c0,.284.013.565.038.843H16.194a5.172,5.172,0,0,0,1.6-3.744v-.888h3.9a.718.718,0,1,0,0-1.436H17.077a.718.718,0,0,0-.718.718v1.606a3.74,3.74,0,0,1-3.727,3.744H8.994ZM5.216,40.557V30.745a.718.718,0,0,0-1.436,0V40.8a1.2,1.2,0,0,0,1.2,1.2H23.815v2.357H1.438V9.02H3.78V27.711a.718.718,0,0,0,1.436,0V5.228H7.558V37.482a.718.718,0,0,0,.718.718H26.421a9.349,9.349,0,0,0,.943,2.357H5.216Zm42.006,6.666a1.3,1.3,0,0,1-1.853-.1L41.2,43.388a9.509,9.509,0,0,0,1.733-1.729l4.241,3.774a1.271,1.271,0,0,1,.053,1.789Z" fill="#12263f"/>
        <path id="Trazado_834375" data-name="Trazado 834375" d="M35.509,29.787a6.135,6.135,0,1,0,6.118,6.135A6.154,6.154,0,0,0,35.509,29.787Zm0,10.834a4.7,4.7,0,1,1,4.683-4.7A4.7,4.7,0,0,1,35.509,40.621Z" fill="#12263f"/>
      </g>
    </g>
  </g>
</svg>
