<svg xmlns="http://www.w3.org/2000/svg" xmlns:xlink="http://www.w3.org/1999/xlink" width="85" height="85" viewBox="0 0 85 85">
  <defs>
    <clipPath id="clip-path">
      <rect id="Rectángulo_379776" data-name="Rectángulo 379776" width="49" height="49" transform="translate(303 3990)" fill="#12263f"/>
    </clipPath>
  </defs>
  <g id="Grupo_1081492" data-name="Grupo 1081492" transform="translate(-285 -4218.317)">
    <g id="Grupo_1081188" data-name="Grupo 1081188" transform="translate(0 -2356.683)">
      <circle id="Elipse_4873" data-name="Elipse 4873" cx="42.5" cy="42.5" r="42.5" transform="translate(285 6575)" fill="#e6ebfb"/>
    </g>
    <g id="Enmascarar_grupo_109" data-name="Enmascarar grupo 109" transform="translate(0 248)" clip-path="url(#clip-path)">
      <path id="resolucion-de-problemas" d="M23.852,24.847h6.792a.694.694,0,0,0,.694-.694V22.934a1.9,1.9,0,0,1,3.794,0v1.218a.694.694,0,0,0,.694.694h6.792a.694.694,0,0,0,.694-.694v-6.1h.524a3.285,3.285,0,0,0,0-6.571h-.524v-6.1a.694.694,0,0,0-.694-.694h-6.1V4.169a3.285,3.285,0,0,0-6.571,0v.524h-6.1a.694.694,0,0,0-.694.694v6.792a.694.694,0,0,0,.694.694H25.07a1.9,1.9,0,0,1,0,3.794H23.852a.694.694,0,0,0-.694.694v6.792a.694.694,0,0,0,.694.694Zm.694-6.792h.524a3.285,3.285,0,0,0,0-6.571h-.524v-5.4h6.1a.694.694,0,0,0,.694-.694V4.169a1.9,1.9,0,0,1,3.794,0V5.387a.694.694,0,0,0,.694.694h6.1v6.1a.694.694,0,0,0,.694.694h1.219a1.9,1.9,0,0,1,0,3.794H42.618a.694.694,0,0,0-.694.694v6.1h-5.4v-.524a3.285,3.285,0,0,0-6.571,0v.524h-5.4ZM49.7,33.207a3.317,3.317,0,0,0-2.356-2.115,9.032,9.032,0,0,0-4.862.336l-8.961,2.629q-.057-.115-.121-.227a3.712,3.712,0,0,0-2.267-1.744L24.77,30.381c-4.646-3.256-7.136-2.32-10.8-.53-1.745.853-3.488,1.683-5.137,2.462l-.345-.829a2.165,2.165,0,0,0-2.825-1.166L2.227,31.747A2.155,2.155,0,0,0,1.06,34.575L6.883,48.559a2.162,2.162,0,0,0,2.825,1.166L13.147,48.3a2.155,2.155,0,0,0,1.167-2.828l-.39-.937,2.242-1.09a3.371,3.371,0,0,1,2.516-.214L25.835,45.3a5.8,5.8,0,0,0,1.623.218,16.158,16.158,0,0,0,5.571-1.428l.434-.168,13.425-5.173A4.72,4.72,0,0,0,49.7,33.207ZM13.036,46.6a.77.77,0,0,1-.421.418L9.176,48.442a.775.775,0,0,1-1.011-.417L2.342,34.041a.767.767,0,0,1,.417-1.012L6.2,31.6a.774.774,0,0,1,1.011.417L13.032,46a.77.77,0,0,1,0,.594Zm33.353-9.139L32.964,42.63l-.439.17c-1.967.766-4.415,1.719-6.3,1.17l-7.153-2.077a4.765,4.765,0,0,0-3.51.3l-2.169,1.055L9.37,33.6c1.672-.79,3.44-1.631,5.213-2.5,3.422-1.674,5.4-2.412,9.487.488a.7.7,0,0,0,.222.1l6.486,1.738a2.35,2.35,0,0,1-1.216,4.539l-8.62-2.31A.694.694,0,0,0,20.582,37l8.62,2.31A3.74,3.74,0,0,0,33.9,35.4l8.981-2.635c2.968-.871,5.028-.537,5.512.892a3.358,3.358,0,0,1-2,3.8Z" transform="translate(302.109 3989.109)" fill="#12263f"/>
    </g>
  </g>
</svg>
