<svg xmlns="http://www.w3.org/2000/svg" xmlns:xlink="http://www.w3.org/1999/xlink" width="85" height="85" viewBox="0 0 85 85">
  <defs>
    <clipPath id="clip-path">
      <rect id="Rectángulo_379777" data-name="Rectángulo 379777" width="49" height="49" transform="translate(303 4096)" fill="#12263f"/>
    </clipPath>
  </defs>
  <g id="Grupo_1081493" data-name="Grupo 1081493" transform="translate(-285 -4325.635)">
    <g id="Grupo_1081189" data-name="Grupo 1081189" transform="translate(0 -2249.365)">
      <circle id="Elipse_4873" data-name="Elipse 4873" cx="42.5" cy="42.5" r="42.5" transform="translate(285 6575)" fill="#e6ebfb"/>
    </g>
    <g id="Enmascarar_grupo_110" data-name="Enmascarar grupo 110" transform="translate(0 248)" clip-path="url(#clip-path)">
      <g id="seguimiento" transform="translate(301.367 4094.367)">
        <path id="Trazado_834376" data-name="Trazado 834376" d="M19.6,34.3a2.45,2.45,0,1,0,2.45,2.45A2.45,2.45,0,0,0,19.6,34.3Zm0,3.267a.817.817,0,1,1,.817-.817A.817.817,0,0,1,19.6,37.567Z" fill="#12263f"/>
        <path id="Trazado_834377" data-name="Trazado 834377" d="M18.053,30.582a.817.817,0,0,0,.657.448q.037,0,.073,0a.817.817,0,0,0,.653-.327l2.45-3.267a.817.817,0,0,0-1.307-.98l-1.657,2.21-.226-.452a.817.817,0,1,0-1.461.731Z" fill="#12263f"/>
        <path id="Trazado_834378" data-name="Trazado 834378" d="M31.85,9.8H25.317a.817.817,0,0,0-.817.817v3.267a.817.817,0,0,0,.817.817h2.45v3.267h-2.45a.817.817,0,0,0-.817.817V22.05a.817.817,0,0,0,.817.817h2.45v3.267h-2.45a.817.817,0,0,0-.817.817v3.267a.817.817,0,0,0,.817.817h2.45V34.3h-2.45a.817.817,0,0,0-.817.817v3.267a.817.817,0,0,0,.817.817h2.45v3.267h-2.45a.817.817,0,0,0-.817.817V46.55a.817.817,0,0,0,.817.817H31.85a.817.817,0,0,0,.817-.817V43.283a.817.817,0,0,0-.817-.817H29.4V39.2h2.45a.817.817,0,0,0,.817-.817V35.117a.817.817,0,0,0-.817-.817H29.4V31.033h2.45a.817.817,0,0,0,.817-.817V26.95a.817.817,0,0,0-.817-.817H29.4V22.867h2.45a.817.817,0,0,0,.817-.817V18.783a.817.817,0,0,0-.817-.817H29.4V14.7h2.45a.817.817,0,0,0,.817-.817V10.617A.817.817,0,0,0,31.85,9.8Zm-.817,34.3v1.633h-4.9V44.1Zm0-6.533h-4.9V35.933h4.9Zm0-8.167h-4.9V27.767h4.9Zm0-8.167h-4.9V19.6h4.9Zm0-8.167h-4.9V11.433h4.9Z" fill="#12263f"/>
        <path id="Trazado_834379" data-name="Trazado 834379" d="M37.567,17.967h4.9a.817.817,0,0,0,0-1.633h-4.9a.817.817,0,0,0,0,1.633Z" fill="#12263f"/>
        <path id="Trazado_834380" data-name="Trazado 834380" d="M42.467,24.5h-4.9a.817.817,0,0,0,0,1.633h4.9a.817.817,0,0,0,0-1.633Z" fill="#12263f"/>
        <path id="Trazado_834381" data-name="Trazado 834381" d="M35.117,21.233h7.35a.817.817,0,0,0,0-1.633h-7.35a.817.817,0,0,0,0,1.633Z" fill="#12263f"/>
        <path id="Trazado_834382" data-name="Trazado 834382" d="M43.283,28.583a.817.817,0,0,0-.817-.817h-7.35a.817.817,0,0,0,0,1.633h7.35A.817.817,0,0,0,43.283,28.583Z" fill="#12263f"/>
        <path id="Trazado_834383" data-name="Trazado 834383" d="M19.6,42.467a2.45,2.45,0,1,0,2.45,2.45,2.45,2.45,0,0,0-2.45-2.45Zm0,3.267a.817.817,0,1,1,.817-.817A.817.817,0,0,1,19.6,45.733Z" fill="#12263f"/>
        <path id="Trazado_834384" data-name="Trazado 834384" d="M50.633,40.017a7.348,7.348,0,0,0-3.267-6.108V12.25a.817.817,0,0,0-.239-.578l-9.8-9.8a.817.817,0,0,0-.577-.239H13.883a.817.817,0,0,0-.817.817V6.533H4.083a2.453,2.453,0,0,0-2.45,2.45V22.05a2.454,2.454,0,0,0,1.633,2.31v5.857a.817.817,0,0,0,1.327.638L12.537,24.5h.53V49.817a.817.817,0,0,0,.817.817H46.55a.817.817,0,0,0,.817-.817V46.125A7.348,7.348,0,0,0,50.633,40.017Zm-1.633,0a5.723,5.723,0,0,1-5.717,5.717H37.567V44.1h5.717a4.083,4.083,0,0,0,0-8.167H41.65a.817.817,0,0,0-.817.817v.107l-2.611-1.741,2.611-1.741v.107a.817.817,0,0,0,.817.817h1.633A5.723,5.723,0,0,1,49,40.017ZM37.567,4.422l7.012,7.012H37.567ZM12.25,22.867a.817.817,0,0,0-.51.179L4.9,28.517V23.683a.817.817,0,0,0-.817-.817.818.818,0,0,1-.817-.817V8.983a.818.818,0,0,1,.817-.817H20.417a.818.818,0,0,1,.817.817V22.05a.818.818,0,0,1-.817.817ZM45.733,49H14.7V24.5h5.717a2.453,2.453,0,0,0,2.45-2.45V8.983a2.453,2.453,0,0,0-2.45-2.45H14.7V3.267H35.933V12.25a.817.817,0,0,0,.817.817h8.983V33.088a7.315,7.315,0,0,0-2.45-.421h-.817V31.85a.817.817,0,0,0-1.27-.679l-4.9,3.267a.817.817,0,0,0,0,1.359l4.9,3.267a.817.817,0,0,0,1.27-.679v-.817h.817a2.45,2.45,0,1,1,0,4.9H36.75a.817.817,0,0,0-.817.817V46.55a.817.817,0,0,0,.817.817h6.533a7.315,7.315,0,0,0,2.45-.421Z" fill="#12263f"/>
        <path id="Trazado_834385" data-name="Trazado 834385" d="M7.35,13.067h3.267a.817.817,0,1,0,0-1.633H7.35a.817.817,0,1,0,0,1.633Z" fill="#12263f"/>
        <path id="Trazado_834386" data-name="Trazado 834386" d="M13.883,13.067h4.9a.817.817,0,1,0,0-1.633h-4.9a.817.817,0,0,0,0,1.633Z" fill="#12263f"/>
        <path id="Trazado_834387" data-name="Trazado 834387" d="M19.6,18.783a.817.817,0,0,0-.817-.817H12.25a.817.817,0,1,0,0,1.633h6.533A.817.817,0,0,0,19.6,18.783Z" fill="#12263f"/>
        <path id="Trazado_834388" data-name="Trazado 834388" d="M5.717,16.333H18.783a.817.817,0,1,0,0-1.633H5.717a.817.817,0,0,0,0,1.633Z" fill="#12263f"/>
        <path id="Trazado_834389" data-name="Trazado 834389" d="M8.983,17.967H5.717a.817.817,0,1,0,0,1.633H8.983a.817.817,0,1,0,0-1.633Z" fill="#12263f"/>
        <path id="Trazado_834390" data-name="Trazado 834390" d="M30.217,7.35H26.95a.817.817,0,1,1,0-1.633h3.267a.817.817,0,0,1,0,1.633Z" fill="#12263f"/>
      </g>
    </g>
  </g>
</svg>
