<svg xmlns="http://www.w3.org/2000/svg" xmlns:xlink="http://www.w3.org/1999/xlink" width="400" height="290" viewBox="0 0 400 290">
  <defs>
    <clipPath id="clip-path">
      <rect id="Rectángulo_379619" data-name="Rectángulo 379619" width="298.973" height="290" fill="none"/>
    </clipPath>
    <clipPath id="clip-path-5">
      <rect id="Rectángulo_379612" data-name="Rectángulo 379612" width="51.293" height="30.725" fill="none"/>
    </clipPath>
    <clipPath id="clip-path-6">
      <rect id="Rectángulo_379613" data-name="Rectángulo 379613" width="15.56" height="58.163" fill="none"/>
    </clipPath>
    <clipPath id="clip-path-7">
      <rect id="Rectángulo_379614" data-name="Rectángulo 379614" width="31.219" height="65.38" fill="none"/>
    </clipPath>
    <clipPath id="clip-path-8">
      <rect id="Rectángulo_379615" data-name="Rectángulo 379615" width="30.894" height="2.813" fill="none"/>
    </clipPath>
    <clipPath id="clip-path-9">
      <rect id="Rectángulo_379616" data-name="Rectángulo 379616" width="63.112" height="63.112" fill="none"/>
    </clipPath>
  </defs>
  <g id="Grupo_1081435" data-name="Grupo 1081435" transform="translate(-285 -606)">
    <rect id="Rectángulo_379838" data-name="Rectángulo 379838" width="400" height="290" transform="translate(285 606)" fill="none"/>
    <g id="Grupo_1081434" data-name="Grupo 1081434" transform="translate(336 606)">
      <g id="Grupo_1081172" data-name="Grupo 1081172" clip-path="url(#clip-path)">
        <g id="Grupo_1081150" data-name="Grupo 1081150">
          <g id="Grupo_1081149" data-name="Grupo 1081149" clip-path="url(#clip-path)">
            <path id="Trazado_833166" data-name="Trazado 833166" d="M106.882,156.579a78.619,78.619,0,0,0,11.074,13.849" transform="translate(-32.556 -47.694)" fill="#fff"/>
            <path id="Trazado_833167" data-name="Trazado 833167" d="M117.955,170.427a12.522,12.522,0,0,1-1.93-1.757,61.816,61.816,0,0,1-7.856-9.823,12.643,12.643,0,0,1-1.288-2.27,17.4,17.4,0,0,1,1.558,2.088c.932,1.307,2.24,3.1,3.767,5.008s2.985,3.58,4.055,4.775a17.577,17.577,0,0,1,1.695,1.979" transform="translate(-32.555 -47.693)" fill="#e0e0e0"/>
            <path id="Trazado_833168" data-name="Trazado 833168" d="M0,169.975,11.07,156.322" transform="translate(-0.001 -47.616)" fill="#fff"/>
            <path id="Trazado_833180" data-name="Trazado 833180" d="M29.1,229.775a13.609,13.609,0,0,1,3.323-1.444l.685-3.289,5.558-.1.8,3.263a13.58,13.58,0,0,1,3.372,1.327l2.809-1.841,4,3.861L47.9,234.424a13.606,13.606,0,0,1,1.444,3.324l3.289.684.1,5.558-3.264.8a13.625,13.625,0,0,1-1.326,3.372l1.841,2.809-3.86,4-2.872-1.741a13.612,13.612,0,0,1-3.323,1.444l-.685,3.289-5.557.1-.8-3.263a13.612,13.612,0,0,1-3.371-1.327l-2.809,1.841-4-3.861,1.741-2.871A13.581,13.581,0,0,1,23,245.255l-3.289-.684-.1-5.557,3.263-.8a13.654,13.654,0,0,1,1.327-3.372l-1.841-2.809,3.861-4Zm2.962,7.4a5.963,5.963,0,1,0,8.431-.148,5.962,5.962,0,0,0-8.431.148" transform="translate(-5.975 -68.518)" fill="#c1cdf5"/>
            <path id="Trazado_833181" data-name="Trazado 833181" d="M36.732,241.692a4.5,4.5,0,0,1,1.11-.974,5.938,5.938,0,0,1,3.89-.92,6,6,0,0,1,2.644.939,6.1,6.1,0,0,1,2.138,2.409,6.111,6.111,0,0,1,.576,3.509,6.083,6.083,0,0,1-5.033,5.214,6.11,6.11,0,0,1-3.528-.452,6.106,6.106,0,0,1-2.483-2.052,6.023,6.023,0,0,1-1.032-2.61,5.932,5.932,0,0,1,.783-3.919,4.5,4.5,0,0,1,.935-1.144c.032.027-.36.392-.819,1.21a5.945,5.945,0,0,0-.659,3.817,5.827,5.827,0,0,0,3.4,4.41,5.811,5.811,0,0,0,3.343.41,5.779,5.779,0,0,0,4.758-4.928,5.825,5.825,0,0,0-.527-3.326,5.826,5.826,0,0,0-4.527-3.247,5.949,5.949,0,0,0-3.792.793c-.8.488-1.152.893-1.18.862" transform="translate(-10.647 -73.032)" fill="#f5f5f5"/>
            <path id="Trazado_833182" data-name="Trazado 833182" d="M29.044,229.73a1.237,1.237,0,0,1-.185-.1l-.551-.318-2.165-1.278.067-.009-3.837,4.021.01-.108,1.853,2.8.033.05-.03.054a13.608,13.608,0,0,0-1.305,3.35l-.016.066-.066.016-3.261.809.092-.12c.035,1.75.072,3.607.111,5.557l-.107-.129,3.29.678.084.017.024.083a13.545,13.545,0,0,0,1.434,3.286l.047.076-.047.077-1.736,2.873-.024-.188,4,3.856-.2-.019,2.807-1.844.082-.054.086.048a13.552,13.552,0,0,0,3.332,1.308l.1.024.024.1.8,3.263-.166-.128,5.557-.1-.163.136c.216-1.039.449-2.16.684-3.289l.021-.1.1-.028a13.512,13.512,0,0,0,3.279-1.425h0l.09-.053.088.053,2.871,1.741-.211.027,3.862-4-.019.211-1.84-2.81-.056-.085.049-.088a13.478,13.478,0,0,0,1.313-3.33l.024-.1.1-.024,3.264-.8-.124.161q-.047-2.846-.092-5.557l.124.151-3.288-.688-.091-.019-.025-.089a13.525,13.525,0,0,0-1.423-3.289l-.046-.077.046-.076,1.746-2.869.023.176L45.5,227.742l.163.015-2.814,1.834-.063.041-.064-.036a13.566,13.566,0,0,0-3.339-1.325l-.067-.017-.015-.065c-.287-1.187-.545-2.256-.789-3.266l.1.077-5.558.073.074-.061c-.282,1.312-.513,2.388-.705,3.284l-.008.033-.031.008a14.09,14.09,0,0,0-2.542.978l-.6.312a1.324,1.324,0,0,1-.2.1,1.714,1.714,0,0,1,.185-.126c.127-.079.32-.2.586-.338a13.171,13.171,0,0,1,2.537-1.033l-.038.042.663-3.293.013-.06h.062l5.556-.122.081,0,.019.079c.251,1.008.516,2.076.811,3.26l-.082-.082a13.715,13.715,0,0,1,3.4,1.329l-.127,0,2.8-1.848.088-.057.075.072,4.007,3.853.081.079-.059.1-1.736,2.874V234.3a13.776,13.776,0,0,1,1.465,3.359l-.116-.108,3.29.681.123.026,0,.126q.05,2.71.1,5.557l0,.13-.127.031-3.262.8.121-.121a13.8,13.8,0,0,1-1.341,3.414l-.006-.173,1.842,2.808.074.113-.093.1-3.86,4-.095.1-.116-.071-2.872-1.741h.174a13.8,13.8,0,0,1-3.362,1.46l.12-.129-.685,3.289-.028.134-.136,0-5.558.1-.134,0-.032-.13-.8-3.264.121.121a13.839,13.839,0,0,1-3.411-1.345l.168-.006L26.739,255.4l-.106.07-.091-.088-3.994-3.866-.088-.085.063-.1,1.745-2.869v.152a13.763,13.763,0,0,1-1.454-3.361l.107.1-3.288-.691-.106-.022v-.107c-.03-1.95-.058-3.807-.085-5.558v-.1l.094-.023,3.266-.791-.082.082a13.726,13.726,0,0,1,1.348-3.394l0,.1-1.83-2.816-.038-.058.048-.049,3.884-3.976.031-.032.037.023,2.115,1.316.544.346a1.566,1.566,0,0,1,.184.126" transform="translate(-5.921 -68.473)" fill="#f5f5f5"/>
            <path id="Trazado_833183" data-name="Trazado 833183" d="M360.891,153.381a9.316,9.316,0,0,1,2.269-.986l.467-2.245,3.794-.067.547,2.228a9.271,9.271,0,0,1,2.3.905l1.918-1.257,2.73,2.636-1.188,1.96a9.321,9.321,0,0,1,.986,2.27l2.245.467.067,3.794-2.228.546a9.331,9.331,0,0,1-.905,2.3l1.257,1.917-2.636,2.73-1.96-1.188a9.294,9.294,0,0,1-2.27.986l-.467,2.245-3.794.067-.546-2.228a9.32,9.32,0,0,1-2.3-.905l-1.917,1.257-2.73-2.636,1.188-1.96a9.289,9.289,0,0,1-.986-2.269l-2.245-.467-.067-3.795,2.228-.546a9.3,9.3,0,0,1,.905-2.3l-1.257-1.917,2.636-2.73Zm2.023,5.055a4.071,4.071,0,1,0,5.757-.1,4.07,4.07,0,0,0-5.757.1" transform="translate(-107.955 -45.715)" fill="#c1cdf5"/>
            <path id="Trazado_833184" data-name="Trazado 833184" d="M366.1,161.518a3.087,3.087,0,0,1,.758-.666,4.054,4.054,0,0,1,2.656-.628,4.1,4.1,0,0,1,1.805.642,4.158,4.158,0,0,1,1.46,1.645,4.17,4.17,0,0,1,.394,2.4,4.156,4.156,0,0,1-3.437,3.56,4.167,4.167,0,0,1-2.409-.309,4.168,4.168,0,0,1-1.695-1.4,4.1,4.1,0,0,1-.7-1.782,4.051,4.051,0,0,1,.534-2.676,3.068,3.068,0,0,1,.638-.781c.022.019-.245.267-.559.826a4.055,4.055,0,0,0-.45,2.606,3.975,3.975,0,0,0,2.323,3.012,3.979,3.979,0,0,0,2.283.28,3.946,3.946,0,0,0,3.248-3.365,3.986,3.986,0,0,0-.36-2.27,3.977,3.977,0,0,0-3.09-2.217,4.062,4.062,0,0,0-2.589.541c-.548.333-.787.61-.806.588" transform="translate(-111.145 -48.797)" fill="#f5f5f5"/>
            <path id="Trazado_833185" data-name="Trazado 833185" d="M360.855,153.351a.785.785,0,0,1-.127-.067l-.376-.217-1.477-.873.046-.006-2.62,2.745.008-.074,1.265,1.912.022.035-.02.036a9.3,9.3,0,0,0-.892,2.287l-.01.045-.046.011-2.227.552.063-.082c.024,1.195.049,2.462.075,3.794l-.073-.088,2.247.463.057.012.016.056a9.276,9.276,0,0,0,.979,2.243l.032.051-.032.053c-.366.608-.773,1.279-1.186,1.962l-.017-.129,2.734,2.633-.135-.013,1.917-1.259.056-.037.06.033a9.193,9.193,0,0,0,2.274.893l.066.017.017.066c.172.7.359,1.459.547,2.228l-.113-.088,3.794-.068-.111.092.467-2.245.015-.07.067-.019a9.2,9.2,0,0,0,2.239-.972h0l.061-.036.06.036,1.96,1.189-.144.019,2.636-2.729-.013.143-1.256-1.918-.038-.058.033-.061a9.17,9.17,0,0,0,.9-2.273l.017-.067.066-.016,2.228-.544-.085.11q-.031-1.942-.063-3.794l.086.1-2.244-.47-.063-.013-.017-.061a9.184,9.184,0,0,0-.972-2.245l-.031-.052.031-.052,1.192-1.958.016.12-2.725-2.641.111.01-1.921,1.252-.042.028-.044-.025a9.276,9.276,0,0,0-2.28-.9l-.045-.011-.01-.045c-.2-.81-.373-1.54-.539-2.229l.068.052-3.795.05.05-.042c-.192.9-.35,1.631-.481,2.243l0,.022-.022.006a9.584,9.584,0,0,0-1.735.668l-.408.214a.951.951,0,0,1-.136.069,1.135,1.135,0,0,1,.126-.086c.087-.053.218-.134.4-.23a9.013,9.013,0,0,1,1.732-.706l-.026.029c.124-.613.272-1.35.453-2.249l.008-.04h.042l3.793-.083h.055l.014.054c.171.688.352,1.417.554,2.226l-.056-.056a9.4,9.4,0,0,1,2.325.907l-.087,0,1.914-1.261.06-.039.051.049,2.736,2.631.056.054-.04.066c-.384.638-.779,1.29-1.184,1.962v-.1a9.434,9.434,0,0,1,1,2.293l-.079-.074,2.246.465.084.017,0,.086q.033,1.85.07,3.794l0,.088-.087.022-2.227.548.083-.083a9.349,9.349,0,0,1-.915,2.33l0-.118,1.257,1.917.05.077-.063.067-2.635,2.731-.065.067-.079-.049-1.961-1.188h.119a9.441,9.441,0,0,1-2.3,1l.082-.088c-.161.771-.32,1.536-.468,2.245l-.019.09-.092,0-3.794.065H363.9l-.022-.088-.545-2.228.083.082a9.425,9.425,0,0,1-2.33-.918l.114,0-1.918,1.255-.074.047-.061-.061-2.727-2.639-.06-.058.043-.071c.415-.682.823-1.351,1.192-1.958v.1a9.4,9.4,0,0,1-.993-2.295l.073.068-2.245-.471-.072-.015v-.073c-.021-1.332-.04-2.6-.058-3.795v-.066l.064-.016,2.229-.54-.056.056a9.384,9.384,0,0,1,.921-2.317v.071l-1.249-1.923-.026-.04.033-.033,2.652-2.716.021-.022.025.016,1.444.9.371.236a1.2,1.2,0,0,1,.127.086" transform="translate(-107.919 -45.684)" fill="#f5f5f5"/>
            <path id="Trazado_833186" data-name="Trazado 833186" d="M331.047,70.382a21.908,21.908,0,0,1,5.339-2.321l1.1-5.284,8.928-.156,1.285,5.241a21.878,21.878,0,0,1,5.417,2.131l4.512-2.958,6.424,6.2-2.8,4.612a21.877,21.877,0,0,1,2.32,5.34l5.284,1.1.156,8.928L363.772,94.5a21.874,21.874,0,0,1-2.131,5.416l2.958,4.512-6.2,6.424-4.613-2.8a21.883,21.883,0,0,1-5.339,2.32l-1.1,5.284-8.928.156-1.285-5.242a21.873,21.873,0,0,1-5.417-2.131L327.2,111.4l-6.424-6.2,2.8-4.613a21.872,21.872,0,0,1-2.321-5.339l-5.284-1.1-.156-8.928,5.242-1.286a21.936,21.936,0,0,1,2.131-5.416l-2.957-4.512,6.2-6.424Zm4.759,11.893a9.579,9.579,0,1,0,13.544-.238,9.579,9.579,0,0,0-13.544.238" transform="translate(-96.197 -19.074)" fill="#c1cdf5"/>
            <path id="Trazado_833187" data-name="Trazado 833187" d="M343.311,89.526a7.239,7.239,0,0,1,1.784-1.565,9.531,9.531,0,0,1,6.249-1.477,9.659,9.659,0,0,1,4.247,1.508,9.813,9.813,0,0,1,3.435,3.87,9.835,9.835,0,0,1,.925,5.638,9.774,9.774,0,0,1-8.085,8.375,9.824,9.824,0,0,1-5.668-.726,9.812,9.812,0,0,1-3.989-3.3,9.657,9.657,0,0,1-1.656-4.192,9.533,9.533,0,0,1,1.257-6.3,7.232,7.232,0,0,1,1.5-1.837c.051.044-.579.629-1.316,1.944a9.549,9.549,0,0,0-1.058,6.131,9.357,9.357,0,0,0,5.468,7.085,9.352,9.352,0,0,0,5.371.659,9.281,9.281,0,0,0,7.642-7.918,9.369,9.369,0,0,0-.846-5.343,9.36,9.36,0,0,0-7.273-5.216,9.549,9.549,0,0,0-6.091,1.273c-1.289.784-1.851,1.435-1.9,1.384" transform="translate(-103.702 -26.326)" fill="#ebebeb"/>
            <path id="Trazado_833188" data-name="Trazado 833188" d="M330.96,70.309a2.056,2.056,0,0,1-.3-.157l-.885-.511L326.3,67.588l.108-.015-6.164,6.46.016-.172,2.976,4.5.054.081-.047.086a21.848,21.848,0,0,0-2.1,5.381l-.026.106-.106.026-5.238,1.3.149-.193c.056,2.811.115,5.794.177,8.926l-.172-.207,5.286,1.089.134.028.038.133a21.75,21.75,0,0,0,2.3,5.278l.074.122-.074.123-2.79,4.617-.039-.3,6.431,6.195-.318-.03,4.509-2.962.133-.086.138.076a21.748,21.748,0,0,0,5.352,2.1l.156.038.038.157c.4,1.642.844,3.432,1.289,5.241l-.266-.2,8.928-.161-.262.217c.347-1.669.721-3.47,1.1-5.284l.033-.163.16-.045a21.679,21.679,0,0,0,5.268-2.289l0,0,.144-.085.14.085,4.613,2.8-.339.044,6.2-6.422-.032.337-2.955-4.513-.089-.137.079-.142a21.626,21.626,0,0,0,2.108-5.349l.039-.156.156-.038,5.243-1.281-.2.259q-.076-4.571-.148-8.928l.2.243-5.282-1.106-.146-.031-.04-.143a21.694,21.694,0,0,0-2.286-5.284l-.074-.124.074-.122,2.8-4.608.036.282-6.41-6.215.261.025-4.519,2.946-.1.065-.1-.058a21.785,21.785,0,0,0-5.364-2.129l-.106-.026-.025-.106c-.461-1.906-.876-3.623-1.268-5.245l.161.124-8.928.117.118-.1-1.134,5.277-.012.053-.051.014a22.67,22.67,0,0,0-4.083,1.57l-.96.5a2.18,2.18,0,0,1-.321.163,2.869,2.869,0,0,1,.3-.2c.2-.126.513-.314.941-.542a21.163,21.163,0,0,1,4.076-1.66l-.062.067,1.065-5.291.019-.1.1,0,8.926-.2.129,0,.032.127,1.3,5.236-.131-.131a22.054,22.054,0,0,1,5.469,2.134l-.2.007,4.5-2.969.14-.092.122.117L364.122,73l.131.126-.095.157L361.37,77.9v-.246a22.131,22.131,0,0,1,2.353,5.395l-.186-.173,5.285,1.093.2.041,0,.2q.08,4.354.166,8.927l0,.209-.2.05-5.241,1.289.195-.194a22.133,22.133,0,0,1-2.154,5.484l-.01-.279,2.96,4.511.119.182-.151.156-6.2,6.426-.152.157-.187-.113-4.613-2.8h.284l-.006,0a22.167,22.167,0,0,1-5.4,2.346l.193-.208c-.378,1.814-.753,3.615-1.1,5.284l-.044.213-.218,0-8.928.152-.215,0-.051-.209c-.442-1.809-.88-3.6-1.282-5.243l.195.195a22.223,22.223,0,0,1-5.48-2.161l.27-.01-4.515,2.953-.171.113-.147-.143-6.416-6.209-.141-.136.1-.167,2.8-4.608v.245a22.157,22.157,0,0,1-2.336-5.4l.172.16-5.282-1.111-.169-.035,0-.172c-.048-3.132-.094-6.116-.136-8.928l0-.156.152-.037,5.245-1.27-.131.132a22.084,22.084,0,0,1,2.165-5.452l.006.167-2.939-4.524-.06-.095.077-.079,6.238-6.387.05-.051.058.037,3.4,2.115.874.555a2.687,2.687,0,0,1,.3.2" transform="translate(-96.11 -19.002)" fill="#ebebeb"/>
            <path id="Trazado_833189" data-name="Trazado 833189" d="M46.318,191.414l.77,1.28a8.761,8.761,0,0,0,3.625,3.338l1.339.662-1.28.77a8.767,8.767,0,0,0-3.339,3.625l-.662,1.339-.77-1.28a8.766,8.766,0,0,0-3.625-3.338l-1.338-.662,1.28-.771a8.764,8.764,0,0,0,3.338-3.624Z" transform="translate(-12.5 -58.305)" fill="#c1cdf5"/>
            <path id="Trazado_833190" data-name="Trazado 833190" d="M300.7,43.63l.385.64a4.375,4.375,0,0,0,1.812,1.669l.669.331-.64.385a4.38,4.38,0,0,0-1.669,1.812l-.331.67-.385-.64a4.382,4.382,0,0,0-1.813-1.669l-.669-.331.64-.385a4.381,4.381,0,0,0,1.669-1.813Z" transform="translate(-90.79 -13.29)" fill="#c1cdf5"/>
            <path id="Trazado_833191" data-name="Trazado 833191" d="M281.818,15.184,283,17.153a13.489,13.489,0,0,0,5.577,5.136l2.06,1.018-1.969,1.185a13.481,13.481,0,0,0-5.136,5.578l-1.019,2.06-1.185-1.969a13.477,13.477,0,0,0-5.578-5.136l-2.06-1.019,1.969-1.185a13.49,13.49,0,0,0,5.136-5.578Z" transform="translate(-83.367 -4.625)" fill="#c1cdf5"/>
            <path id="Trazado_833192" data-name="Trazado 833192" d="M332.771,374.284l.385.64a4.375,4.375,0,0,0,1.812,1.669l.669.331-.64.385a4.38,4.38,0,0,0-1.669,1.812l-.331.67-.385-.64a4.382,4.382,0,0,0-1.813-1.669l-.669-.332.64-.385a4.381,4.381,0,0,0,1.669-1.813Z" transform="translate(-100.558 -114.007)" fill="#c1cdf5"/>
            <path id="Trazado_833193" data-name="Trazado 833193" d="M388.094,211.867l1.185,1.969a13.489,13.489,0,0,0,5.577,5.136l2.06,1.018-1.969,1.185a13.481,13.481,0,0,0-5.136,5.578l-1.019,2.06-1.185-1.969a13.485,13.485,0,0,0-5.578-5.136l-2.06-1.019,1.969-1.185a13.491,13.491,0,0,0,5.136-5.578Z" transform="translate(-115.739 -64.534)" fill="#c1cdf5"/>
          </g>
        </g>
        <g id="Grupo_1081152" data-name="Grupo 1081152">
          <g id="Grupo_1081151" data-name="Grupo 1081151" clip-path="url(#clip-path)">
            <path id="Trazado_833194" data-name="Trazado 833194" d="M285.486,416.685c0,.1-60.227.181-134.5.181-74.3,0-134.517-.081-134.517-.181s60.214-.181,134.517-.181c74.276,0,134.5.081,134.5.181" transform="translate(-5.015 -126.867)" fill="#263238"/>
          </g>
        </g>
        <g id="Grupo_1081169" data-name="Grupo 1081169">
          <g id="Grupo_1081168" data-name="Grupo 1081168" clip-path="url(#clip-path)">
            <path id="Trazado_833195" data-name="Trazado 833195" d="M102.779,201.266c-6.558,2.6-10.675,6.854-14.959,12.46-7.758,10.153-53.013,59.864-53.158,60.925C28.861,293.382,55.8,310.572,73,296.56c8.9-7.25,36.382-44.3,36.382-44.3l-1.318-53.09Z" transform="translate(-10.313 -60.666)" fill="#e0e0e0"/>
            <path id="Trazado_833196" data-name="Trazado 833196" d="M308.881,197.139c-5.35-4.586-22.219-7.354-22.219-7.354l-2.727.842c1.439,7.341,10.423,53.228,10.423,54.283,0,1.147,73.758,48.536,73.758,48.536l8.418-33.012s-62.3-58.709-67.654-63.295" transform="translate(-86.487 -57.808)" fill="#e0e0e0"/>
            <path id="Trazado_833197" data-name="Trazado 833197" d="M133.88,190.961l29.714-7.885,9.634-12.389,44.755,1.408,7.508,8.482,26.237,7.229-1.96,128.722,7.889,25.087H120.529l10.95-35.272-5.2-60.586Z" transform="translate(-36.713 -51.991)" fill="#e0e0e0"/>
            <path id="Trazado_833198" data-name="Trazado 833198" d="M240.468,44.686c-9.431-11.527-22.1-18.163-36.987-18.409-8.4-.139-11.878,1.607-17.928,3.239s-11.51,4.878-15.119,10c-4.287,6.085-7.888,12.9-8.7,20.3-.832,7.6-1.666,15.252-1.092,22.876s2.644,15.3,7.133,21.491l19.4,3.371c10.713.365,21.576.716,32.013-1.727s20.579-8.06,26.169-17.207c7.766-12.708,4.541-32.4-4.89-43.931" transform="translate(-48.874 -8.001)" fill="#263238"/>
            <path id="Trazado_833199" data-name="Trazado 833199" d="M172.274,146.25c.038.045-.316.478-1.159,1.017a9.515,9.515,0,0,1-4,1.35,10.369,10.369,0,0,1-6.167-1.25,10.346,10.346,0,0,1-3.733-13.806,10.369,10.369,0,0,1,4.7-4.188,9.51,9.51,0,0,1,4.132-.848,2.96,2.96,0,0,1,1.512.295c.015.231-2.259-.25-5.29,1.291a9.99,9.99,0,0,0-4.122,3.973,9.53,9.53,0,0,0,3.343,12.363,9.994,9.994,0,0,0,5.562,1.354c3.394-.2,5.115-1.759,5.22-1.551" transform="translate(-47.502 -39.147)" fill="#e0e0e0"/>
            <path id="Trazado_833200" data-name="Trazado 833200" d="M289.793,128.305a14.477,14.477,0,0,0-6.567-10.918c-3.791-2.24-9.088-2.008-12.246,1.061l-3.048,3.633a12.522,12.522,0,0,0-7.2,12.627,13.719,13.719,0,0,0,9.514,11.227,15.191,15.191,0,0,0,14.462-3.494,17.029,17.029,0,0,0,5.088-14.136" transform="translate(-79.396 -35.302)" fill="#263238"/>
            <path id="Trazado_833201" data-name="Trazado 833201" d="M290.473,143.5a6.563,6.563,0,0,0,1.044-3.86c-.163-2.483-1.966-5.737-4.44-8.72a26.227,26.227,0,0,0-7.773-6.232c-2.273-1.22-3.835-1.666-3.787-1.825a10.579,10.579,0,0,1,4.083,1.22,23.371,23.371,0,0,1,8.2,6.222,22.948,22.948,0,0,1,3.137,4.77,10.482,10.482,0,0,1,1.25,4.544,5.471,5.471,0,0,1-.87,3.076c-.438.629-.812.846-.847.805" transform="translate(-83.922 -37.418)" fill="#455a64"/>
            <path id="Trazado_833202" data-name="Trazado 833202" d="M280.726,150.1c-.317-.019,1-5.884-.866-12.811-1.766-6.957-5.789-11.423-5.521-11.594a10.429,10.429,0,0,1,2.564,2.88,27.009,27.009,0,0,1,4.647,17.759,10.481,10.481,0,0,1-.824,3.767" transform="translate(-83.559 -38.284)" fill="#455a64"/>
            <path id="Trazado_833203" data-name="Trazado 833203" d="M231.941,55.011a7.2,7.2,0,0,0-6.836-6.944l-25.862-10.28-6.756.785c-15.2.054-25.686,16.82-25.786,29.132-.111,13.679.294,30.383,2.467,40.465,4.371,20.274,20.189,22.016,20.189,22.016a56.9,56.9,0,0,0,.937,11.093l19.348,59.894,23.076-59.567Z" transform="translate(-50.772 -11.51)" fill="#a26760"/>
            <path id="Trazado_833204" data-name="Trazado 833204" d="M209.98,130.543a4.316,4.316,0,0,0-1.492-2.663,4.411,4.411,0,0,0-5.35-.3,5.909,5.909,0,0,0-2.244,5.546,5.37,5.37,0,0,0,3.843,2.229,6.409,6.409,0,0,0,.722.023,4.826,4.826,0,0,0,3.25-1.286,4.3,4.3,0,0,0,1.271-3.544" transform="translate(-61.174 -38.627)" fill="#7b4b45"/>
            <path id="Trazado_833205" data-name="Trazado 833205" d="M181.165,99.852a2.626,2.626,0,0,0,2.675,2.508,2.513,2.513,0,0,0,2.574-2.513,2.629,2.629,0,0,0-2.672-2.509,2.514,2.514,0,0,0-2.577,2.515" transform="translate(-55.182 -29.649)" fill="#263238"/>
            <path id="Trazado_833206" data-name="Trazado 833206" d="M173.926,90.39c.344.325,2.251-1.255,5.074-1.4,2.818-.188,4.969,1.151,5.256.789.143-.161-.223-.76-1.161-1.368a7.217,7.217,0,0,0-4.231-1.054,6.923,6.923,0,0,0-4.015,1.544c-.831.713-1.091,1.348-.923,1.492" transform="translate(-52.963 -26.604)" fill="#263238"/>
            <path id="Trazado_833207" data-name="Trazado 833207" d="M196.254,112.142c0-.161-1.766-.368-4.629-.576-.725-.035-1.415-.14-1.563-.625a3.664,3.664,0,0,1,.364-2.163q.873-2.672,1.83-5.606c2.531-7.976,4.321-14.519,4-14.617s-2.636,6.286-5.166,14.261q-.91,2.949-1.739,5.633a4.175,4.175,0,0,0-.218,2.85,1.814,1.814,0,0,0,1.243.989,4.921,4.921,0,0,0,1.234.1c2.869,0,4.645-.088,4.647-.249" transform="translate(-57.553 -26.974)" fill="#263238"/>
            <path id="Trazado_833208" data-name="Trazado 833208" d="M199.288,166.8a52.109,52.109,0,0,0,26.989-8.809s-6.265,14.608-26.84,13.817Z" transform="translate(-60.703 -48.124)" fill="#7b4b45"/>
            <path id="Trazado_833209" data-name="Trazado 833209" d="M207.794,124.626c-.46,0-.3,3.063-2.8,5.381s-5.782,2.161-5.782,2.59c-.032.2.76.556,2.14.517a7.641,7.641,0,0,0,4.837-1.989,6.65,6.65,0,0,0,2.152-4.5c.047-1.287-.337-2.028-.545-2" transform="translate(-60.679 -37.961)" fill="#263238"/>
            <path id="Trazado_833210" data-name="Trazado 833210" d="M174.724,75.238c.513.663,2.648.083,5.185.155,2.538-.01,4.665.621,5.186-.03.231-.316-.082-.973-1-1.618a8.037,8.037,0,0,0-8.357-.1c-.923.623-1.244,1.272-1.019,1.595" transform="translate(-53.2 -22.09)" fill="#263238"/>
            <path id="Trazado_833211" data-name="Trazado 833211" d="M226.1,98.857a2.627,2.627,0,0,1-2.487,2.694,2.513,2.513,0,0,1-2.749-2.321,2.629,2.629,0,0,1,2.484-2.7,2.514,2.514,0,0,1,2.752,2.322" transform="translate(-67.274 -29.402)" fill="#263238"/>
            <path id="Trazado_833212" data-name="Trazado 833212" d="M225.02,89.1c-.32.348-2.335-1.089-5.162-1.033-2.823.016-4.873,1.507-5.185,1.165-.154-.15.168-.775,1.059-1.448a7.215,7.215,0,0,1,4.144-1.357,6.924,6.924,0,0,1,4.115,1.25c.88.652,1.186,1.266,1.028,1.423" transform="translate(-65.378 -26.326)" fill="#263238"/>
            <path id="Trazado_833213" data-name="Trazado 833213" d="M227.177,80.306c-.545.651-2.738.024-5.36.038-2.622-.067-4.835.515-5.358-.147-.229-.322.109-.971,1.069-1.6a8.089,8.089,0,0,1,4.339-1.127,7.989,7.989,0,0,1,4.3,1.216c.938.643,1.254,1.3,1.014,1.617" transform="translate(-65.912 -23.598)" fill="#263238"/>
            <path id="Trazado_833214" data-name="Trazado 833214" d="M255.472,109.4c-.08-1.524,1.483-5.211,2.975-5.528,3.982-.846,11.24-.921,11.867,9.276.857,13.939-13.314,11.925-13.364,11.526-.038-.311-1.2-10.014-1.478-15.274" transform="translate(-77.816 -31.535)" fill="#a26760"/>
            <path id="Trazado_833215" data-name="Trazado 833215" d="M262.673,121.376c.058-.048.253.155.675.318a2.433,2.433,0,0,0,1.818-.074c1.439-.631,2.535-3.045,2.448-5.562a8.023,8.023,0,0,0-.893-3.435,2.807,2.807,0,0,0-1.942-1.751,1.24,1.24,0,0,0-1.392.753c-.163.4-.057.675-.129.7-.037.038-.314-.214-.236-.8a1.546,1.546,0,0,1,.5-.907,1.832,1.832,0,0,1,1.321-.437,3.418,3.418,0,0,1,2.67,2.006,8.261,8.261,0,0,1,1.081,3.833c.083,2.815-1.193,5.531-3.172,6.238a2.606,2.606,0,0,1-2.243-.232c-.453-.317-.545-.625-.5-.653" transform="translate(-80.007 -33.562)" fill="#7b4b45"/>
            <path id="Trazado_833216" data-name="Trazado 833216" d="M240.418,82.539l-4.033,4.06C221.091,71.96,191.2,35.306,192.871,37.49c0,0,10.478-4.309,21.85-2.372s32.943,7.629,32.612,21.042-6.914,26.379-6.914,26.379" transform="translate(-58.728 -10.544)" fill="#263238"/>
            <path id="Trazado_833217" data-name="Trazado 833217" d="M260.1,146.25c-.038.045.316.478,1.159,1.017a9.514,9.514,0,0,0,4,1.35,10.37,10.37,0,0,0,6.167-1.25,10.346,10.346,0,0,0,3.733-13.806,10.369,10.369,0,0,0-4.7-4.188,9.51,9.51,0,0,0-4.132-.848,2.96,2.96,0,0,0-1.512.295c-.015.231,2.259-.25,5.29,1.291a9.99,9.99,0,0,1,4.122,3.973,9.53,9.53,0,0,1-3.344,12.363,9.994,9.994,0,0,1-5.562,1.354c-3.394-.2-5.115-1.759-5.22-1.551" transform="translate(-79.225 -39.147)" fill="#e0e0e0"/>
            <path id="Trazado_833218" data-name="Trazado 833218" d="M261.3,79.7a3.611,3.611,0,0,0-.214-.807,14.106,14.106,0,0,0-.951-2.2,20.291,20.291,0,0,0-5.825-6.555A38.106,38.106,0,0,0,242.577,64.5c-4.662-1.519-9.919-2.7-15.078-4.914a68.3,68.3,0,0,1-13.772-7.713,71.3,71.3,0,0,1-9.72-8.5,76.09,76.09,0,0,1-5.621-6.67l-1.4-1.922a3.68,3.68,0,0,0-.524-.648,3.609,3.609,0,0,0,.4.727c.291.46.7,1.153,1.292,2a64.03,64.03,0,0,0,5.478,6.854,68.172,68.172,0,0,0,9.7,8.685,66.91,66.91,0,0,0,13.884,7.841c5.227,2.243,10.521,3.407,15.154,4.882a38.65,38.65,0,0,1,11.628,5.42,20.973,20.973,0,0,1,5.884,6.285c1.022,1.781,1.334,2.9,1.406,2.869" transform="translate(-59.842 -10.397)" fill="#455a64"/>
            <path id="Trazado_833219" data-name="Trazado 833219" d="M257.514,83.2a7.323,7.323,0,0,0-.541-3.047,14.238,14.238,0,0,0-5.238-6.563c-2.91-2.173-7.065-3.517-11.632-4.56a68.752,68.752,0,0,1-14.455-4.587,61.267,61.267,0,0,1-12.886-7.955,62.958,62.958,0,0,1-8.834-8.683A66.591,66.591,0,0,1,199,41.038c-.48-.793-.871-1.439-1.181-1.953a3.452,3.452,0,0,0-.455-.659,3.344,3.344,0,0,0,.329.729l1.07,2.026a56.844,56.844,0,0,0,4.773,6.946A60.479,60.479,0,0,0,212.348,57a60.142,60.142,0,0,0,13,8.093,67.19,67.19,0,0,0,14.6,4.578c4.56,1,8.628,2.273,11.489,4.33a14.4,14.4,0,0,1,5.27,6.251,16.561,16.561,0,0,1,.8,2.947" transform="translate(-60.117 -11.704)" fill="#455a64"/>
            <g id="Grupo_1081155" data-name="Grupo 1081155" transform="translate(159.455 203.706)" opacity="0.3">
              <g id="Grupo_1081154" data-name="Grupo 1081154">
                <g id="Grupo_1081153" data-name="Grupo 1081153" clip-path="url(#clip-path-5)">
                  <path id="Trazado_833220" data-name="Trazado 833220" d="M279.67,296.341a5.122,5.122,0,0,0-1.889-2.962c-1.512-.943-3.575-.276-4.878.939a24.959,24.959,0,0,0-3.1,4.333,16.439,16.439,0,0,1-14.539,6.9c-3.915-.314-7.61-2.047-11.525-2.374-4.661-.391-10.04.833-14.436,2.426l.284,9.206c-.178,1.8,1.944,2.529,3.751,2.383s3.7-.85,5.365-.144a9.121,9.121,0,0,1,2.769,2.422,14.165,14.165,0,0,0,16.308,2.73c2.035-1.056,3.872-2.643,6.133-3.025,2.075-.35,4.209.377,6.3.1,2.722-.358,4.953-2.369,6.546-4.6a21.186,21.186,0,0,0,2.919-18.329" transform="translate(-229.3 -292.933)"/>
                </g>
              </g>
            </g>
            <g id="Grupo_1081158" data-name="Grupo 1081158" transform="translate(68.861 146.485)" opacity="0.3">
              <g id="Grupo_1081157" data-name="Grupo 1081157">
                <g id="Grupo_1081156" data-name="Grupo 1081156" clip-path="url(#clip-path-6)">
                  <path id="Trazado_833221" data-name="Trazado 833221" d="M113.424,216.474c1.227-1.713,1.715-4.28.282-5.825-3.345,3.043-8.8,3.522-11.227,7.339-1.208,1.9-1.386,4.254-1.524,6.5q-1.262,20.408-1.933,40.847l.638,3.476,11.657-30.342c1.034-2.692,1.993-5.981.207-8.245-1.03-1.306-2.791-1.947-3.628-3.386-1.059-1.821-.2-4.2,1.149-5.816s3.151-2.835,4.378-4.548" transform="translate(-99.023 -210.648)"/>
                </g>
              </g>
            </g>
            <path id="Trazado_833222" data-name="Trazado 833222" d="M63.138,216.761,35.013,280.011,70.788,297.02l20.19-61.97Z" transform="translate(-10.665 -66.025)" fill="#e0e0e0"/>
            <path id="Trazado_833223" data-name="Trazado 833223" d="M75.457,216.761a.683.683,0,0,1,.146.076l.412.252,1.579,1,5.857,3.784L103.395,234.9l.1.065-.02.083c-.2.841-.454,1.548-.686,2.328l-.736,2.319-1.535,4.764c-3.678,11.33-7.068,21.565-9.535,28.969l-2.944,8.76-.818,2.375c-.092.255-.166.458-.222.615a1,1,0,0,1-.088.205,1.067,1.067,0,0,1,.052-.217l.188-.626c.179-.572.433-1.374.754-2.4l2.835-8.8,9.434-29,1.538-4.763q.373-1.17.739-2.316.177-.573.354-1.139l.17-.558.074-.263.038-.131.019-.065.009-.033,0-.016,0-.008v-.006l.133,0-.053.147L83.327,222.066l-5.8-3.872-1.547-1.051-.395-.278a.626.626,0,0,1-.129-.1" transform="translate(-22.984 -66.025)" fill="#263238"/>
            <path id="Trazado_833224" data-name="Trazado 833224" d="M96.066,306.414a18.529,18.529,0,0,1,.375-2.474c.28-1.617.636-3.67,1.028-5.942l.95-5.955a18.433,18.433,0,0,1,.446-2.462,2.422,2.422,0,0,1-.013.675c-.031.431-.092,1.054-.179,1.821-.173,1.536-.46,3.654-.846,5.981s-.8,4.422-1.135,5.932c-.166.755-.31,1.364-.42,1.782a2.435,2.435,0,0,1-.206.643" transform="translate(-29.259 -88.206)" fill="#263238"/>
            <path id="Trazado_833225" data-name="Trazado 833225" d="M125.186,244.075a.977.977,0,0,1,.049.211c.027.161.063.366.106.624.088.55.223,1.361.37,2.409.13,1.058.288,2.341.47,3.826.158,1.5.336,3.2.533,5.077.746,7.528,1.6,17.943,2.507,29.447s1.72,21.925,2.4,29.456c.177,1.879.338,3.581.48,5.079.159,1.487.3,2.771.409,3.83.129,1.03.229,1.839.3,2.415l.071.629a1.061,1.061,0,0,1,.013.217.926.926,0,0,1-.049-.211c-.028-.161-.063-.366-.107-.624-.087-.55-.223-1.361-.369-2.409-.13-1.058-.288-2.341-.47-3.826-.158-1.5-.337-3.2-.533-5.076-.747-7.528-1.6-17.944-2.508-29.452s-1.72-21.92-2.4-29.451c-.177-1.879-.338-3.581-.479-5.08-.159-1.486-.3-2.77-.409-3.83-.129-1.029-.23-1.839-.3-2.415-.03-.261-.053-.468-.072-.629a.964.964,0,0,1-.012-.217" transform="translate(-38.131 -74.345)" fill="#263238"/>
            <path id="Trazado_833226" data-name="Trazado 833226" d="M211.645,272.439a1.587,1.587,0,0,1-.149-.232l-.4-.7-1.524-2.709L204.02,258.8,185.84,225.769l-9.633-17.59-.092-.17.18-.069,6.966-2.639-.03.273-11.474-7.566-.1-.067.075-.1,5.455-7.036,1.462-1.861.383-.474a.926.926,0,0,1,.138-.154.959.959,0,0,1-.113.174l-.358.493-1.415,1.9-5.371,7.1-.029-.165,11.52,7.5.255.166-.284.109-6.957,2.663.087-.237,9.656,17.578,18.087,33.086,5.446,10.049,1.465,2.741.373.717a1.574,1.574,0,0,1,.116.25" transform="translate(-52.285 -57.361)" fill="#263238"/>
            <path id="Trazado_833227" data-name="Trazado 833227" d="M229.162,271.2a1.572,1.572,0,0,1,.1-.259c.082-.184.193-.43.334-.745l1.317-2.848,4.9-10.443,16.3-34.4,8.843-18.558.092.229-6.957-2.665-.284-.108.254-.165,11.52-7.5-.029.164-5.371-7.1-1.415-1.9-.358-.493a1.093,1.093,0,0,1-.113-.173,1.022,1.022,0,0,1,.138.154l.382.474,1.462,1.861,5.455,7.037.074.1-.1.067L254.24,201.5l-.03-.274,6.966,2.64.17.064-.078.164-8.818,18.57-16.4,34.351-5.008,10.393-1.378,2.818-.366.729a1.632,1.632,0,0,1-.136.243" transform="translate(-69.802 -56.12)" fill="#263238"/>
            <path id="Trazado_833228" data-name="Trazado 833228" d="M200.443,187.12s17.407,32.5,42.557-.039l-22.868,69.847Z" transform="translate(-61.055 -56.985)" fill="#455a64"/>
            <path id="Trazado_833229" data-name="Trazado 833229" d="M234.405,372.749a1.027,1.027,0,0,1-.042-.217c-.022-.164-.051-.376-.088-.642l-.3-2.472c-.245-2.173-.595-5.276-1.026-9.1-.827-7.688-1.9-18.319-2.741-30.091s-1.218-22.458-1.374-30.189c-.074-3.866-.114-7-.115-9.158,0-1.062,0-1.9,0-2.49,0-.268.007-.482.009-.647a1.046,1.046,0,0,1,.016-.221,1.023,1.023,0,0,1,.022.22c.006.166.015.379.026.647.016.593.038,1.427.066,2.489.055,2.186.133,5.306.229,9.152.223,7.728.648,18.4,1.479,30.171s1.873,22.4,2.634,30.09c.383,3.829.694,6.935.912,9.112.1,1.057.179,1.888.235,2.478.022.268.039.48.052.646a1.006,1.006,0,0,1,.006.221" transform="translate(-69.667 -87.579)" fill="#263238"/>
            <g id="Grupo_1081161" data-name="Grupo 1081161" transform="translate(164.631 138.616)" opacity="0.3">
              <g id="Grupo_1081160" data-name="Grupo 1081160">
                <g id="Grupo_1081159" data-name="Grupo 1081159" clip-path="url(#clip-path-7)">
                  <path id="Trazado_833230" data-name="Trazado 833230" d="M266.589,199.333,267.961,201l-7.005,4.687,6.8,2.483-31.016,56.538,26.683-56.094-6.962-2.652Z" transform="translate(-236.743 -199.333)"/>
                </g>
              </g>
            </g>
            <path id="Trazado_833231" data-name="Trazado 833231" d="M308.182,233.4a1.389,1.389,0,0,1,.017.26c0,.191.007.443.012.764,0,.692.006,1.677.01,2.935-.01,2.57-.024,6.253-.042,10.8-.058,9.115-.18,21.707-.4,35.613s-.5,26.5-.786,35.614c-.15,4.556-.276,8.242-.4,10.788-.062,1.257-.11,2.24-.144,2.932-.019.32-.035.572-.047.761a.131.131,0,1,1-.037,0c0-.19.006-.442.01-.764.018-.691.043-1.676.076-2.933.068-2.569.166-6.25.286-10.79.223-9.112.462-21.7.68-35.612.2-13.9.376-26.478.506-35.61.066-4.542.12-8.224.157-10.794.025-1.257.045-2.243.058-2.935.01-.321.018-.573.024-.763a1.369,1.369,0,0,1,.02-.26" transform="translate(-93.318 -71.095)" fill="#263238"/>
            <path id="Trazado_833232" data-name="Trazado 833232" d="M181.5,290.888a.978.978,0,0,1-.01-.154c0-.114-.007-.256-.011-.432q-.009-.6-.026-1.656c-.014-1.455-.034-3.543-.059-6.174l.107.107-34.461.074c.081-.081-.182.181.179-.181v4.27q0,2.106,0,4.147l-.177-.177,24.54.08,7.26.051,1.965.024.515.011a1.188,1.188,0,0,1,.182.012.733.733,0,0,1-.159.012l-.493.011-1.926.024-7.219.051-24.664.08h-.178v-.178q0-2.038,0-4.147,0-1.054,0-2.122v-2.148c.362-.362.1-.1.183-.181l34.461.074h.108v.107c-.025,2.659-.045,4.768-.059,6.238q-.017,1.043-.026,1.633c0,.168-.008.3-.011.413a.57.57,0,0,1-.01.133" transform="translate(-44.731 -85.98)" fill="#263238"/>
            <g id="Grupo_1081164" data-name="Grupo 1081164" transform="translate(104.193 204.908)" opacity="0.3">
              <g id="Grupo_1081163" data-name="Grupo 1081163">
                <g id="Grupo_1081162" data-name="Grupo 1081162" clip-path="url(#clip-path-8)">
                  <path id="Trazado_833233" data-name="Trazado 833233" d="M149.831,294.661s16.091,6.33,30.894,0Z" transform="translate(-149.831 -294.661)"/>
                </g>
              </g>
            </g>
            <path id="Trazado_833234" data-name="Trazado 833234" d="M184.578,264.282h-.214a2.569,2.569,0,0,0-2.568,2.569v10.14h5.35v-10.14a2.568,2.568,0,0,0-2.568-2.569" transform="translate(-55.375 -80.5)" fill="#455a64"/>
            <path id="Trazado_833235" data-name="Trazado 833235" d="M187.034,294.032h-.107a1.284,1.284,0,0,1-1.284-1.284v-14.29h2.675v14.29a1.284,1.284,0,0,1-1.284,1.284" transform="translate(-56.547 -84.818)" fill="#455a64"/>
            <path id="Trazado_833236" data-name="Trazado 833236" d="M188.094,303.659a4.43,4.43,0,0,1,.09.9c.031.583.063,1.428.079,2.471.033,2.088,0,4.974-.2,8.155-.1,1.591-.226,3.1-.367,4.478a13.5,13.5,0,0,1-.659,3.631,3.1,3.1,0,0,1-1.734,1.773,1.866,1.866,0,0,1-.676.118c-.157,0-.238-.025-.236-.035a3.747,3.747,0,0,0,.86-.214A3.043,3.043,0,0,0,186.8,323.2a14.211,14.211,0,0,0,.564-3.567c.123-1.372.24-2.882.339-4.468.2-3.172.273-6.049.306-8.133.015-.986.026-1.814.035-2.469a4.277,4.277,0,0,1,.051-.907" transform="translate(-56.165 -92.494)" fill="#263238"/>
            <path id="Trazado_833237" data-name="Trazado 833237" d="M179.7,319.144a107.882,107.882,0,0,1,.06-12.487,53.937,53.937,0,0,1,.151,6.245,53.843,53.843,0,0,1-.211,6.242" transform="translate(-54.69 -93.407)" fill="#263238"/>
            <path id="Trazado_833238" data-name="Trazado 833238" d="M231.539,240.872a25.978,25.978,0,0,1,6.333-2.752l1.3-6.269,10.592-.186,1.524,6.219a25.928,25.928,0,0,1,6.426,2.528l2.649-3.537,2.7.029,7.621,7.358-3.318,5.471a25.922,25.922,0,0,1,2.752,6.335l6.268,1.3.186,10.591-6.219,1.525a25.934,25.934,0,0,1-2.528,6.426l3.508,5.353-7.357,7.621-2.885-.138-2.588-3.18a25.928,25.928,0,0,1-6.334,2.752l-1.305,6.269-10.591.186-1.524-6.22a25.93,25.93,0,0,1-6.426-2.528l-5.353,3.509-2.7-.029-4.917-7.329,3.318-5.472a25.935,25.935,0,0,1-2.753-6.334l-6.268-1.3-.186-10.592,6.219-1.524a25.977,25.977,0,0,1,2.528-6.426l-3.508-5.353,4.654-7.649,2.7.028Zm5.646,14.11a11.364,11.364,0,1,0,16.068-.282,11.363,11.363,0,0,0-16.068.282" transform="translate(-65.023 -70.565)" fill="#ff725e"/>
            <g id="Grupo_1081167" data-name="Grupo 1081167" transform="translate(148.447 161.101)" opacity="0.3">
              <g id="Grupo_1081166" data-name="Grupo 1081166">
                <g id="Grupo_1081165" data-name="Grupo 1081165" clip-path="url(#clip-path-9)">
                  <path id="Trazado_833239" data-name="Trazado 833239" d="M231.539,240.872a25.978,25.978,0,0,1,6.333-2.752l1.3-6.269,10.592-.186,1.524,6.219a25.928,25.928,0,0,1,6.426,2.528l2.649-3.537,2.7.029,7.621,7.358-3.318,5.471a25.922,25.922,0,0,1,2.752,6.335l6.268,1.3.186,10.591-6.219,1.525a25.934,25.934,0,0,1-2.528,6.426l3.508,5.353-7.357,7.621-2.885-.138-2.588-3.18a25.928,25.928,0,0,1-6.334,2.752l-1.305,6.269-10.591.186-1.524-6.22a25.93,25.93,0,0,1-6.426-2.528l-5.353,3.509-2.7-.029-4.917-7.329,3.318-5.472a25.935,25.935,0,0,1-2.753-6.334l-6.268-1.3-.186-10.592,6.219-1.524a25.977,25.977,0,0,1,2.528-6.426l-3.508-5.353,4.654-7.649,2.7.028Zm5.646,14.11a11.364,11.364,0,1,0,16.068-.282,11.363,11.363,0,0,0-16.068.282" transform="translate(-213.47 -231.666)"/>
                </g>
              </g>
            </g>
            <path id="Trazado_833240" data-name="Trazado 833240" d="M227.651,240.832a25.924,25.924,0,0,1,6.333-2.752l1.3-6.268,10.592-.187,1.524,6.22a25.927,25.927,0,0,1,6.426,2.527l5.353-3.508,7.621,7.357-3.318,5.472a25.923,25.923,0,0,1,2.752,6.335l6.268,1.3.186,10.592-6.219,1.524a25.955,25.955,0,0,1-2.528,6.426l3.508,5.353-7.357,7.62-5.473-3.318a25.93,25.93,0,0,1-6.334,2.752l-1.305,6.268-10.591.187-1.524-6.22a25.957,25.957,0,0,1-6.426-2.528l-5.353,3.509-7.621-7.358,3.318-5.472a25.931,25.931,0,0,1-2.753-6.334l-6.268-1.305-.186-10.59,6.219-1.525a25.971,25.971,0,0,1,2.528-6.427l-3.508-5.353,7.357-7.621Zm5.646,14.109a11.364,11.364,0,1,0,16.068-.282,11.363,11.363,0,0,0-16.068.282" transform="translate(-63.838 -70.552)" fill="#ff725e"/>
            <path id="Trazado_833241" data-name="Trazado 833241" d="M294.573,249.719c0,.1-.606.181-1.353.181s-1.353-.081-1.353-.181.606-.181,1.353-.181,1.353.081,1.353.181" transform="translate(-88.903 -76.009)" fill="#263238"/>
            <path id="Trazado_833242" data-name="Trazado 833242" d="M289.966,257.463c0,.1-.586.176-1.306.169s-1.3-.093-1.3-.193.585-.175,1.305-.169,1.3.093,1.3.193" transform="translate(-87.529 -78.364)" fill="#263238"/>
            <path id="Trazado_833243" data-name="Trazado 833243" d="M302.458,268.591c.006.1-.529.21-1.194.246s-1.208-.016-1.213-.116.529-.21,1.194-.246,1.208.016,1.213.115" transform="translate(-91.395 -81.774)" fill="#263238"/>
            <path id="Trazado_833244" data-name="Trazado 833244" d="M302.449,283.8c0,.1-.5.166-1.108.148s-1.1-.114-1.1-.214.5-.166,1.108-.147,1.1.113,1.1.213" transform="translate(-91.454 -86.378)" fill="#263238"/>
            <path id="Trazado_833245" data-name="Trazado 833245" d="M290.567,295.331c-.01.1-.588.123-1.289.052s-1.263-.209-1.253-.308.588-.122,1.289-.052,1.263.209,1.253.308" transform="translate(-87.732 -89.851)" fill="#263238"/>
            <path id="Trazado_833246" data-name="Trazado 833246" d="M295.35,302.864c0,.1-.579.2-1.3.215s-1.306-.048-1.309-.148.579-.2,1.3-.214,1.306.047,1.309.147" transform="translate(-89.169 -92.206)" fill="#263238"/>
            <path id="Trazado_833247" data-name="Trazado 833247" d="M267.884,313.213c-.017.1-.63.077-1.377.03s-1.357-.105-1.362-.207.616-.206,1.385-.155,1.371.235,1.353.332" transform="translate(-80.763 -95.299)" fill="#263238"/>
            <path id="Trazado_833248" data-name="Trazado 833248" d="M266.89,240.645c0,.1-.588.166-1.309.147s-1.3-.114-1.3-.214.588-.166,1.309-.147,1.3.114,1.3.214" transform="translate(-80.5 -73.234)" fill="#263238"/>
            <path id="Trazado_833249" data-name="Trazado 833249" d="M224.666,242.626a46.694,46.694,0,0,1-5.891,5.723,46.679,46.679,0,0,1,5.891-5.723" transform="translate(-66.638 -73.903)" fill="#fff"/>
            <path id="Trazado_833250" data-name="Trazado 833250" d="M244.874,258.96a21,21,0,0,0-2.922,1.592,12.6,12.6,0,0,0-4.98,14.083,21.136,21.136,0,0,0,1.27,3.075,3.64,3.64,0,0,1-.514-.744,11.274,11.274,0,0,1-1-2.256,12.435,12.435,0,0,1,5.082-14.37,11.291,11.291,0,0,1,2.2-1.125,3.576,3.576,0,0,1,.868-.255" transform="translate(-71.92 -78.878)" fill="#fff"/>
            <path id="Trazado_833251" data-name="Trazado 833251" d="M254.621,258.1c.006.1-.357.2-.811.232s-.827-.03-.833-.129.357-.2.811-.232.827.03.833.129" transform="translate(-77.057 -78.575)" fill="#fff"/>
            <path id="Trazado_833252" data-name="Trazado 833252" d="M246.652,234.51a9.7,9.7,0,0,1-.41,3.711,9.7,9.7,0,0,1,.41-3.711" transform="translate(-74.984 -71.431)" fill="#fff"/>
            <path id="Trazado_833253" data-name="Trazado 833253" d="M277.928,241.138c.064.077-.413.577-1.065,1.118s-1.232.915-1.3.838.413-.577,1.065-1.117,1.232-.916,1.3-.839" transform="translate(-83.936 -73.447)" fill="#fff"/>
            <path id="Trazado_833254" data-name="Trazado 833254" d="M296.439,269.951a10.118,10.118,0,0,1-3.711-.874,10.127,10.127,0,0,1,3.711.874" transform="translate(-89.164 -81.95)" fill="#fff"/>
            <path id="Trazado_833255" data-name="Trazado 833255" d="M214.61,269.991a3.7,3.7,0,0,1-3.606.729c.015-.106.845-.034,1.828-.239s1.723-.581,1.777-.49" transform="translate(-64.272 -82.235)" fill="#fff"/>
            <path id="Trazado_833256" data-name="Trazado 833256" d="M221.524,298.648a5.011,5.011,0,0,1-.706,1.747,11.453,11.453,0,0,1-.82,1.383l-.154-.1c.13-.118.215-.173.241-.152s-.009.116-.1.268l-.434.752.28-.853a11.589,11.589,0,0,1,.663-1.465,5.014,5.014,0,0,1,1.027-1.58" transform="translate(-66.876 -90.967)" fill="#fff"/>
            <path id="Trazado_833257" data-name="Trazado 833257" d="M249.281,318.775a12.216,12.216,0,0,1-1.177-4.024,12.231,12.231,0,0,1,1.177,4.024" transform="translate(-75.565 -95.873)" fill="#fff"/>
            <path id="Trazado_833258" data-name="Trazado 833258" d="M285.323,263.649s-2.14-4.144-5.15-4.431-31.159,7.356-31.159,7.356.654,4.1,3.793,3.943a83.9,83.9,0,0,0,10.311-1.91L249.9,274.222a6.282,6.282,0,0,0,7.626,3.55c5.52-1.551,15.1-3.43,15.1-3.43l-17.3,7.593s1.278,4.62,5.861,3.138a60.491,60.491,0,0,1,10.395-2.091l-10.782,4.808s.359,3.872,5.195,3.187,13.63-2.2,13.63-2.2a57.2,57.2,0,0,0,6.009,8.5c7.51,8.514,11.919,3.48,11.919,3.48l6.806,2.442c.268-1.418,3.812-23.169,3.812-23.169L294.7,278.316s-5.276-11.651-6.2-12.829a5.373,5.373,0,0,0-3.179-1.838" transform="translate(-75.849 -78.955)" fill="#a26760"/>
            <path id="Trazado_833259" data-name="Trazado 833259" d="M284.242,266.124c.029.1-3.64,1.291-8.194,2.668s-8.271,2.417-8.3,2.321,3.64-1.29,8.2-2.668,8.27-2.417,8.3-2.321" transform="translate(-81.556 -81.059)" fill="#7b4b45"/>
            <path id="Trazado_833260" data-name="Trazado 833260" d="M282.016,277.022a5.56,5.56,0,0,1-.908.478l-2.533,1.178c-2.145.978-5.119,2.306-8.417,3.743s-6.3,2.711-8.482,3.6c-1.092.446-1.981.793-2.6,1.024a5.426,5.426,0,0,1-.978.313,5.674,5.674,0,0,1,.925-.444l2.553-1.129,8.437-3.7,8.459-3.646,2.579-1.072a5.561,5.561,0,0,1,.965-.348" transform="translate(-78.617 -84.38)" fill="#7b4b45"/>
            <path id="Trazado_833261" data-name="Trazado 833261" d="M293.649,287.327a65.709,65.709,0,0,1-6.451,2.419,65.548,65.548,0,0,1-6.569,2.076,66.036,66.036,0,0,1,6.451-2.419,65.675,65.675,0,0,1,6.569-2.076" transform="translate(-85.479 -87.518)" fill="#7b4b45"/>
            <path id="Trazado_833262" data-name="Trazado 833262" d="M299.173,299.64a15.689,15.689,0,0,1-6.989,1.64c-.01-.105,1.584-.312,3.507-.768s3.444-.971,3.482-.873" transform="translate(-88.999 -91.266)" fill="#7b4b45"/>
            <path id="Trazado_833263" data-name="Trazado 833263" d="M316.958,291.745l-4.617-9.654-4.595-9.65c.168-.138,2.372,4.165,4.921,9.494s4.493,9.74,4.29,9.809" transform="translate(-93.739 -82.984)" fill="#7b4b45"/>
            <path id="Trazado_833264" data-name="Trazado 833264" d="M133.037,137.381l-22.4,45.316,4.7,2.065,21.772-45.857Z" transform="translate(-33.699 -41.846)" fill="#455a64"/>
            <path id="Trazado_833265" data-name="Trazado 833265" d="M171.847,99.547a23.415,23.415,0,1,1-22.3-24.475,23.415,23.415,0,0,1,22.3,24.475" transform="translate(-38.088 -22.859)" fill="#a26760"/>
            <path id="Trazado_833266" data-name="Trazado 833266" d="M171.455,99.212a4.813,4.813,0,0,1-.188-1.491q-.021-.366-.047-.813c-.029-.3-.09-.622-.138-.972a17.794,17.794,0,0,0-.438-2.4,22.642,22.642,0,0,0-2.387-6.184,23.088,23.088,0,0,0-5.588-6.672,22.72,22.72,0,0,0-9.392-4.6,21.133,21.133,0,0,0-2.849-.444c-.487-.036-.976-.1-1.472-.117l-1.5.017c-.251.008-.5,0-.757.018l-.758.086c-.506.063-1.02.1-1.53.184a24.2,24.2,0,0,0-3.045.759,23.7,23.7,0,0,0-3,1.168c-.487.239-.956.52-1.439.78a11.313,11.313,0,0,0-1.4.878,20.654,20.654,0,0,0-4.97,4.574,21.857,21.857,0,0,0-3.494,6.053,22.377,22.377,0,0,0-.661,14.194,21.86,21.86,0,0,0,2.918,6.352,20.641,20.641,0,0,0,4.526,5.016,11.377,11.377,0,0,0,1.313,1c.457.3.9.627,1.361.909a23.611,23.611,0,0,0,2.875,1.441,24.168,24.168,0,0,0,2.962,1.038c.5.13,1.008.215,1.506.325l.747.156c.249.046.5.057.752.088l1.492.156c.494.034.988.011,1.477.021a21.116,21.116,0,0,0,2.878-.179,22.722,22.722,0,0,0,9.778-3.71,23.084,23.084,0,0,0,6.181-6.125,22.645,22.645,0,0,0,2.949-5.936,17.77,17.77,0,0,0,.659-2.347c.08-.346.17-.662.227-.955s.086-.563.122-.805a4.834,4.834,0,0,1,.326-1.467,4.7,4.7,0,0,1,.037,1.507q-.017.373-.037.83c-.029.3-.092.632-.146.99a16.046,16.046,0,0,1-.513,2.451,21.942,21.942,0,0,1-2.778,6.29,23.846,23.846,0,0,1-16.6,10.765,22.373,22.373,0,0,1-3.068.239c-.522,0-1.049.029-1.578,0l-1.6-.144c-.267-.029-.539-.039-.806-.085l-.8-.154c-.535-.11-1.081-.2-1.619-.33a26.259,26.259,0,0,1-6.3-2.6c-.5-.3-.979-.642-1.474-.965a12.718,12.718,0,0,1-1.421-1.07,22.195,22.195,0,0,1-4.91-5.373,23.476,23.476,0,0,1-3.176-6.848,24.016,24.016,0,0,1,.713-15.329,23.475,23.475,0,0,1,3.8-6.521,22.207,22.207,0,0,1,5.386-4.894,12.572,12.572,0,0,1,1.515-.933c.522-.275,1.03-.572,1.556-.823a25.082,25.082,0,0,1,3.232-1.226,25.483,25.483,0,0,1,3.278-.776c.548-.083,1.1-.119,1.642-.179l.813-.08c.271-.021.542,0,.811-.01l1.6,0c.529.021,1.051.1,1.571.146a22.406,22.406,0,0,1,3.033.522A23.851,23.851,0,0,1,169.15,86.876a21.947,21.947,0,0,1,2.184,6.521,15.97,15.97,0,0,1,.284,2.488c.02.362.053.695.054,1q-.022.456-.04.83a4.7,4.7,0,0,1-.177,1.5" transform="translate(-37.696 -22.524)" fill="#263238"/>
            <path id="Trazado_833267" data-name="Trazado 833267" d="M164.727,112.531a4.764,4.764,0,0,1-4.732,4.672,4.556,4.556,0,0,1-4.784-4.435,4.766,4.766,0,0,1,4.726-4.674,4.56,4.56,0,0,1,4.791,4.438" transform="translate(-47.277 -32.925)" fill="#263238"/>
            <path id="Trazado_833268" data-name="Trazado 833268" d="M163.585,94.858c-.608.6-4.139-2.17-9.265-2.306-5.117-.209-8.955,2.32-9.492,1.675-.266-.286.37-1.389,2.04-2.534a13.082,13.082,0,0,1,7.622-2.11,12.567,12.567,0,0,1,7.352,2.611c1.54,1.255,2.042,2.394,1.743,2.664" transform="translate(-44.097 -27.285)" fill="#263238"/>
            <path id="Trazado_833269" data-name="Trazado 833269" d="M136.166,117.628c-.126.174-1.7-.64-3.573-2.767A18.751,18.751,0,0,1,130.1,94.082c1.315-2.509,2.653-3.673,2.816-3.534.226.168-.712,1.58-1.647,4.056a20.635,20.635,0,0,0,2.337,19.473c1.494,2.184,2.741,3.334,2.56,3.551" transform="translate(-39.003 -27.577)" fill="#fff"/>
            <path id="Trazado_833270" data-name="Trazado 833270" d="M147.233,134.35c-.039.244-.274.442-.653.508a2.3,2.3,0,0,1-2.329-1.306.708.708,0,0,1,.094-.823c.4-.31,1.1-.085,1.748.269.642.371,1.2.849,1.14,1.351" transform="translate(-43.914 -40.385)" fill="#fff"/>
            <path id="Trazado_833271" data-name="Trazado 833271" d="M87.42,183.1s10.143-22.658,11.533-23.8S114.585,148,114.585,148a7.95,7.95,0,0,1,4.244.732c1.338.8,4.491,5.791,5.748,7.839a2.275,2.275,0,0,1,.24,1.847l-1.653,4.507s1.721,2.72,1.232,4.611a12.329,12.329,0,0,1-1.609,3.5,6.994,6.994,0,0,1,.457,5.384A7.4,7.4,0,0,1,119.3,180.1s-1.212,4.686-1.389,5.614-5.346,2.827-5.873,2.669-4.195-1.8-4.195-1.8-1.96,7.663-4.175,9.3a11.376,11.376,0,0,1-5.035,1.9L97.1,208.823l-17.662-11.2Z" transform="translate(-24.197 -45.068)" fill="#a26760"/>
            <path id="Trazado_833272" data-name="Trazado 833272" d="M123.972,189.914a34.718,34.718,0,0,1,4.448,1.521c2.427.91,4.41,1.6,4.381,1.7a22.486,22.486,0,0,1-4.507-1.359,27.473,27.473,0,0,1-4.323-1.861" transform="translate(-37.762 -57.845)" fill="#7b4b45"/>
            <path id="Trazado_833273" data-name="Trazado 833273" d="M124.613,176.117a8.8,8.8,0,0,1,1.84.321c1.124.253,2.667.65,4.35,1.161s3.187,1.038,4.262,1.453a8.845,8.845,0,0,1,1.709.755,10.38,10.38,0,0,1-1.793-.513c-1.095-.352-2.6-.839-4.282-1.348s-3.2-.943-4.309-1.259a10.4,10.4,0,0,1-1.777-.57" transform="translate(-37.957 -53.642)" fill="#7b4b45"/>
            <path id="Trazado_833274" data-name="Trazado 833274" d="M122.383,165.208a9.425,9.425,0,0,1,2.052.042,37.864,37.864,0,0,1,9.662,2.091,9.423,9.423,0,0,1,1.885.811,14.713,14.713,0,0,1-1.967-.568c-1.205-.37-2.88-.843-4.759-1.251s-3.6-.667-4.849-.828a14.727,14.727,0,0,1-2.025-.3" transform="translate(-37.278 -50.312)" fill="#7b4b45"/>
            <path id="Trazado_833275" data-name="Trazado 833275" d="M134.433,165.607a6.334,6.334,0,0,1-.3-3.408,3.918,3.918,0,0,1-2.989-1.138c-.9.978-2.113,2.332-3.014,3.312Z" transform="translate(-39.029 -49.059)" fill="#455a64"/>
            <path id="Trazado_833276" data-name="Trazado 833276" d="M327.724,275.354l37.906-13.3,24.117,22.667c16.85,22.876-2.449,42.555-20.688,39.527-13.437-2.232-49.791-16.651-49.791-16.651Z" transform="translate(-97.248 -79.822)" fill="#e0e0e0"/>
            <path id="Trazado_833277" data-name="Trazado 833277" d="M319.266,313.926a.634.634,0,0,1,.024-.156c.027-.12.061-.268.1-.452l.427-1.739c.392-1.538.951-3.734,1.65-6.475,1.439-5.532,3.448-13.254,5.754-22.123l.04-.154.158.026,9.74,1.583,29.18,4.811,8.836,1.5,2.4.426.622.12a.924.924,0,0,1,.21.053.987.987,0,0,1-.216-.017l-.629-.084-2.41-.359L366.3,289.5l-29.2-4.707-9.738-1.593.2-.129-5.876,22.092-1.75,6.448-.484,1.725c-.054.181-.1.327-.133.444a.618.618,0,0,1-.055.148" transform="translate(-97.248 -86.149)" fill="#263238"/>
            <path id="Trazado_833278" data-name="Trazado 833278" d="M390.21,286.672c.017.1-3.373.779-7.572,1.52s-7.619,1.262-7.636,1.163,3.373-.779,7.573-1.52,7.618-1.262,7.635-1.163" transform="translate(-114.225 -87.316)" fill="#263238"/>
          </g>
        </g>
        <g id="Grupo_1081171" data-name="Grupo 1081171">
          <g id="Grupo_1081170" data-name="Grupo 1081170" clip-path="url(#clip-path)">
            <path id="Trazado_833279" data-name="Trazado 833279" d="M157.724,381.084H53.351a5.091,5.091,0,0,1-5.01-4.184L35.417,305.548a5.092,5.092,0,0,1,5.01-6H144.8a5.092,5.092,0,0,1,5.01,4.184l12.924,71.352a5.092,5.092,0,0,1-5.01,6" transform="translate(-10.763 -91.242)" fill="#263238"/>
            <path id="Trazado_833280" data-name="Trazado 833280" d="M264.139,406.995H203.655v6.817h67.028v-.273a6.544,6.544,0,0,0-6.544-6.544" transform="translate(-62.033 -123.97)" fill="#263238"/>
            <path id="Trazado_833281" data-name="Trazado 833281" d="M191.17,299.549c.1-.02,3.8,18.213,8.277,40.719s8.021,40.773,7.923,40.793-3.8-18.209-8.278-40.723-8.021-40.769-7.923-40.789" transform="translate(-58.23 -91.242)" fill="#455a64"/>
            <path id="Trazado_833282" data-name="Trazado 833282" d="M118.924,358.641a3.658,3.658,0,0,0-3.115-2.666l.307-.007a3.58,3.58,0,1,0,2.807,2.673" transform="translate(-34.074 -108.411)" fill="#455a64"/>
          </g>
        </g>
      </g>
    </g>
  </g>
</svg>
