<svg xmlns="http://www.w3.org/2000/svg" xmlns:xlink="http://www.w3.org/1999/xlink" width="1240" height="444" viewBox="0 0 1240 444">
  <defs>
    <linearGradient id="linear-gradient" x1="0.5" x2="0.5" y2="1" gradientUnits="objectBoundingBox">
      <stop offset="0" stop-color="#f1ece6"/>
      <stop offset="1" stop-color="#fff7ef"/>
    </linearGradient>
    <clipPath id="clip-path">
      <rect id="Rectángulo_377777" data-name="Rectángulo 377777" width="230" height="219.245" fill="none"/>
    </clipPath>
    <clipPath id="clip-path-3">
      <rect id="Rectángulo_377771" data-name="Rectángulo 377771" width="58.577" height="8.368" fill="none"/>
    </clipPath>
    <clipPath id="clip-path-4">
      <rect id="Rectángulo_377775" data-name="Rectángulo 377775" width="18.762" height="18.763" fill="none"/>
    </clipPath>
    <clipPath id="clip-path-5">
      <rect id="Rectángulo_377779" data-name="Rectángulo 377779" width="94.079" height="110.581" fill="none"/>
    </clipPath>
  </defs>
  <g id="Grupo_1081481" data-name="Grupo 1081481" transform="translate(-180 -10304)">
    <g id="Grupo_1081421" data-name="Grupo 1081421" transform="translate(0 -43)">
      <rect id="Rectángulo_377500" data-name="Rectángulo 377500" width="1240" height="444" transform="translate(180 10347)" fill="url(#linear-gradient)"/>
      <g id="Grupo_1080911" data-name="Grupo 1080911" transform="translate(0 11)">
        <path id="Rectángulo_377767" data-name="Rectángulo 377767" d="M20,0H335a0,0,0,0,1,0,0V70a0,0,0,0,1,0,0H20A20,20,0,0,1,0,50V20A20,20,0,0,1,20,0Z" transform="translate(265 10657)" fill="#c1cdf5"/>
        <path id="Trazado_834665" data-name="Trazado 834665" d="M1.016,15V3.625h3.5A5.315,5.315,0,0,1,7.2,4.3,4.712,4.712,0,0,1,9.047,6.223a5.928,5.928,0,0,1,.664,2.832v.523a5.945,5.945,0,0,1-.652,2.82,4.672,4.672,0,0,1-1.84,1.914A5.355,5.355,0,0,1,4.539,15ZM3.359,5.523v7.594H4.492a2.545,2.545,0,0,0,2.1-.9,4.06,4.06,0,0,0,.742-2.57v-.6a4.124,4.124,0,0,0-.719-2.629,2.537,2.537,0,0,0-2.1-.895Zm11.8,9.633a4.15,4.15,0,0,1-3.027-1.141,4.054,4.054,0,0,1-1.168-3.039v-.219a5.106,5.106,0,0,1,.492-2.277,3.612,3.612,0,0,1,1.395-1.547,3.914,3.914,0,0,1,2.059-.543,3.508,3.508,0,0,1,2.73,1.094,4.444,4.444,0,0,1,1,3.1v.922H13.25a2.1,2.1,0,0,0,.66,1.328,2,2,0,0,0,1.395.5,2.437,2.437,0,0,0,2.039-.945l1.109,1.242a3.389,3.389,0,0,1-1.375,1.121A4.511,4.511,0,0,1,15.156,15.156ZM14.9,8.211a1.411,1.411,0,0,0-1.09.455,2.357,2.357,0,0,0-.535,1.3h3.141V9.788a1.681,1.681,0,0,0-.406-1.165A1.456,1.456,0,0,0,14.9,8.211Zm8.531,5.125a1.481,1.481,0,0,0,1.016-.344,1.2,1.2,0,0,0,.406-.914h2.117a2.9,2.9,0,0,1-.469,1.574,3.093,3.093,0,0,1-1.262,1.109,3.949,3.949,0,0,1-1.77.395A3.67,3.67,0,0,1,20.609,14a4.56,4.56,0,0,1-1.047-3.184v-.148A4.508,4.508,0,0,1,20.6,7.555a3.627,3.627,0,0,1,2.852-1.164,3.555,3.555,0,0,1,2.543.9,3.2,3.2,0,0,1,.973,2.4H24.852a1.551,1.551,0,0,0-.406-1.072,1.51,1.51,0,0,0-2.223.163,3.333,3.333,0,0,0-.4,1.866v.235a3.375,3.375,0,0,0,.4,1.878A1.377,1.377,0,0,0,23.43,13.336Zm9.578-4.672A6.134,6.134,0,0,0,32.2,8.6a1.654,1.654,0,0,0-1.68.867V15H28.258V6.547h2.133l.063,1.008a2.092,2.092,0,0,1,1.883-1.164,2.366,2.366,0,0,1,.7.1Zm4.828,6.492a4.15,4.15,0,0,1-3.027-1.141,4.054,4.054,0,0,1-1.168-3.039v-.219a5.106,5.106,0,0,1,.492-2.277,3.612,3.612,0,0,1,1.395-1.547,3.914,3.914,0,0,1,2.059-.543,3.508,3.508,0,0,1,2.73,1.094,4.444,4.444,0,0,1,1,3.1v.922H35.93a2.1,2.1,0,0,0,.66,1.328,2,2,0,0,0,1.395.5,2.437,2.437,0,0,0,2.039-.945l1.109,1.242a3.389,3.389,0,0,1-1.375,1.121A4.511,4.511,0,0,1,37.836,15.156Zm-.258-6.945a1.411,1.411,0,0,0-1.09.455,2.357,2.357,0,0,0-.535,1.3h3.141V9.788a1.681,1.681,0,0,0-.406-1.165A1.456,1.456,0,0,0,37.578,8.211ZM45.3,4.469V6.547h1.445V8.2H45.3v4.219a1.007,1.007,0,0,0,.18.672.9.9,0,0,0,.688.2,3.6,3.6,0,0,0,.664-.055v1.711a4.648,4.648,0,0,1-1.367.2,2.156,2.156,0,0,1-2.422-2.4V8.2H41.8V6.547h1.234V4.469ZM47.414,10.7A5.013,5.013,0,0,1,47.9,8.453,3.546,3.546,0,0,1,49.293,6.93a4.069,4.069,0,0,1,2.113-.539A3.849,3.849,0,0,1,54.2,7.438a4.2,4.2,0,0,1,1.207,2.844l.016.578a4.418,4.418,0,0,1-1.086,3.121,4.209,4.209,0,0,1-5.832,0,4.5,4.5,0,0,1-1.09-3.187Zm2.258.16a3.16,3.16,0,0,0,.453,1.843,1.628,1.628,0,0,0,2.578.008,3.457,3.457,0,0,0,.461-2.015A3.128,3.128,0,0,0,52.7,8.86a1.5,1.5,0,0,0-1.3-.649,1.474,1.474,0,0,0-1.281.646A3.516,3.516,0,0,0,49.672,10.856ZM63,8.313h1.2a1.7,1.7,0,0,0,1.273-.43,1.575,1.575,0,0,0,.414-1.141,1.392,1.392,0,0,0-.41-1.07,1.59,1.59,0,0,0-1.129-.383,1.666,1.666,0,0,0-1.086.355,1.137,1.137,0,0,0-.437.926H60.57a2.777,2.777,0,0,1,.48-1.6,3.2,3.2,0,0,1,1.344-1.105,4.485,4.485,0,0,1,1.9-.4,4.253,4.253,0,0,1,2.828.863,2.945,2.945,0,0,1,1.023,2.379,2.394,2.394,0,0,1-.477,1.438,3.1,3.1,0,0,1-1.25,1.008,2.826,2.826,0,0,1,1.434,1.031,2.8,2.8,0,0,1,.473,1.625,2.994,2.994,0,0,1-1.105,2.43,4.445,4.445,0,0,1-2.926.914,4.214,4.214,0,0,1-2.785-.9,2.934,2.934,0,0,1-1.082-2.375h2.258a1.308,1.308,0,0,0,.48,1.047,2,2,0,0,0,2.445-.02,1.47,1.47,0,0,0,.457-1.129q0-1.7-1.875-1.7H63ZM77.539,10.3a5.763,5.763,0,0,1-.977,3.609,3.9,3.9,0,0,1-5.7.023,5.594,5.594,0,0,1-1.008-3.516V8.32A5.687,5.687,0,0,1,70.84,4.7a3.91,3.91,0,0,1,5.691-.012A5.576,5.576,0,0,1,77.539,8.2Zm-2.258-2.3a4.165,4.165,0,0,0-.387-2.061,1.307,1.307,0,0,0-1.207-.645,1.284,1.284,0,0,0-1.176.614,3.9,3.9,0,0,0-.4,1.92v2.768a4.373,4.373,0,0,0,.379,2.068,1.29,1.29,0,0,0,1.215.676,1.268,1.268,0,0,0,1.2-.649,4.268,4.268,0,0,0,.383-1.986Zm6.078.318h1.2a1.7,1.7,0,0,0,1.273-.43,1.575,1.575,0,0,0,.414-1.141,1.392,1.392,0,0,0-.41-1.07,1.59,1.59,0,0,0-1.129-.383,1.666,1.666,0,0,0-1.086.355,1.137,1.137,0,0,0-.437.926H78.93a2.777,2.777,0,0,1,.48-1.6,3.2,3.2,0,0,1,1.344-1.105,4.485,4.485,0,0,1,1.9-.4,4.253,4.253,0,0,1,2.828.863,2.945,2.945,0,0,1,1.023,2.379,2.394,2.394,0,0,1-.477,1.438,3.1,3.1,0,0,1-1.25,1.008,2.826,2.826,0,0,1,1.434,1.031,2.8,2.8,0,0,1,.473,1.625,2.994,2.994,0,0,1-1.105,2.43,4.445,4.445,0,0,1-2.926.914,4.214,4.214,0,0,1-2.785-.9,2.934,2.934,0,0,1-1.082-2.375h2.258a1.308,1.308,0,0,0,.48,1.047,2,2,0,0,0,2.445-.02,1.47,1.47,0,0,0,.457-1.129q0-1.7-1.875-1.7h-1.2Zm12.164,2.141a2.851,2.851,0,0,1-2.062.867,3.049,3.049,0,0,1-2.414-1.035,4.091,4.091,0,0,1-.906-2.793,4.357,4.357,0,0,1,.488-2.051,3.582,3.582,0,0,1,1.363-1.453,3.782,3.782,0,0,1,1.969-.52,3.617,3.617,0,0,1,2,.563A3.7,3.7,0,0,1,95.32,5.648a5.806,5.806,0,0,1,.492,2.414V8.9A6.579,6.579,0,0,1,94.4,13.367,5.346,5.346,0,0,1,90.391,15.1l-.555.008V13.227l.5-.008Q93.281,13.086,93.523,10.453Zm-1.508-.859a1.579,1.579,0,0,0,.941-.281,1.879,1.879,0,0,0,.6-.68V7.7a3.1,3.1,0,0,0-.437-1.781,1.358,1.358,0,0,0-1.172-.633,1.318,1.318,0,0,0-1.117.621,2.641,2.641,0,0,0-.437,1.559A2.57,2.57,0,0,0,90.816,9,1.387,1.387,0,0,0,92.016,9.594Zm9.133,1.117a5.094,5.094,0,0,1,.887-3.148,2.877,2.877,0,0,1,2.426-1.172,2.589,2.589,0,0,1,2.039.922V3h2.266V15h-2.039l-.109-.9a2.657,2.657,0,0,1-2.172,1.055,2.869,2.869,0,0,1-2.395-1.176A5.258,5.258,0,0,1,101.148,10.711Zm2.258.168a3.337,3.337,0,0,0,.414,1.823,1.349,1.349,0,0,0,1.2.634,1.511,1.511,0,0,0,1.477-.884V9.111a1.489,1.489,0,0,0-1.461-.884Q103.406,8.227,103.406,10.879Zm11,4.277a4.15,4.15,0,0,1-3.027-1.141,4.054,4.054,0,0,1-1.168-3.039v-.219A5.106,5.106,0,0,1,110.7,8.48,3.612,3.612,0,0,1,112.1,6.934a3.914,3.914,0,0,1,2.059-.543,3.508,3.508,0,0,1,2.73,1.094,4.444,4.444,0,0,1,1,3.1v.922H112.5a2.1,2.1,0,0,0,.66,1.328,2,2,0,0,0,1.395.5,2.437,2.437,0,0,0,2.039-.945l1.109,1.242a3.389,3.389,0,0,1-1.375,1.121A4.511,4.511,0,0,1,114.406,15.156Zm-.258-6.945a1.411,1.411,0,0,0-1.09.455,2.357,2.357,0,0,0-.535,1.3h3.141V9.788a1.681,1.681,0,0,0-.406-1.165A1.456,1.456,0,0,0,114.148,8.211ZM130.852,15h-7.8V13.453l3.68-3.922a9.078,9.078,0,0,0,1.121-1.445,2.322,2.322,0,0,0,.363-1.172,1.738,1.738,0,0,0-.383-1.191,1.382,1.382,0,0,0-1.094-.434,1.49,1.49,0,0,0-1.207.527,2.089,2.089,0,0,0-.441,1.387h-2.266a3.729,3.729,0,0,1,.5-1.9,3.5,3.5,0,0,1,1.4-1.348,4.262,4.262,0,0,1,2.055-.488,4.036,4.036,0,0,1,2.73.844,2.985,2.985,0,0,1,.973,2.383,3.825,3.825,0,0,1-.437,1.719,9.552,9.552,0,0,1-1.5,2.039l-2.586,2.727h4.891Zm9.039-4.7a5.762,5.762,0,0,1-.977,3.609,3.9,3.9,0,0,1-5.7.023,5.594,5.594,0,0,1-1.008-3.516V8.32a5.687,5.687,0,0,1,.988-3.617,3.91,3.91,0,0,1,5.691-.012A5.576,5.576,0,0,1,139.891,8.2Zm-2.258-2.3a4.165,4.165,0,0,0-.387-2.061,1.307,1.307,0,0,0-1.207-.645,1.284,1.284,0,0,0-1.176.614,3.9,3.9,0,0,0-.4,1.92v2.768a4.372,4.372,0,0,0,.379,2.068,1.29,1.29,0,0,0,1.215.676,1.268,1.268,0,0,0,1.2-.649,4.268,4.268,0,0,0,.383-1.986Zm11.438,2.3a5.762,5.762,0,0,1-.977,3.609,3.9,3.9,0,0,1-5.7.023,5.594,5.594,0,0,1-1.008-3.516V8.32a5.687,5.687,0,0,1,.988-3.617,3.91,3.91,0,0,1,5.691-.012A5.576,5.576,0,0,1,149.07,8.2Zm-2.258-2.3a4.165,4.165,0,0,0-.387-2.061,1.307,1.307,0,0,0-1.207-.645,1.284,1.284,0,0,0-1.176.614,3.9,3.9,0,0,0-.4,1.92v2.768a4.372,4.372,0,0,0,.379,2.068,1.29,1.29,0,0,0,1.215.676,1.268,1.268,0,0,0,1.2-.649,4.268,4.268,0,0,0,.383-1.986Zm11.516-3.11L153.93,15h-2.383l4.406-9.555H150.3V3.625h8.031Z" transform="translate(307 10683)" fill="#12263f"/>
        <path id="Trazado_609751" data-name="Trazado 609751" d="M-8403.815,4266.587l4.815-3.562,59.459,36.266v63.627L-8399,4332.805l-7.244-16.352Z" transform="translate(8999 6210)" fill="#92a2d6"/>
        <path id="Trazado_609761" data-name="Trazado 609761" d="M-8341.97,4266.587l-4.815-3.562-59.459,36.266v63.627l59.459-30.114,7.244-16.352Z" transform="translate(9347.474 6211.5)" fill="#a1c47a"/>
        <path id="Rectángulo_377769" data-name="Rectángulo 377769" d="M20,0H335a0,0,0,0,1,0,0V70a0,0,0,0,1,0,0H20A20,20,0,0,1,0,50V20A20,20,0,0,1,20,0Z" transform="translate(265 10473)" fill="#c1cdf5"/>
        <path id="Trazado_834667" data-name="Trazado 834667" d="M1.016,15V3.625h3.5A5.315,5.315,0,0,1,7.2,4.3,4.712,4.712,0,0,1,9.047,6.223a5.928,5.928,0,0,1,.664,2.832v.523a5.945,5.945,0,0,1-.652,2.82,4.672,4.672,0,0,1-1.84,1.914A5.355,5.355,0,0,1,4.539,15ZM3.359,5.523v7.594H4.492a2.545,2.545,0,0,0,2.1-.9,4.06,4.06,0,0,0,.742-2.57v-.6a4.124,4.124,0,0,0-.719-2.629,2.537,2.537,0,0,0-2.1-.895Zm11.8,9.633a4.15,4.15,0,0,1-3.027-1.141,4.054,4.054,0,0,1-1.168-3.039v-.219a5.106,5.106,0,0,1,.492-2.277,3.612,3.612,0,0,1,1.395-1.547,3.914,3.914,0,0,1,2.059-.543,3.508,3.508,0,0,1,2.73,1.094,4.444,4.444,0,0,1,1,3.1v.922H13.25a2.1,2.1,0,0,0,.66,1.328,2,2,0,0,0,1.395.5,2.437,2.437,0,0,0,2.039-.945l1.109,1.242a3.389,3.389,0,0,1-1.375,1.121A4.511,4.511,0,0,1,15.156,15.156ZM14.9,8.211a1.411,1.411,0,0,0-1.09.455,2.357,2.357,0,0,0-.535,1.3h3.141V9.788a1.681,1.681,0,0,0-.406-1.165A1.456,1.456,0,0,0,14.9,8.211Zm8.531,5.125a1.481,1.481,0,0,0,1.016-.344,1.2,1.2,0,0,0,.406-.914h2.117a2.9,2.9,0,0,1-.469,1.574,3.093,3.093,0,0,1-1.262,1.109,3.949,3.949,0,0,1-1.77.395A3.67,3.67,0,0,1,20.609,14a4.56,4.56,0,0,1-1.047-3.184v-.148A4.508,4.508,0,0,1,20.6,7.555a3.627,3.627,0,0,1,2.852-1.164,3.555,3.555,0,0,1,2.543.9,3.2,3.2,0,0,1,.973,2.4H24.852a1.551,1.551,0,0,0-.406-1.072,1.51,1.51,0,0,0-2.223.163,3.333,3.333,0,0,0-.4,1.866v.235a3.375,3.375,0,0,0,.4,1.878A1.377,1.377,0,0,0,23.43,13.336Zm9.578-4.672A6.134,6.134,0,0,0,32.2,8.6a1.654,1.654,0,0,0-1.68.867V15H28.258V6.547h2.133l.063,1.008a2.092,2.092,0,0,1,1.883-1.164,2.366,2.366,0,0,1,.7.1Zm4.828,6.492a4.15,4.15,0,0,1-3.027-1.141,4.054,4.054,0,0,1-1.168-3.039v-.219a5.106,5.106,0,0,1,.492-2.277,3.612,3.612,0,0,1,1.395-1.547,3.914,3.914,0,0,1,2.059-.543,3.508,3.508,0,0,1,2.73,1.094,4.444,4.444,0,0,1,1,3.1v.922H35.93a2.1,2.1,0,0,0,.66,1.328,2,2,0,0,0,1.395.5,2.437,2.437,0,0,0,2.039-.945l1.109,1.242a3.389,3.389,0,0,1-1.375,1.121A4.511,4.511,0,0,1,37.836,15.156Zm-.258-6.945a1.411,1.411,0,0,0-1.09.455,2.357,2.357,0,0,0-.535,1.3h3.141V9.788a1.681,1.681,0,0,0-.406-1.165A1.456,1.456,0,0,0,37.578,8.211ZM45.3,4.469V6.547h1.445V8.2H45.3v4.219a1.007,1.007,0,0,0,.18.672.9.9,0,0,0,.688.2,3.6,3.6,0,0,0,.664-.055v1.711a4.648,4.648,0,0,1-1.367.2,2.156,2.156,0,0,1-2.422-2.4V8.2H41.8V6.547h1.234V4.469ZM47.414,10.7A5.013,5.013,0,0,1,47.9,8.453,3.546,3.546,0,0,1,49.293,6.93a4.069,4.069,0,0,1,2.113-.539A3.849,3.849,0,0,1,54.2,7.438a4.2,4.2,0,0,1,1.207,2.844l.016.578a4.418,4.418,0,0,1-1.086,3.121,4.209,4.209,0,0,1-5.832,0,4.5,4.5,0,0,1-1.09-3.187Zm2.258.16a3.16,3.16,0,0,0,.453,1.843,1.628,1.628,0,0,0,2.578.008,3.457,3.457,0,0,0,.461-2.015A3.128,3.128,0,0,0,52.7,8.86a1.5,1.5,0,0,0-1.3-.649,1.474,1.474,0,0,0-1.281.646A3.516,3.516,0,0,0,49.672,10.856ZM63,8.313h1.2a1.7,1.7,0,0,0,1.273-.43,1.575,1.575,0,0,0,.414-1.141,1.392,1.392,0,0,0-.41-1.07,1.59,1.59,0,0,0-1.129-.383,1.666,1.666,0,0,0-1.086.355,1.137,1.137,0,0,0-.437.926H60.57a2.777,2.777,0,0,1,.48-1.6,3.2,3.2,0,0,1,1.344-1.105,4.485,4.485,0,0,1,1.9-.4,4.253,4.253,0,0,1,2.828.863,2.945,2.945,0,0,1,1.023,2.379,2.394,2.394,0,0,1-.477,1.438,3.1,3.1,0,0,1-1.25,1.008,2.826,2.826,0,0,1,1.434,1.031,2.8,2.8,0,0,1,.473,1.625,2.994,2.994,0,0,1-1.105,2.43,4.445,4.445,0,0,1-2.926.914,4.214,4.214,0,0,1-2.785-.9,2.934,2.934,0,0,1-1.082-2.375h2.258a1.308,1.308,0,0,0,.48,1.047,2,2,0,0,0,2.445-.02,1.47,1.47,0,0,0,.457-1.129q0-1.7-1.875-1.7H63Zm7.219,1.094.656-5.781H77.25V5.508H72.727l-.281,2.445a3.58,3.58,0,0,1,1.711-.43A3.279,3.279,0,0,1,76.7,8.531a4.026,4.026,0,0,1,.922,2.82,4.124,4.124,0,0,1-.465,1.973,3.281,3.281,0,0,1-1.332,1.352,4.158,4.158,0,0,1-2.047.48,4.416,4.416,0,0,1-1.914-.418,3.4,3.4,0,0,1-1.395-1.176,3.2,3.2,0,0,1-.543-1.727h2.234a1.669,1.669,0,0,0,.5,1.105,1.573,1.573,0,0,0,1.113.395,1.388,1.388,0,0,0,1.18-.551,2.551,2.551,0,0,0,.414-1.559,2.11,2.11,0,0,0-.477-1.484,1.749,1.749,0,0,0-1.352-.516,1.954,1.954,0,0,0-1.3.422l-.219.2ZM84.547,15H82.289V6.3l-2.7.836V5.3L84.3,3.609h.242ZM95.656,6.648a2.646,2.646,0,0,1-.414,1.469A2.98,2.98,0,0,1,94.1,9.141a3.3,3.3,0,0,1,1.313,1.1,2.816,2.816,0,0,1,.484,1.645,2.981,2.981,0,0,1-1.031,2.395,4.918,4.918,0,0,1-5.617,0,2.974,2.974,0,0,1-1.039-2.391,2.834,2.834,0,0,1,.484-1.648A3.239,3.239,0,0,1,90,9.141a2.95,2.95,0,0,1-1.137-1.023,2.664,2.664,0,0,1-.41-1.469,2.948,2.948,0,0,1,.969-2.316,4.457,4.457,0,0,1,5.262-.008A2.937,2.937,0,0,1,95.656,6.648Zm-2.023,5.07a1.638,1.638,0,0,0-.43-1.187,1.719,1.719,0,0,0-2.3,0,1.635,1.635,0,0,0-.43,1.191,1.634,1.634,0,0,0,.422,1.172,1.762,1.762,0,0,0,2.324.016A1.631,1.631,0,0,0,93.633,11.719ZM93.4,6.758a1.563,1.563,0,0,0-.352-1.066A1.43,1.43,0,0,0,91.07,5.68a1.553,1.553,0,0,0-.352,1.078,1.633,1.633,0,0,0,.352,1.094,1.391,1.391,0,0,0,1.98,0A1.645,1.645,0,0,0,93.4,6.758Zm7.75,3.953a5.094,5.094,0,0,1,.887-3.148,2.877,2.877,0,0,1,2.426-1.172,2.589,2.589,0,0,1,2.039.922V3h2.266V15h-2.039l-.109-.9a2.657,2.657,0,0,1-2.172,1.055,2.869,2.869,0,0,1-2.395-1.176A5.258,5.258,0,0,1,101.148,10.711Zm2.258.168a3.337,3.337,0,0,0,.414,1.823,1.349,1.349,0,0,0,1.2.634,1.511,1.511,0,0,0,1.477-.884V9.111a1.489,1.489,0,0,0-1.461-.884Q103.406,8.227,103.406,10.879Zm11,4.277a4.15,4.15,0,0,1-3.027-1.141,4.054,4.054,0,0,1-1.168-3.039v-.219A5.106,5.106,0,0,1,110.7,8.48,3.612,3.612,0,0,1,112.1,6.934a3.914,3.914,0,0,1,2.059-.543,3.508,3.508,0,0,1,2.73,1.094,4.444,4.444,0,0,1,1,3.1v.922H112.5a2.1,2.1,0,0,0,.66,1.328,2,2,0,0,0,1.395.5,2.437,2.437,0,0,0,2.039-.945l1.109,1.242a3.389,3.389,0,0,1-1.375,1.121A4.511,4.511,0,0,1,114.406,15.156Zm-.258-6.945a1.411,1.411,0,0,0-1.09.455,2.357,2.357,0,0,0-.535,1.3h3.141V9.788a1.681,1.681,0,0,0-.406-1.165A1.456,1.456,0,0,0,114.148,8.211ZM130.852,15h-7.8V13.453l3.68-3.922a9.078,9.078,0,0,0,1.121-1.445,2.322,2.322,0,0,0,.363-1.172,1.738,1.738,0,0,0-.383-1.191,1.382,1.382,0,0,0-1.094-.434,1.49,1.49,0,0,0-1.207.527,2.089,2.089,0,0,0-.441,1.387h-2.266a3.729,3.729,0,0,1,.5-1.9,3.5,3.5,0,0,1,1.4-1.348,4.262,4.262,0,0,1,2.055-.488,4.036,4.036,0,0,1,2.73.844,2.985,2.985,0,0,1,.973,2.383,3.825,3.825,0,0,1-.437,1.719,9.552,9.552,0,0,1-1.5,2.039l-2.586,2.727h4.891Zm9.039-4.7a5.762,5.762,0,0,1-.977,3.609,3.9,3.9,0,0,1-5.7.023,5.594,5.594,0,0,1-1.008-3.516V8.32a5.687,5.687,0,0,1,.988-3.617,3.91,3.91,0,0,1,5.691-.012A5.576,5.576,0,0,1,139.891,8.2Zm-2.258-2.3a4.165,4.165,0,0,0-.387-2.061,1.307,1.307,0,0,0-1.207-.645,1.284,1.284,0,0,0-1.176.614,3.9,3.9,0,0,0-.4,1.92v2.768a4.372,4.372,0,0,0,.379,2.068,1.29,1.29,0,0,0,1.215.676,1.268,1.268,0,0,0,1.2-.649,4.268,4.268,0,0,0,.383-1.986Zm11.438,2.3a5.762,5.762,0,0,1-.977,3.609,3.9,3.9,0,0,1-5.7.023,5.594,5.594,0,0,1-1.008-3.516V8.32a5.687,5.687,0,0,1,.988-3.617,3.91,3.91,0,0,1,5.691-.012A5.576,5.576,0,0,1,149.07,8.2Zm-2.258-2.3a4.165,4.165,0,0,0-.387-2.061,1.307,1.307,0,0,0-1.207-.645,1.284,1.284,0,0,0-1.176.614,3.9,3.9,0,0,0-.4,1.92v2.768a4.372,4.372,0,0,0,.379,2.068,1.29,1.29,0,0,0,1.215.676,1.268,1.268,0,0,0,1.2-.649,4.268,4.268,0,0,0,.383-1.986Zm9.906-4.487V5.367H156.5a3.836,3.836,0,0,0-2.465.8,3.238,3.238,0,0,0-1.121,2.148,3.075,3.075,0,0,1,2.289-.922,2.9,2.9,0,0,1,2.359,1.063,4.259,4.259,0,0,1,.875,2.8,4.19,4.19,0,0,1-.48,2.008,3.446,3.446,0,0,1-1.359,1.4,3.949,3.949,0,0,1-1.988.5,3.689,3.689,0,0,1-2.9-1.25A4.852,4.852,0,0,1,150.6,10.57V9.758a7.3,7.3,0,0,1,.7-3.27,5.127,5.127,0,0,1,2.008-2.2,5.884,5.884,0,0,1,3.035-.785Zm-2.2,5.7a1.8,1.8,0,0,0-.992.285,1.715,1.715,0,0,0-.656.753v.686a3.04,3.04,0,0,0,.445,1.766,1.439,1.439,0,0,0,1.25.635,1.423,1.423,0,0,0,1.176-.573,2.337,2.337,0,0,0,.449-1.485,2.333,2.333,0,0,0-.453-1.5A1.477,1.477,0,0,0,154.516,9.211Z" transform="translate(307 10500)" fill="#12263f"/>
        <path id="Trazado_609754" data-name="Trazado 609754" d="M-8410.312,4552.678s5.666-42.9,5.181-42.9,6.131-4.533,6.131-4.533l63.111,30.865v60.437l-66.489-23.3Z" transform="translate(8999 6058.76)" fill="#a1c47a"/>
        <path id="Trazado_609760" data-name="Trazado 609760" d="M-8335.888,4552.678s-5.666-42.9-5.181-42.9-6.131-4.533-6.131-4.533l-63.111,30.865v60.437l66.489-23.3Z" transform="translate(9347.888 6060.26)" fill="#92a2d6"/>
        <path id="Rectángulo_377780" data-name="Rectángulo 377780" d="M141.5,0h0A141.5,141.5,0,0,1,283,141.5V359a0,0,0,0,1,0,0H0a0,0,0,0,1,0,0V141.5A141.5,141.5,0,0,1,141.5,0Z" transform="translate(659 10360)" fill="#dee4f0"/>
        <path id="Trazado_834664" data-name="Trazado 834664" d="M11.229,4.2l2.856,8.9,2.848-8.9h4.061V17H17.9V14.012l.3-6.117L15.1,17H13.065l-3.1-9.114.3,6.126V17H7.177V4.2ZM28.174,17a3.344,3.344,0,0,1-.281-.853,2.754,2.754,0,0,1-2.285,1.028,3.374,3.374,0,0,1-2.285-.813,2.588,2.588,0,0,1-.94-2.043,2.66,2.66,0,0,1,1.143-2.338,5.821,5.821,0,0,1,3.322-.791h.914v-.5q0-1.316-1.134-1.316a.927.927,0,0,0-1.055,1.042H22.61a2.655,2.655,0,0,1,1.173-2.239,4.931,4.931,0,0,1,2.993-.86A4.323,4.323,0,0,1,29.65,8.2a3.086,3.086,0,0,1,1.081,2.435v4.21a4.311,4.311,0,0,0,.4,2V17Zm-1.854-1.934a1.652,1.652,0,0,0,.918-.237,1.487,1.487,0,0,0,.523-.536V12.772H26.9q-1.547,0-1.547,1.389a.848.848,0,0,0,.272.655A.986.986,0,0,0,26.319,15.066Zm11.8-4.9-.976-.07a1.752,1.752,0,0,0-1.793.879V17H32.393V7.49H35.17l.1,1.222a2.294,2.294,0,0,1,2.083-1.4,2.888,2.888,0,0,1,.826.105Zm4.922,4.72a1.317,1.317,0,0,0,.967-.338,1.241,1.241,0,0,0,.334-.945h2.777A3.288,3.288,0,0,1,46,16.174a4.168,4.168,0,0,1-2.887,1,4.22,4.22,0,0,1-3.27-1.3,5.125,5.125,0,0,1-1.2-3.6v-.123A5.792,5.792,0,0,1,39.182,9.6a3.872,3.872,0,0,1,1.534-1.7,4.573,4.573,0,0,1,2.373-.593,4.116,4.116,0,0,1,2.944,1.028,3.647,3.647,0,0,1,1.09,2.786H44.346A1.626,1.626,0,0,0,43.985,10a1.244,1.244,0,0,0-.967-.4q-1.151,0-1.345,1.468a10.357,10.357,0,0,0-.062,1.283,4.068,4.068,0,0,0,.343,1.986A1.187,1.187,0,0,0,43.045,14.891ZM48,12.157a5.613,5.613,0,0,1,.554-2.536,3.96,3.96,0,0,1,1.591-1.709,4.791,4.791,0,0,1,2.435-.6,4.373,4.373,0,0,1,3.366,1.323,5.076,5.076,0,0,1,1.23,3.6v.105a4.925,4.925,0,0,1-1.235,3.529A4.384,4.384,0,0,1,52.6,17.176a4.434,4.434,0,0,1-3.261-1.217,4.761,4.761,0,0,1-1.327-3.3Zm2.962.185a3.538,3.538,0,0,0,.413,1.934,1.376,1.376,0,0,0,1.222.615q1.582,0,1.617-2.435v-.3q0-2.558-1.635-2.558-1.485,0-1.608,2.206ZM65.686,7.49l.1,1.116A3.225,3.225,0,0,1,68.5,7.314a2.713,2.713,0,0,1,2.219.888,4.226,4.226,0,0,1,.76,2.672V17H68.507V11a1.6,1.6,0,0,0-.29-1.059A1.342,1.342,0,0,0,67.162,9.6a1.413,1.413,0,0,0-1.292.686V17H62.908V7.49Zm7.058,4.667A5.613,5.613,0,0,1,73.3,9.622a3.96,3.96,0,0,1,1.591-1.709,4.791,4.791,0,0,1,2.435-.6,4.373,4.373,0,0,1,3.366,1.323,5.076,5.076,0,0,1,1.23,3.6v.105a4.925,4.925,0,0,1-1.235,3.529,4.384,4.384,0,0,1-3.344,1.305,4.434,4.434,0,0,1-3.261-1.217,4.761,4.761,0,0,1-1.327-3.3Zm2.962.185a3.538,3.538,0,0,0,.413,1.934,1.376,1.376,0,0,0,1.222.615q1.582,0,1.617-2.435v-.3q0-2.558-1.635-2.558-1.485,0-1.608,2.206Zm13.271-2.171L88,10.1a1.752,1.752,0,0,0-1.793.879V17H83.246V7.49h2.777l.1,1.222a2.294,2.294,0,0,1,2.083-1.4,2.888,2.888,0,0,1,.826.105ZM92.844,7.49l.1,1.116a3.27,3.27,0,0,1,2.716-1.292,2.407,2.407,0,0,1,2.435,1.433,3.165,3.165,0,0,1,2.795-1.433q2.892,0,2.971,3.5V17h-2.971V11a1.813,1.813,0,0,0-.246-1.063,1.048,1.048,0,0,0-.9-.334,1.4,1.4,0,0,0-1.31.782l.009.123V17H95.472V11.015a1.906,1.906,0,0,0-.237-1.081,1.045,1.045,0,0,0-.905-.334,1.42,1.42,0,0,0-1.3.782V17H90.066V7.49ZM110.905,17a3.344,3.344,0,0,1-.281-.853,2.754,2.754,0,0,1-2.285,1.028,3.374,3.374,0,0,1-2.285-.813,2.588,2.588,0,0,1-.94-2.043,2.66,2.66,0,0,1,1.143-2.338,5.821,5.821,0,0,1,3.322-.791h.914v-.5q0-1.316-1.134-1.316a.927.927,0,0,0-1.055,1.042h-2.962a2.655,2.655,0,0,1,1.173-2.239,4.931,4.931,0,0,1,2.993-.86,4.323,4.323,0,0,1,2.874.888,3.086,3.086,0,0,1,1.081,2.435v4.21a4.311,4.311,0,0,0,.4,2V17Zm-1.854-1.934a1.652,1.652,0,0,0,.918-.237,1.487,1.487,0,0,0,.523-.536V12.772h-.861q-1.547,0-1.547,1.389a.848.848,0,0,0,.272.655A.986.986,0,0,0,109.051,15.066Zm9.5-9.94V7.49h1.564V9.547h-1.564V13.9a1.111,1.111,0,0,0,.193.747,1.037,1.037,0,0,0,.765.211,4.345,4.345,0,0,0,.738-.053v2.118a5.466,5.466,0,0,1-1.67.255,3.1,3.1,0,0,1-2.259-.721,2.954,2.954,0,0,1-.729-2.188V9.547h-1.213V7.49h1.213V5.126ZM124.405,17h-2.971V7.49h2.971ZM121.259,5.038A1.322,1.322,0,0,1,121.716,4a1.943,1.943,0,0,1,2.373,0,1.322,1.322,0,0,1,.457,1.037,1.322,1.322,0,0,1-.457,1.037,1.943,1.943,0,0,1-2.373,0A1.322,1.322,0,0,1,121.259,5.038Zm8.763,8.438,1.5-5.985h3.12l-3.1,9.51h-3.023l-3.1-9.51h3.129Zm5-1.318a5.613,5.613,0,0,1,.554-2.536,3.96,3.96,0,0,1,1.591-1.709,4.791,4.791,0,0,1,2.435-.6,4.373,4.373,0,0,1,3.366,1.323,5.076,5.076,0,0,1,1.23,3.6v.105a4.925,4.925,0,0,1-1.235,3.529,4.384,4.384,0,0,1-3.344,1.305,4.434,4.434,0,0,1-3.261-1.217,4.761,4.761,0,0,1-1.327-3.3Zm2.962.185a3.538,3.538,0,0,0,.413,1.934,1.376,1.376,0,0,0,1.222.615q1.582,0,1.617-2.435v-.3q0-2.558-1.635-2.558-1.485,0-1.608,2.206Zm11.628-.167a5.809,5.809,0,0,1,.976-3.56,3.211,3.211,0,0,1,2.725-1.3,2.731,2.731,0,0,1,2.145,1V3.5h2.971V17h-2.663l-.149-1.02a2.8,2.8,0,0,1-2.32,1.2,3.205,3.205,0,0,1-2.689-1.3A5.993,5.993,0,0,1,149.612,12.175Zm2.962.185q0,2.531,1.477,2.531a1.458,1.458,0,0,0,1.406-.826V10.443a1.419,1.419,0,0,0-1.389-.844q-1.371,0-1.485,2.215Zm12.138,4.816a4.889,4.889,0,0,1-3.542-1.305,4.507,4.507,0,0,1-1.354-3.4v-.246a5.84,5.84,0,0,1,.541-2.575,3.955,3.955,0,0,1,1.578-1.727,4.763,4.763,0,0,1,2.461-.611,4.117,4.117,0,0,1,3.164,1.244,4.887,4.887,0,0,1,1.16,3.467v1.151h-5.889a2.135,2.135,0,0,0,.694,1.257,2.066,2.066,0,0,0,1.389.457,2.662,2.662,0,0,0,2.2-.984l1.354,1.6a3.784,3.784,0,0,1-1.569,1.217A5.3,5.3,0,0,1,164.712,17.176ZM164.378,9.6q-1.3,0-1.547,1.723h2.988v-.229a1.467,1.467,0,0,0-.36-1.1A1.434,1.434,0,0,0,164.378,9.6Zm17.42,5.01H177.57L176.832,17h-3.3l4.693-12.8h2.9L185.858,17h-3.313Zm-3.489-2.382h2.751l-1.38-4.438ZM193.391,13.6a1.268,1.268,0,0,0-.479-1.055,5.954,5.954,0,0,0-1.683-.782,16.147,16.147,0,0,1-1.969-.782q-2.487-1.222-2.487-3.357a3.011,3.011,0,0,1,.62-1.876,4.008,4.008,0,0,1,1.753-1.266,6.823,6.823,0,0,1,2.549-.453,5.969,5.969,0,0,1,2.474.492,3.917,3.917,0,0,1,1.7,1.4A3.661,3.661,0,0,1,196.476,8H193.4a1.547,1.547,0,0,0-.479-1.213,1.867,1.867,0,0,0-1.3-.431,2.106,2.106,0,0,0-1.305.365,1.074,1.074,0,0,0,.048,1.819,6.65,6.65,0,0,0,1.854.826,11.36,11.36,0,0,1,2.18.918,3.663,3.663,0,0,1,2.074,3.3,3.125,3.125,0,0,1-1.266,2.637,5.629,5.629,0,0,1-3.472.958,6.888,6.888,0,0,1-2.817-.558,4.247,4.247,0,0,1-1.9-1.529,3.985,3.985,0,0,1-.637-2.237h3.094a1.963,1.963,0,0,0,.532,1.516,2.513,2.513,0,0,0,1.727.488,1.985,1.985,0,0,0,1.208-.33A1.088,1.088,0,0,0,193.391,13.6Zm7.954,3.4h-3.076V4.2h3.076Zm8.745-3.4a1.268,1.268,0,0,0-.479-1.055,5.954,5.954,0,0,0-1.683-.782,16.147,16.147,0,0,1-1.969-.782q-2.487-1.222-2.487-3.357a3.011,3.011,0,0,1,.62-1.876,4.008,4.008,0,0,1,1.753-1.266,6.823,6.823,0,0,1,2.549-.453,5.969,5.969,0,0,1,2.474.492,3.917,3.917,0,0,1,1.7,1.4A3.661,3.661,0,0,1,213.175,8H210.1a1.547,1.547,0,0,0-.479-1.213,1.867,1.867,0,0,0-1.3-.431,2.106,2.106,0,0,0-1.305.365,1.074,1.074,0,0,0,.048,1.819,6.65,6.65,0,0,0,1.854.826,11.36,11.36,0,0,1,2.18.918,3.663,3.663,0,0,1,2.074,3.3,3.125,3.125,0,0,1-1.266,2.637,5.629,5.629,0,0,1-3.472.958,6.888,6.888,0,0,1-2.817-.558,4.247,4.247,0,0,1-1.9-1.529,3.985,3.985,0,0,1-.637-2.237h3.094a1.963,1.963,0,0,0,.532,1.516,2.513,2.513,0,0,0,1.727.488,1.985,1.985,0,0,0,1.208-.33A1.088,1.088,0,0,0,210.09,13.6Z" transform="translate(695 10675)" fill="#12263f"/>
        <g id="Grupo_1071684" data-name="Grupo 1071684" transform="translate(685 10439.755)">
          <g id="Grupo_1071678" data-name="Grupo 1071678" clip-path="url(#clip-path)">
            <g id="Grupo_1071677" data-name="Grupo 1071677">
              <g id="Grupo_1071676" data-name="Grupo 1071676" clip-path="url(#clip-path)">
                <path id="Trazado_609663" data-name="Trazado 609663" d="M226.575,156.7a80.414,80.414,0,1,1-80.414-80.414A80.413,80.413,0,0,1,226.575,156.7" transform="translate(-26.332 -30.551)" fill="#001b5a"/>
                <rect id="Rectángulo_377770" data-name="Rectángulo 377770" width="115.884" height="148.251" transform="translate(62.003 46.072)" fill="#76a9da"/>
                <path id="Trazado_609664" data-name="Trazado 609664" d="M197.4,220.407H126.456V106.04h89.395v90.767Z" transform="translate(-50.645 -42.469)" fill="#faf8f0"/>
                <path id="Trazado_609665" data-name="Trazado 609665" d="M244.8,281.044v-23.6h18.45Z" transform="translate(-98.04 -103.106)" fill="#eae6dd"/>
                <path id="Trazado_609666" data-name="Trazado 609666" d="M208.337,90.805H162.721a22.808,22.808,0,0,1,45.616,0" transform="translate(-65.169 -27.234)" fill="#868589"/>
                <path id="Trazado_609667" data-name="Trazado 609667" d="M203.335,86.531A4.93,4.93,0,1,1,198.4,81.6a4.931,4.931,0,0,1,4.931,4.93" transform="translate(-77.486 -32.681)" fill="#fff"/>
                <path id="Trazado_609668" data-name="Trazado 609668" d="M202.7,87.8a3.027,3.027,0,1,1-3.027-3.03A3.028,3.028,0,0,1,202.7,87.8" transform="translate(-78.757 -33.95)" fill="#221a17"/>
                <path id="Trazado_609669" data-name="Trazado 609669" d="M161.3,175.6a1.894,1.894,0,0,1-1.893,1.893H139.161a1.9,1.9,0,0,1,0-3.79h20.251a1.9,1.9,0,0,1,1.893,1.9" transform="translate(-54.977 -69.57)" fill="#221a17"/>
                <path id="Trazado_609670" data-name="Trazado 609670" d="M234.779,175.6a1.9,1.9,0,0,1-1.894,1.893H187.492a1.9,1.9,0,1,1,0-3.79h45.394a1.9,1.9,0,0,1,1.894,1.9" transform="translate(-74.33 -69.57)" fill="#221a17"/>
                <path id="Trazado_609671" data-name="Trazado 609671" d="M161.3,200.045a1.894,1.894,0,0,1-1.893,1.893H139.161a1.894,1.894,0,0,1,0-3.788h20.251a1.894,1.894,0,0,1,1.893,1.9" transform="translate(-54.977 -79.358)" fill="#221a17"/>
                <path id="Trazado_609672" data-name="Trazado 609672" d="M221.647,200.045a1.894,1.894,0,0,1-1.893,1.893H187.491a1.894,1.894,0,1,1,0-3.788h32.263a1.894,1.894,0,0,1,1.893,1.9" transform="translate(-74.33 -79.358)" fill="#221a17"/>
                <path id="Trazado_609673" data-name="Trazado 609673" d="M221.647,212.682a1.9,1.9,0,0,1-1.893,1.893H187.491a1.9,1.9,0,1,1,0-3.791h32.263a1.894,1.894,0,0,1,1.893,1.9" transform="translate(-74.33 -84.419)" fill="#221a17"/>
                <path id="Trazado_609674" data-name="Trazado 609674" d="M149.287,187.4a1.894,1.894,0,0,1-1.9,1.9H139.16a1.9,1.9,0,0,1,0-3.79h8.231a1.9,1.9,0,0,1,1.9,1.893" transform="translate(-54.977 -74.297)" fill="#221a17"/>
                <path id="Trazado_609675" data-name="Trazado 609675" d="M174.164,187.4a1.9,1.9,0,0,1-1.9,1.9H164.7a1.9,1.9,0,0,1,0-3.79h7.572a1.9,1.9,0,0,1,1.9,1.893" transform="translate(-65.202 -74.297)" fill="#221a17"/>
                <path id="Trazado_609676" data-name="Trazado 609676" d="M149.287,212.678a1.9,1.9,0,0,1-1.9,1.9H139.16a1.9,1.9,0,0,1,0-3.791h8.231a1.893,1.893,0,0,1,1.9,1.894" transform="translate(-54.977 -84.419)" fill="#221a17"/>
                <path id="Trazado_609677" data-name="Trazado 609677" d="M174.164,212.678a1.9,1.9,0,0,1-1.9,1.9H164.7a1.9,1.9,0,0,1,0-3.791h7.572a1.9,1.9,0,0,1,1.9,1.894" transform="translate(-65.202 -84.419)" fill="#221a17"/>
                <path id="Trazado_609678" data-name="Trazado 609678" d="M207.816,187.4a1.889,1.889,0,0,1-1.889,1.9H190.358a1.9,1.9,0,0,1,0-3.79h15.569a1.893,1.893,0,0,1,1.889,1.893" transform="translate(-75.48 -74.297)" fill="#221a17"/>
                <path id="Trazado_609679" data-name="Trazado 609679" d="M251.319,187.4a1.9,1.9,0,0,1-1.9,1.9H231.152a1.9,1.9,0,1,1,0-3.79h18.271a1.9,1.9,0,0,1,1.9,1.893" transform="translate(-91.817 -74.297)" fill="#221a17"/>
                <path id="Trazado_609680" data-name="Trazado 609680" d="M203.938,125.108h-6.729v-6.731H186.231v6.731H179.5v10.977h6.732v6.731h10.977v-6.731h6.729Z" transform="translate(-71.889 -47.41)" fill="red"/>
                <g id="Grupo_1071672" data-name="Grupo 1071672" transform="translate(0 209.822)" opacity="0.1">
                  <g id="Grupo_1071671" data-name="Grupo 1071671">
                    <g id="Grupo_1071670" data-name="Grupo 1071670" clip-path="url(#clip-path-3)">
                      <path id="Trazado_609681" data-name="Trazado 609681" d="M0,354.178c0,2.311,13.113,4.185,29.288,4.185s29.289-1.873,29.289-4.185-13.113-4.184-29.289-4.184S0,351.867,0,354.178" transform="translate(0 -349.994)" fill="#010000"/>
                    </g>
                  </g>
                </g>
                <rect id="Rectángulo_377772" data-name="Rectángulo 377772" width="23.708" height="92.432" transform="translate(18.367 92.414)" fill="#ddd8ce"/>
                <path id="Trazado_609682" data-name="Trazado 609682" d="M20.455,175.216v40.147a3.692,3.692,0,1,1-7.382,0V175.216Z" transform="translate(-5.236 -70.174)" fill="#eaceaf"/>
                <path id="Trazado_609683" data-name="Trazado 609683" d="M25.382,190.761H53.99v16.946a14.279,14.279,0,0,1-3.216,9.049v68.628a3.63,3.63,0,1,1-7.253,0V221.5a14,14,0,0,1-7.669,0v63.883a3.63,3.63,0,1,1-7.253,0V216.755a14.3,14.3,0,0,1-3.216-9.048Z" transform="translate(-10.165 -76.399)" fill="#001b5a"/>
                <path id="Trazado_609684" data-name="Trazado 609684" d="M49.048,146.175a20.963,20.963,0,0,0-8.78-3.69H29.251s-16.179,1.952-16.179,19.8h7.392v23.676H49.055V146.185Z" transform="translate(-5.235 -57.065)" fill="#76a9da"/>
                <path id="Trazado_609685" data-name="Trazado 609685" d="M53.012,351.42c0,2.873,10.4,2.873,10.4,0a5.2,5.2,0,1,0-10.4,0" transform="translate(-21.231 -138.66)" fill="#81623d"/>
                <path id="Trazado_609686" data-name="Trazado 609686" d="M28.1,351.42c0,2.873,10.4,2.873,10.4,0a5.2,5.2,0,1,0-10.4,0" transform="translate(-11.256 -138.66)" fill="#81623d"/>
                <path id="Trazado_609687" data-name="Trazado 609687" d="M31.381,171.436l-3.272,3.273h6.547Z" transform="translate(-11.258 -68.66)" fill="#221a17"/>
                <path id="Trazado_609688" data-name="Trazado 609688" d="M32.607,174.7a.577.577,0,1,0,.577-.579.578.578,0,0,0-.577.579" transform="translate(-13.059 -69.734)" fill="#fff"/>
                <path id="Trazado_609689" data-name="Trazado 609689" d="M11.892,162.287v34.736h8.09v45.188H28.07V142.485a17.175,17.175,0,0,0-3.031.744c-4.685,1.552-13.147,6.147-13.147,19.058" transform="translate(-4.763 -57.065)" fill="#fff"/>
                <path id="Trazado_609690" data-name="Trazado 609690" d="M80.623,163.742,67.344,146.274l-.019.014v-.048a22.018,22.018,0,0,0-8.888-3.756v99.727h8.888V158.451l7.379,9.707-.008.006,4.417,5.918,24.728-18.453v-9.214Z" transform="translate(-23.404 -57.065)" fill="#fff"/>
                <path id="Trazado_609691" data-name="Trazado 609691" d="M137.2,144.762a3.693,3.693,0,1,1,4.416,5.918l-7.447,5.557v-9.214Z" transform="translate(-53.736 -57.671)" fill="#eaceaf"/>
                <path id="Trazado_609692" data-name="Trazado 609692" d="M39.731,140.252s-6.139.788-6.139,6.992v13.969" transform="translate(-13.454 -56.171)" fill="none" stroke="#221a17" stroke-miterlimit="10" stroke-width="3"/>
                <path id="Trazado_609693" data-name="Trazado 609693" d="M33.331,188.955a7.835,7.835,0,1,0-9.379.462" transform="translate(-8.209 -70.121)" fill="none" stroke="#221a17" stroke-linecap="round" stroke-linejoin="round" stroke-width="2"/>
                <path id="Trazado_609694" data-name="Trazado 609694" d="M23.881,197.988a1.4,1.4,0,1,0,1.4-1.4,1.4,1.4,0,0,0-1.4,1.4" transform="translate(-9.564 -78.734)" fill="#221a17"/>
                <path id="Trazado_609695" data-name="Trazado 609695" d="M39.048,197.988a1.4,1.4,0,1,0,1.4-1.4,1.4,1.4,0,0,0-1.4,1.4" transform="translate(-15.639 -78.734)" fill="#221a17"/>
                <path id="Trazado_609696" data-name="Trazado 609696" d="M55.146,140.408s6.138.788,6.138,6.992v25.088" transform="translate(-22.086 -56.233)" fill="none" stroke="#221a17" stroke-miterlimit="10" stroke-width="3"/>
                <path id="Trazado_609697" data-name="Trazado 609697" d="M60.354,195.65a3.027,3.027,0,1,0,3.026-3.025,3.025,3.025,0,0,0-3.026,3.025" transform="translate(-24.172 -77.146)" fill="#221a17"/>
                <path id="Trazado_609698" data-name="Trazado 609698" d="M62.479,196.5a1.752,1.752,0,1,0,1.752-1.751,1.752,1.752,0,0,0-1.752,1.751" transform="translate(-25.023 -77.997)" fill="#faf8f0"/>
                <path id="Trazado_609699" data-name="Trazado 609699" d="M50.651,97.321c1.319,5.023,1.887,8.908,1.342,11.653-.872,4.39-3.156,7.464-9.406,7.222l.137,5.446s.379,4.231-3.542,4.08c-4.086-.158-3.691-4.2-3.691-4.2l.617-5.786s-5.021-2.843-6.4-5.966c0,0-5.243,2.695-5.845-3.415-.583-5.913,5.834-4.806,6.284.374,0,0-3.464-15.326,8.738-18.532,5.37-1.411,10.02,2.47,11.768,9.127" transform="translate(-9.541 -35.206)" fill="#e8a385"/>
                <path id="Trazado_609700" data-name="Trazado 609700" d="M55.7,112.177c-1.52,1.787-5.686,2.491-5.686,2.491a28.412,28.412,0,0,1-16.357-1.614l-.022,6.433s1.41,3.276,6.4,5.966a55.838,55.838,0,0,0,6.479.464,12.2,12.2,0,0,0,4.738-.67s4.134-1.355,4.782-7.291a17.662,17.662,0,0,0-.192-5.018Z" transform="translate(-13.47 -44.927)" fill="#7f7e7f"/>
                <path id="Trazado_609701" data-name="Trazado 609701" d="M53.11,119.328l8.812-2.316s1.357,5.4-3.335,6.635-5.477-4.319-5.477-4.319" transform="translate(-21.27 -46.863)" fill="#1f1e1d"/>
                <path id="Trazado_609702" data-name="Trazado 609702" d="M52.993,120.774s.788,5.583,5.513,4.342a4.35,4.35,0,0,0,3.087-2.529s-1.333-2.756-8.6-1.813" transform="translate(-21.224 -48.291)" fill="#cd7380"/>
                <path id="Trazado_609703" data-name="Trazado 609703" d="M53.6,121.162a9.322,9.322,0,0,1-.588-1.815l8.857-2.328a7.412,7.412,0,0,1,.188,1.921Z" transform="translate(-21.232 -46.866)" fill="#fff"/>
                <path id="Trazado_609704" data-name="Trazado 609704" d="M62.082,118.937,53.456,121.2l-.037-.085a9.726,9.726,0,0,1-.6-1.839l-.017-.1,9.061-2.38.028.1a7.4,7.4,0,0,1,.192,1.953Zm-8.5,2.007,8.286-2.177a7.69,7.69,0,0,0-.159-1.7l-8.65,2.271a9.486,9.486,0,0,0,.524,1.608" transform="translate(-21.148 -46.778)" fill="#fff"/>
                <path id="Trazado_609705" data-name="Trazado 609705" d="M52.964,110.9a1.07,1.07,0,1,1-2.069.544l-.362-1.38a1.069,1.069,0,1,1,2.069-.543Z" transform="translate(-20.224 -43.543)" fill="#262324"/>
                <path id="Trazado_609706" data-name="Trazado 609706" d="M65.673,107.561a1.069,1.069,0,1,1-2.068.543l-.364-1.38a1.071,1.071,0,0,1,2.071-.544Z" transform="translate(-25.314 -42.206)" fill="#262324"/>
                <path id="Trazado_609707" data-name="Trazado 609707" d="M44.1,134.322a43.427,43.427,0,0,0,6.479.463l.1,4.445s-4.194.737-6.9-1.587Z" transform="translate(-17.53 -53.796)" fill="#d9967d"/>
                <path id="Trazado_609708" data-name="Trazado 609708" d="M28,97.582l1.58-.668s-1.9-5.964,1.129-7.246,2.431-3.827,2.431-3.827,10.69-2.568,13.624-4.656a5.5,5.5,0,0,0,1.625-5.876s-3.94,1.7-3.166,1.325c7.217-3.483.306-12.353-.433-11.319-6.473,9.076-15.489,9.552-22.644,13.8-4.05,2.4-4.959,10.646-.343,17.091,0,0,1.875-7.21,6.2,1.379" transform="translate(-7.493 -26.125)" fill="#262324"/>
                <path id="Trazado_609709" data-name="Trazado 609709" d="M52.294,101.522a1.073,1.073,0,0,1-.519,1.429l-5.244,2.685a1.075,1.075,0,1,1-.909-1.948L50.865,101a1.075,1.075,0,0,1,1.429.519" transform="translate(-18.023 -40.411)" fill="#262324"/>
                <path id="Trazado_609710" data-name="Trazado 609710" d="M59.438,102.312a1.074,1.074,0,0,0,1.325.746l3.955-.938a1.075,1.075,0,1,0-.58-2.071l-3.954.938a1.074,1.074,0,0,0-.745,1.325" transform="translate(-23.789 -40.053)" fill="#262324"/>
                <path id="Trazado_609711" data-name="Trazado 609711" d="M61.241,103.724c-.12.04-.138-.043-.175-.129a1.756,1.756,0,0,0-2.121-1.144,11.835,11.835,0,0,0-3.428,1.278,1.674,1.674,0,0,0-.908,1.262,2.017,2.017,0,0,0,.3,1.118,3.917,3.917,0,0,0,.381.658,2.867,2.867,0,0,0,3.494,1.1,3.263,3.263,0,0,0,2.39-3.827c-.011-.089-.093-.222.083-.261a3.4,3.4,0,0,1-1.771,3.958,4.116,4.116,0,0,1-1.695.484,2.955,2.955,0,0,1-2.212-.868,4.036,4.036,0,0,1-1.062-1.85c-.07-.252-.2-.323-.462-.273A10.589,10.589,0,0,0,52,105.86c-.186.077-.221.177-.169.365a4.849,4.849,0,0,1,.194,1.858,2.911,2.911,0,0,1-2,2.556,4.275,4.275,0,0,1-1.668.3,3.467,3.467,0,0,1-3.041-2.2c-.019-.053-.067-.116,0-.155.1-.054.112.038.138.1a3.808,3.808,0,0,0,.782,1.162,3.2,3.2,0,0,0,3.584.708,2.956,2.956,0,0,0,2.053-3.454c-.176-1.568-1.081-1.855-2.227-1.7a13.088,13.088,0,0,0-3.1.767,1.746,1.746,0,0,0-1.207,2.161c.046.159-.035.188-.149.211s-.216.12-.282-.067a.978.978,0,0,0-.6-.571c-.306-.127-.234-.444-.323-.675-.065-.169.146-.195.248-.258a12.927,12.927,0,0,1,4.465-1.822,6.255,6.255,0,0,1,2.993.029,1.465,1.465,0,0,0,.824-.053,4.483,4.483,0,0,0,2.045-1.146,8.948,8.948,0,0,1,4.494-1.9c.477-.082.959-.132,1.436-.209a5.8,5.8,0,0,1,1.008-.028c.037,0,.07,0,.1.032a1.075,1.075,0,0,1,.058.867.86.86,0,0,0-.172.638c.052.238-.064.3-.247.349" transform="translate(-17.611 -40.782)" fill="#151515" fill-rule="evenodd"/>
                <path id="Trazado_609712" data-name="Trazado 609712" d="M37.683,110.55l-9.594.974s.306-.092,1.053.472l8.8-.6Z" transform="translate(-11.25 -44.275)" fill="#151515"/>
                <path id="Trazado_609713" data-name="Trazado 609713" d="M106.169,3.482c3.934-3.934,9.61-4.64,12.676-1.575s2.361,8.742-1.575,12.676L94.077,37.777c-3.933,3.936-9.61,4.641-12.675,1.574s-2.362-8.74,1.572-12.675Z" transform="translate(-31.837 0)" fill="#001b5a"/>
                <path id="Trazado_609714" data-name="Trazado 609714" d="M82.975,14.585C79.04,10.649,78.336,4.975,81.4,1.907S90.144-.452,94.078,3.482l23.194,23.194c3.936,3.936,4.64,9.611,1.575,12.676s-8.743,2.361-12.677-1.575Z" transform="translate(-31.837 0)" fill="#76a9da"/>
                <path id="Trazado_609715" data-name="Trazado 609715" d="M120.126,30.723a.749.749,0,1,1,1.06,0,.75.75,0,0,1-1.06,0" transform="translate(-48.023 -11.793)" fill="#001b5a"/>
                <path id="Trazado_609716" data-name="Trazado 609716" d="M116.47,34.38a.749.749,0,1,1,1.059,0,.75.75,0,0,1-1.059,0" transform="translate(-46.558 -13.257)" fill="#001b5a"/>
                <path id="Trazado_609717" data-name="Trazado 609717" d="M112.813,38.036a.749.749,0,1,1,1.059,0,.75.75,0,0,1-1.059,0" transform="translate(-45.094 -14.721)" fill="#001b5a"/>
                <path id="Trazado_609718" data-name="Trazado 609718" d="M109.157,41.692a.749.749,0,1,1,1.06,0,.745.745,0,0,1-1.06,0" transform="translate(-43.629 -16.186)" fill="#001b5a"/>
                <path id="Trazado_609719" data-name="Trazado 609719" d="M116.593,27.189a.748.748,0,1,1,1.058,0,.748.748,0,0,1-1.058,0" transform="translate(-46.607 -10.377)" fill="#001b5a"/>
                <path id="Trazado_609720" data-name="Trazado 609720" d="M112.936,30.846a.749.749,0,1,1,1.059,0,.75.75,0,0,1-1.059,0" transform="translate(-45.143 -11.842)" fill="#001b5a"/>
                <path id="Trazado_609721" data-name="Trazado 609721" d="M109.281,34.5a.749.749,0,1,1,1.059,0,.748.748,0,0,1-1.059,0" transform="translate(-43.679 -13.306)" fill="#001b5a"/>
                <path id="Trazado_609722" data-name="Trazado 609722" d="M105.624,38.159a.749.749,0,1,1,1.059,0,.744.744,0,0,1-1.059,0" transform="translate(-42.214 -14.771)" fill="#001b5a"/>
                <path id="Trazado_609723" data-name="Trazado 609723" d="M123.659,34.256a.75.75,0,1,1,1.061,0,.753.753,0,0,1-1.061,0" transform="translate(-49.438 -13.208)" fill="#001b5a"/>
                <path id="Trazado_609724" data-name="Trazado 609724" d="M120,37.912a.748.748,0,1,1,1.059,0,.747.747,0,0,1-1.059,0" transform="translate(-47.973 -14.673)" fill="#001b5a"/>
                <path id="Trazado_609725" data-name="Trazado 609725" d="M116.346,41.57a.75.75,0,1,1,1.059,0,.75.75,0,0,1-1.059,0" transform="translate(-46.509 -16.136)" fill="#001b5a"/>
                <path id="Trazado_609726" data-name="Trazado 609726" d="M112.692,45.225a.748.748,0,1,1,1.058,0,.746.746,0,0,1-1.058,0" transform="translate(-45.045 -17.6)" fill="#001b5a"/>
                <path id="Trazado_609727" data-name="Trazado 609727" d="M113.059,23.656a.749.749,0,1,1,1.06,0,.747.747,0,0,1-1.06,0" transform="translate(-45.192 -8.963)" fill="#001b5a"/>
                <path id="Trazado_609728" data-name="Trazado 609728" d="M109.4,27.312a.749.749,0,1,1,1.058,0,.747.747,0,0,1-1.058,0" transform="translate(-43.728 -10.426)" fill="#001b5a"/>
                <path id="Trazado_609729" data-name="Trazado 609729" d="M105.747,30.969a.749.749,0,1,1,1.059,0,.746.746,0,0,1-1.059,0" transform="translate(-42.263 -11.891)" fill="#001b5a"/>
                <path id="Trazado_609730" data-name="Trazado 609730" d="M102.09,34.624a.748.748,0,1,1,1.059,0,.747.747,0,0,1-1.059,0" transform="translate(-40.799 -13.356)" fill="#001b5a"/>
                <path id="Trazado_609731" data-name="Trazado 609731" d="M349.492,217.256l-19.91-15.571c-.373-.295-1.022-.092-1.446.449s-.465,1.222-.09,1.514l5.475,4.283L299,252.227l9.363,7.326,34.524-44.295,5.069,3.965c.375.293,1.023.091,1.447-.449s.466-1.222.091-1.517" transform="translate(-119.749 -80.72)" fill="#727997"/>
                <path id="Trazado_609732" data-name="Trazado 609732" d="M250.4,352.431l1.081-5.33,11.37-14.55,1.932,1.477Z" transform="translate(-100.284 -133.186)" fill="#727997"/>
                <path id="Trazado_609733" data-name="Trazado 609733" d="M283.07,304.672a4.617,4.617,0,0,1-3.219-.791,58.447,58.447,0,0,1-12.786-7.166,47.885,47.885,0,0,1-10.356-10.944,4.59,4.59,0,0,1-1.505-2.894,4.78,4.78,0,0,1,.992-3.552l28.328-36.214a4.839,4.839,0,0,1,6.633-.873l22.7,17.754a4.74,4.74,0,0,1,.745,6.65l-28.326,36.211a4.782,4.782,0,0,1-3.206,1.82m5.054-60.163a1.56,1.56,0,0,0-1.044.6l-28.327,36.213a1.573,1.573,0,0,0-.331,1.161,1.383,1.383,0,0,0,.52.932l.23.18.155.252a44.556,44.556,0,0,0,9.735,10.315,56.3,56.3,0,0,0,12.169,6.779l.412.234a1.527,1.527,0,0,0,2.079-.32l28.328-36.213a1.492,1.492,0,0,0-.192-2.1l-22.7-17.752a1.392,1.392,0,0,0-1.037-.284" transform="translate(-102.195 -96.639)" fill="#96c6d6"/>
                <path id="Trazado_609734" data-name="Trazado 609734" d="M338.983,264.631a1.706,1.706,0,0,1-2.4.329L297.649,234.5a1.734,1.734,0,0,1,2.137-2.73l38.936,30.46a1.707,1.707,0,0,1,.261,2.4" transform="translate(-118.953 -92.682)" fill="#96c6d6"/>
                <path id="Trazado_609735" data-name="Trazado 609735" d="M301.135,295.292l-13.829,17.681a2.679,2.679,0,0,1-3.728.607,46.044,46.044,0,0,1-10.584-5.791,36.427,36.427,0,0,1-8.408-9.066,2.674,2.674,0,0,1-.307-3.763l13.828-17.678Z" transform="translate(-105.592 -111.051)" fill="#ddedf8"/>
                <rect id="Rectángulo_377773" data-name="Rectángulo 377773" width="1.079" height="13.336" transform="translate(170.195 169.182) rotate(-51.964)" fill="#fff"/>
                <rect id="Rectángulo_377774" data-name="Rectángulo 377774" width="1.08" height="9.459" transform="translate(166.954 173.366) rotate(-51.965)" fill="#fff"/>
                <path id="Trazado_609736" data-name="Trazado 609736" d="M338.341,83.331l10.243-10.242a6.806,6.806,0,0,0-9.626-9.626L328.716,73.706Z" transform="translate(-131.65 -24.619)" fill="#76a9da"/>
                <path id="Trazado_609737" data-name="Trazado 609737" d="M320.543,81.88,310.3,92.122a6.806,6.806,0,0,0,9.624,9.625L330.168,91.5Z" transform="translate(-123.477 -32.793)" fill="#90aa74"/>
                <g id="Grupo_1071675" data-name="Grupo 1071675" transform="translate(189.778 41.799)" opacity="0.6">
                  <g id="Grupo_1071674" data-name="Grupo 1071674">
                    <g id="Grupo_1071673" data-name="Grupo 1071673" clip-path="url(#clip-path-4)">
                      <path id="Trazado_609738" data-name="Trazado 609738" d="M331.934,71.017l-9.624,9.625L317.855,85.1c-1.156,1.158-1.625,2.562-1.047,3.141s1.983.11,3.139-1.048l4.457-4.455,9.623-9.623c1.158-1.158,1.625-2.562,1.046-3.141s-1.981-.109-3.139,1.047" transform="translate(-316.56 -69.723)" fill="#f7f7fa"/>
                    </g>
                  </g>
                </g>
              </g>
            </g>
          </g>
        </g>
        <g id="Grupo_1071685" data-name="Grupo 1071685" transform="translate(782.375 10413.591)">
          <rect id="Rectángulo_377778" data-name="Rectángulo 377778" width="31.308" height="21.081" transform="matrix(0.712, -0.702, 0.702, 0.712, 6.364, 44.866)" fill="#936052"/>
          <g id="Grupo_1071681" data-name="Grupo 1071681">
            <g id="Grupo_1071680" data-name="Grupo 1071680" clip-path="url(#clip-path-5)">
              <path id="Trazado_609739" data-name="Trazado 609739" d="M23.053,296.163l-1.2,1.184c-1.8,1.774-5.405,1.035-8.045-1.649L2.524,284.23c-2.64-2.684-3.318-6.3-1.514-8.072l1.2-1.184c.655-.644,1.963-.376,2.921.6L22.5,293.232c.959.975,1.2,2.287.55,2.931" transform="translate(0 -232.08)" fill="#a36652"/>
              <path id="Trazado_609740" data-name="Trazado 609740" d="M20.221,315.513c-1.9.415-4.419-.5-6.4-2.517L2.543,301.527c-1.98-2.013-2.856-4.549-2.41-6.44Z" transform="translate(-0.016 -249.373)" fill="#936052"/>
              <path id="Trazado_609741" data-name="Trazado 609741" d="M187.269,133.386l1.21-1.2c1.812-1.793,1.117-5.433-1.552-8.13l-11.4-11.521c-2.669-2.7-6.3-3.429-8.113-1.635l-1.21,1.2c-.658.651-.406,1.973.564,2.952l17.56,17.74c.969.979,2.288,1.245,2.946.594" transform="translate(-140.143 -92.892)" fill="#a36652"/>
              <path id="Trazado_609742" data-name="Trazado 609742" d="M207.031,130.561c.444-1.907-.448-4.46-2.45-6.482l-11.4-11.521c-2-2.022-4.546-2.94-6.457-2.516Z" transform="translate(-157.795 -92.909)" fill="#936052"/>
              <path id="Trazado_609743" data-name="Trazado 609743" d="M81.617,170.922,79.34,172.6a65.382,65.382,0,0,0-13.308,13.164l-1.577,2.086L46.071,169.219l3.284-2.116a40.04,40.04,0,0,0,11.587-11.391l2.29-3.424Z" transform="translate(-38.934 -128.696)" fill="#e2b74b"/>
              <path id="Trazado_609744" data-name="Trazado 609744" d="M168.525,171.258l-.014.014a.969.969,0,0,1-1.37-.009L149.414,153.3a.968.968,0,0,1,.009-1.37l.014-.014a.969.969,0,0,1,1.37.009l17.727,17.967a.969.969,0,0,1-.009,1.37" transform="translate(-126.032 -128.143)" fill="#a36652"/>
              <path id="Trazado_609745" data-name="Trazado 609745" d="M58.769,279.547l-.014.014a.969.969,0,0,1-1.37-.009L39.659,261.585a.969.969,0,0,1,.009-1.37l.014-.014a.969.969,0,0,1,1.37.009l17.727,17.967a.969.969,0,0,1-.009,1.37" transform="translate(-33.279 -219.656)" fill="#a36652"/>
              <path id="Trazado_609746" data-name="Trazado 609746" d="M309.6,405.489,260.138,358.77l-2.651,3.5,46.2,49.149c2.982,3.126,4.8,2.756,6.471,1.106s2.566-4.018-.554-7.034" transform="translate(-217.598 -303.191)" fill="#936052"/>
              <path id="Trazado_609747" data-name="Trazado 609747" d="M213.737,310.365c-.392-.4-1.326-.128-2.222.589-.882-3.195-2.775-6.362-5.991-7.135l-.8.707-3.943,3.838-.722.778c.756,3.24,3.939,5.171,7.152,6.065-.754.9-1.047,1.858-.648,2.261l.017.017c.457.462,1.647.024,2.658-.977l3.516-3.48c1.011-1,1.461-2.186,1-2.648Z" transform="translate(-169.063 -256.754)" fill="#936052"/>
              <path id="Trazado_609748" data-name="Trazado 609748" d="M142.847,36.812l-6.379-4.005a1.311,1.311,0,0,1-.332-1.922l.019-.024a1.311,1.311,0,0,1,2-.071l5.074,5.567a.3.3,0,0,1-.38.455" transform="translate(-114.808 -25.659)" fill="#e2b74b"/>
              <path id="Trazado_609749" data-name="Trazado 609749" d="M217.625,33.826l4.4-5.059a1.166,1.166,0,0,1,1.736-.028l.018.02a1.167,1.167,0,0,1-.211,1.766l-5.592,3.7a.266.266,0,0,1-.348-.4" transform="translate(-183.854 -23.971)" fill="#e2b74b"/>
              <path id="Trazado_609750" data-name="Trazado 609750" d="M195.554,8.684l-.677-7.292A1.274,1.274,0,0,1,196.166,0h.029a1.275,1.275,0,0,1,1.235,1.5l-1.3,7.207a.291.291,0,0,1-.576-.025" transform="translate(-164.684 0)" fill="#e2b74b"/>
            </g>
          </g>
        </g>
        <path id="Rectángulo_377768" data-name="Rectángulo 377768" d="M20,0H335a0,0,0,0,1,0,0V70a0,0,0,0,1,0,0H20A20,20,0,0,1,0,50V20A20,20,0,0,1,20,0Z" transform="translate(265 10564)" fill="#cadeb4"/>
        <path id="Trazado_834666" data-name="Trazado 834666" d="M3.359,13.117H8.336V15H1.016V3.625H3.359Zm10.063,2.039a4.15,4.15,0,0,1-3.027-1.141,4.054,4.054,0,0,1-1.168-3.039v-.219A5.106,5.106,0,0,1,9.719,8.48a3.612,3.612,0,0,1,1.395-1.547,3.914,3.914,0,0,1,2.059-.543A3.508,3.508,0,0,1,15.9,7.484a4.444,4.444,0,0,1,1,3.1v.922H11.516a2.1,2.1,0,0,0,.66,1.328,2,2,0,0,0,1.395.5,2.437,2.437,0,0,0,2.039-.945l1.109,1.242a3.389,3.389,0,0,1-1.375,1.121A4.511,4.511,0,0,1,13.422,15.156Zm-.258-6.945a1.411,1.411,0,0,0-1.09.455,2.357,2.357,0,0,0-.535,1.3H14.68V9.788a1.681,1.681,0,0,0-.406-1.165A1.456,1.456,0,0,0,13.164,8.211Zm8.07,3.594L22.8,6.547h2.422l-3.4,9.766-.187.445a2.577,2.577,0,0,1-2.5,1.656,3.552,3.552,0,0,1-1-.148V16.555l.344.008a1.857,1.857,0,0,0,.957-.2,1.283,1.283,0,0,0,.5-.648l.266-.7L17.234,6.547h2.43ZM35.484,15H33.227V6.3l-2.7.836V5.3l4.711-1.687h.242Zm9.18,0H42.406V6.3l-2.7.836V5.3l4.711-1.687h.242Zm11.492,0h-7.8V13.453l3.68-3.922A9.078,9.078,0,0,0,53.16,8.086a2.322,2.322,0,0,0,.363-1.172,1.738,1.738,0,0,0-.383-1.191,1.382,1.382,0,0,0-1.094-.434,1.49,1.49,0,0,0-1.207.527A2.089,2.089,0,0,0,50.4,7.2H48.133a3.729,3.729,0,0,1,.5-1.9,3.5,3.5,0,0,1,1.4-1.348,4.262,4.262,0,0,1,2.055-.488,4.036,4.036,0,0,1,2.73.844A2.985,2.985,0,0,1,55.789,6.7a3.825,3.825,0,0,1-.437,1.719,9.551,9.551,0,0,1-1.5,2.039L51.266,13.18h4.891Zm9.18,0h-7.8V13.453l3.68-3.922A9.078,9.078,0,0,0,62.34,8.086,2.322,2.322,0,0,0,62.7,6.914a1.738,1.738,0,0,0-.383-1.191,1.382,1.382,0,0,0-1.094-.434,1.49,1.49,0,0,0-1.207.527A2.089,2.089,0,0,0,59.578,7.2H57.313a3.729,3.729,0,0,1,.5-1.9,3.5,3.5,0,0,1,1.4-1.348,4.262,4.262,0,0,1,2.055-.488A4.036,4.036,0,0,1,64,4.313,2.985,2.985,0,0,1,64.969,6.7a3.825,3.825,0,0,1-.437,1.719,9.551,9.551,0,0,1-1.5,2.039L60.445,13.18h4.891Zm5.109-4.289a5.094,5.094,0,0,1,.887-3.148,2.877,2.877,0,0,1,2.426-1.172,2.589,2.589,0,0,1,2.039.922V3h2.266V15H76.023l-.109-.9a2.657,2.657,0,0,1-2.172,1.055,2.869,2.869,0,0,1-2.395-1.176A5.258,5.258,0,0,1,70.445,10.711Zm2.258.168a3.337,3.337,0,0,0,.414,1.823,1.349,1.349,0,0,0,1.2.634,1.511,1.511,0,0,0,1.477-.884V9.111a1.489,1.489,0,0,0-1.461-.884Q72.7,8.227,72.7,10.879Zm11,4.277a4.15,4.15,0,0,1-3.027-1.141,4.054,4.054,0,0,1-1.168-3.039v-.219A5.106,5.106,0,0,1,80,8.48a3.612,3.612,0,0,1,1.395-1.547,3.914,3.914,0,0,1,2.059-.543,3.508,3.508,0,0,1,2.73,1.094,4.444,4.444,0,0,1,1,3.1v.922H81.8a2.1,2.1,0,0,0,.66,1.328,2,2,0,0,0,1.395.5,2.437,2.437,0,0,0,2.039-.945L87,13.633a3.389,3.389,0,0,1-1.375,1.121A4.511,4.511,0,0,1,83.7,15.156Zm-.258-6.945a1.411,1.411,0,0,0-1.09.455,2.357,2.357,0,0,0-.535,1.3h3.141V9.788a1.681,1.681,0,0,0-.406-1.165A1.456,1.456,0,0,0,83.445,8.211ZM100.148,15h-7.8V13.453l3.68-3.922a9.078,9.078,0,0,0,1.121-1.445,2.322,2.322,0,0,0,.363-1.172,1.738,1.738,0,0,0-.383-1.191,1.382,1.382,0,0,0-1.094-.434,1.49,1.49,0,0,0-1.207.527A2.089,2.089,0,0,0,94.391,7.2H92.125a3.729,3.729,0,0,1,.5-1.9,3.5,3.5,0,0,1,1.4-1.348,4.262,4.262,0,0,1,2.055-.488,4.036,4.036,0,0,1,2.73.844A2.985,2.985,0,0,1,99.781,6.7a3.825,3.825,0,0,1-.437,1.719,9.551,9.551,0,0,1-1.5,2.039L95.258,13.18h4.891Zm9.039-4.7a5.763,5.763,0,0,1-.977,3.609,3.9,3.9,0,0,1-5.7.023,5.594,5.594,0,0,1-1.008-3.516V8.32a5.687,5.687,0,0,1,.988-3.617,3.91,3.91,0,0,1,5.691-.012A5.576,5.576,0,0,1,109.188,8.2Zm-2.258-2.3a4.165,4.165,0,0,0-.387-2.061,1.307,1.307,0,0,0-1.207-.645,1.284,1.284,0,0,0-1.176.614,3.9,3.9,0,0,0-.4,1.92v2.768a4.373,4.373,0,0,0,.379,2.068,1.29,1.29,0,0,0,1.215.676,1.268,1.268,0,0,0,1.2-.649,4.268,4.268,0,0,0,.383-1.986Zm11.438,2.3a5.763,5.763,0,0,1-.977,3.609,3.9,3.9,0,0,1-5.7.023,5.594,5.594,0,0,1-1.008-3.516V8.32a5.687,5.687,0,0,1,.988-3.617,3.91,3.91,0,0,1,5.691-.012A5.576,5.576,0,0,1,118.367,8.2Zm-2.258-2.3a4.165,4.165,0,0,0-.387-2.061,1.307,1.307,0,0,0-1.207-.645,1.284,1.284,0,0,0-1.176.614,3.9,3.9,0,0,0-.4,1.92v2.768a4.373,4.373,0,0,0,.379,2.068,1.29,1.29,0,0,0,1.215.676,1.268,1.268,0,0,0,1.2-.649,4.268,4.268,0,0,0,.383-1.986Zm11.516-3.11L123.227,15h-2.383l4.406-9.555h-5.656V3.625h8.031Z" transform="translate(307 10589)" fill="#12263f"/>
        <path id="Trazado_609755" data-name="Trazado 609755" d="M0,0,59,6.395v53.67L0,70Z" transform="translate(600 10657)" fill="#92a2d6"/>
        <path id="Trazado_609759" data-name="Trazado 609759" d="M59,0,0,6.395v53.67L59,70Z" transform="translate(941.688 10658.5)" fill="#a1c47a"/>
        <path id="Rectángulo_377760" data-name="Rectángulo 377760" d="M0,0H315a20,20,0,0,1,20,20V50a20,20,0,0,1-20,20H0a0,0,0,0,1,0,0V0A0,0,0,0,1,0,0Z" transform="translate(1000 10565.5)" fill="#c1cdf5"/>
        <path id="Rectángulo_377761" data-name="Rectángulo 377761" d="M0,0H315a20,20,0,0,1,20,20V50a20,20,0,0,1-20,20H0a0,0,0,0,1,0,0V0A0,0,0,0,1,0,0Z" transform="translate(1000 10474.5)" fill="#cadeb4"/>
        <path id="Rectángulo_377762" data-name="Rectángulo 377762" d="M0,0H315a20,20,0,0,1,20,20V50a20,20,0,0,1-20,20H0a0,0,0,0,1,0,0V0A0,0,0,0,1,0,0Z" transform="translate(1000 10658.5)" fill="#cadeb4"/>
        <path id="Trazado_834661" data-name="Trazado 834661" d="M102.43,10.836h-1.867V15H98.219V3.625h4.227a4.778,4.778,0,0,1,3.109.9,3.1,3.1,0,0,1,1.094,2.539,3.5,3.5,0,0,1-.5,1.941,3.437,3.437,0,0,1-1.527,1.238l2.461,4.648V15h-2.516Zm-1.867-1.9h1.891a1.936,1.936,0,0,0,1.367-.449A1.606,1.606,0,0,0,104.3,7.25a1.719,1.719,0,0,0-.457-1.266,1.9,1.9,0,0,0-1.4-.461h-1.883Zm11.609,6.219a4.15,4.15,0,0,1-3.027-1.141,4.054,4.054,0,0,1-1.168-3.039v-.219a5.106,5.106,0,0,1,.492-2.277,3.612,3.612,0,0,1,1.395-1.547,3.914,3.914,0,0,1,2.059-.543,3.508,3.508,0,0,1,2.73,1.094,4.444,4.444,0,0,1,1,3.1v.922h-5.383a2.1,2.1,0,0,0,.66,1.328,2,2,0,0,0,1.395.5,2.437,2.437,0,0,0,2.039-.945l1.109,1.242a3.389,3.389,0,0,1-1.375,1.121A4.511,4.511,0,0,1,112.172,15.156Zm-.258-6.945a1.411,1.411,0,0,0-1.09.455,2.357,2.357,0,0,0-.535,1.3h3.141V9.788a1.681,1.681,0,0,0-.406-1.165A1.456,1.456,0,0,0,111.914,8.211Zm9.594,4.453a.727.727,0,0,0-.41-.652,4.659,4.659,0,0,0-1.316-.426q-3.016-.633-3.016-2.562a2.323,2.323,0,0,1,.934-1.879,3.766,3.766,0,0,1,2.441-.754,4.053,4.053,0,0,1,2.574.758,2.388,2.388,0,0,1,.965,1.969h-2.258a1.092,1.092,0,0,0-.312-.8A1.322,1.322,0,0,0,120.133,8a1.351,1.351,0,0,0-.883.258.814.814,0,0,0-.312.656.7.7,0,0,0,.355.605,3.657,3.657,0,0,0,1.2.4,9.8,9.8,0,0,1,1.422.379A2.336,2.336,0,0,1,123.7,12.57a2.2,2.2,0,0,1-.992,1.871,4.28,4.28,0,0,1-2.562.715,4.47,4.47,0,0,1-1.887-.379,3.166,3.166,0,0,1-1.293-1.039,2.414,2.414,0,0,1-.469-1.426h2.141a1.179,1.179,0,0,0,.445.922,1.766,1.766,0,0,0,1.109.32,1.635,1.635,0,0,0,.98-.246A.766.766,0,0,0,121.508,12.664Zm3.3-1.969a5.013,5.013,0,0,1,.484-2.242,3.546,3.546,0,0,1,1.395-1.523,4.069,4.069,0,0,1,2.113-.539,3.849,3.849,0,0,1,2.793,1.047,4.2,4.2,0,0,1,1.207,2.844l.016.578a4.418,4.418,0,0,1-1.086,3.121,4.209,4.209,0,0,1-5.832,0A4.5,4.5,0,0,1,124.8,10.8Zm2.258.16a3.16,3.16,0,0,0,.453,1.843,1.628,1.628,0,0,0,2.578.008,3.457,3.457,0,0,0,.461-2.015,3.128,3.128,0,0,0-.461-1.831,1.5,1.5,0,0,0-1.3-.649,1.474,1.474,0,0,0-1.281.646A3.516,3.516,0,0,0,127.063,10.856ZM136.586,15H134.32V3h2.266Zm6.922-.859a2.831,2.831,0,0,1-2.312,1.016,2.67,2.67,0,0,1-2.074-.781,3.335,3.335,0,0,1-.73-2.289V6.547h2.258v5.467q0,1.322,1.2,1.322a1.63,1.63,0,0,0,1.578-.8V6.547H145.7V15H143.57Zm7.406-.8a1.481,1.481,0,0,0,1.016-.344,1.2,1.2,0,0,0,.406-.914h2.117a2.9,2.9,0,0,1-.469,1.574,3.093,3.093,0,0,1-1.262,1.109,3.949,3.949,0,0,1-1.77.395A3.67,3.67,0,0,1,148.094,14a4.56,4.56,0,0,1-1.047-3.184v-.148a4.508,4.508,0,0,1,1.039-3.117,3.627,3.627,0,0,1,2.852-1.164,3.555,3.555,0,0,1,2.543.9,3.2,3.2,0,0,1,.973,2.4h-2.117a1.551,1.551,0,0,0-.406-1.072,1.51,1.51,0,0,0-2.223.163,3.333,3.333,0,0,0-.4,1.866v.235a3.375,3.375,0,0,0,.4,1.878A1.377,1.377,0,0,0,150.914,13.336ZM158.125,15h-2.266V6.547h2.266Zm-2.4-10.641a1.112,1.112,0,0,1,.34-.836,1.465,1.465,0,0,1,1.848,0,1.105,1.105,0,0,1,.344.836,1.109,1.109,0,0,1-.348.844,1.448,1.448,0,0,1-1.836,0A1.109,1.109,0,0,1,155.727,4.359Zm3.906,6.336a5.013,5.013,0,0,1,.484-2.242,3.546,3.546,0,0,1,1.395-1.523,4.069,4.069,0,0,1,2.113-.539,3.849,3.849,0,0,1,2.793,1.047,4.2,4.2,0,0,1,1.207,2.844l.016.578a4.418,4.418,0,0,1-1.086,3.121,4.209,4.209,0,0,1-5.832,0,4.5,4.5,0,0,1-1.09-3.187Zm2.258.16a3.16,3.16,0,0,0,.453,1.843,1.628,1.628,0,0,0,2.578.008,3.457,3.457,0,0,0,.461-2.015,3.128,3.128,0,0,0-.461-1.831,1.5,1.5,0,0,0-1.3-.649,1.474,1.474,0,0,0-1.281.646A3.516,3.516,0,0,0,161.891,10.856ZM164.07,3h2.461l-2.164,2.422h-1.836Zm7.039,3.547.07.977a2.951,2.951,0,0,1,2.43-1.133,2.453,2.453,0,0,1,2,.789,3.682,3.682,0,0,1,.672,2.359V15h-2.258V9.594a1.465,1.465,0,0,0-.312-1.043,1.4,1.4,0,0,0-1.039-.324,1.553,1.553,0,0,0-1.43.813V15h-2.258V6.547Zm17.453,4.172h1.289v1.82h-1.289V15H186.3V12.539h-4.664l-.1-1.422,4.742-7.492h2.281Zm-4.773,0H186.3V6.7l-.148.258ZM198.859,15h-7.8V13.453l3.68-3.922a9.078,9.078,0,0,0,1.121-1.445,2.322,2.322,0,0,0,.363-1.172,1.738,1.738,0,0,0-.383-1.191,1.382,1.382,0,0,0-1.094-.434,1.49,1.49,0,0,0-1.207.527A2.089,2.089,0,0,0,193.1,7.2h-2.266a3.729,3.729,0,0,1,.5-1.9,3.5,3.5,0,0,1,1.4-1.348,4.262,4.262,0,0,1,2.055-.488,4.036,4.036,0,0,1,2.73.844,2.985,2.985,0,0,1,.973,2.383,3.825,3.825,0,0,1-.437,1.719,9.552,9.552,0,0,1-1.5,2.039l-2.586,2.727h4.891Zm1.719-5.594.656-5.781h6.375V5.508h-4.523L202.8,7.953a3.58,3.58,0,0,1,1.711-.43,3.279,3.279,0,0,1,2.547,1.008,4.026,4.026,0,0,1,.922,2.82,4.124,4.124,0,0,1-.465,1.973,3.281,3.281,0,0,1-1.332,1.352,4.158,4.158,0,0,1-2.047.48,4.416,4.416,0,0,1-1.914-.418,3.4,3.4,0,0,1-1.395-1.176,3.2,3.2,0,0,1-.543-1.727h2.234a1.669,1.669,0,0,0,.5,1.105,1.573,1.573,0,0,0,1.113.395,1.388,1.388,0,0,0,1.18-.551,2.551,2.551,0,0,0,.414-1.559,2.11,2.11,0,0,0-.477-1.484,1.749,1.749,0,0,0-1.352-.516,1.954,1.954,0,0,0-1.3.422l-.219.2Zm12.57,1.3a5.094,5.094,0,0,1,.887-3.148,2.877,2.877,0,0,1,2.426-1.172,2.589,2.589,0,0,1,2.039.922V3h2.266V15h-2.039l-.109-.9a2.657,2.657,0,0,1-2.172,1.055,2.869,2.869,0,0,1-2.395-1.176A5.258,5.258,0,0,1,213.148,10.711Zm2.258.168a3.337,3.337,0,0,0,.414,1.823,1.349,1.349,0,0,0,1.2.634,1.511,1.511,0,0,0,1.477-.884V9.111a1.489,1.489,0,0,0-1.461-.884Q215.406,8.227,215.406,10.879Zm11,4.277a4.15,4.15,0,0,1-3.027-1.141,4.054,4.054,0,0,1-1.168-3.039v-.219A5.106,5.106,0,0,1,222.7,8.48,3.612,3.612,0,0,1,224.1,6.934a3.914,3.914,0,0,1,2.059-.543,3.508,3.508,0,0,1,2.73,1.094,4.444,4.444,0,0,1,1,3.1v.922H224.5a2.1,2.1,0,0,0,.66,1.328,2,2,0,0,0,1.395.5,2.437,2.437,0,0,0,2.039-.945l1.109,1.242a3.389,3.389,0,0,1-1.375,1.121A4.511,4.511,0,0,1,226.406,15.156Zm-.258-6.945a1.411,1.411,0,0,0-1.09.455,2.357,2.357,0,0,0-.535,1.3h3.141V9.788a1.681,1.681,0,0,0-.406-1.165A1.456,1.456,0,0,0,226.148,8.211ZM242.852,15h-7.8V13.453l3.68-3.922a9.078,9.078,0,0,0,1.121-1.445,2.322,2.322,0,0,0,.363-1.172,1.738,1.738,0,0,0-.383-1.191,1.382,1.382,0,0,0-1.094-.434,1.49,1.49,0,0,0-1.207.527,2.089,2.089,0,0,0-.441,1.387h-2.266a3.729,3.729,0,0,1,.5-1.9,3.5,3.5,0,0,1,1.4-1.348,4.262,4.262,0,0,1,2.055-.488,4.036,4.036,0,0,1,2.73.844,2.985,2.985,0,0,1,.973,2.383,3.825,3.825,0,0,1-.437,1.719,9.552,9.552,0,0,1-1.5,2.039l-2.586,2.727h4.891Zm9.039-4.7a5.762,5.762,0,0,1-.977,3.609,3.9,3.9,0,0,1-5.7.023,5.594,5.594,0,0,1-1.008-3.516V8.32a5.687,5.687,0,0,1,.988-3.617,3.91,3.91,0,0,1,5.691-.012A5.576,5.576,0,0,1,251.891,8.2Zm-2.258-2.3a4.165,4.165,0,0,0-.387-2.061,1.307,1.307,0,0,0-1.207-.645,1.284,1.284,0,0,0-1.176.614,3.9,3.9,0,0,0-.4,1.92v2.768a4.372,4.372,0,0,0,.379,2.068,1.29,1.29,0,0,0,1.215.676,1.268,1.268,0,0,0,1.2-.649,4.268,4.268,0,0,0,.383-1.986Zm11.438,2.3a5.763,5.763,0,0,1-.977,3.609,3.9,3.9,0,0,1-5.7.023,5.594,5.594,0,0,1-1.008-3.516V8.32a5.687,5.687,0,0,1,.988-3.617,3.91,3.91,0,0,1,5.691-.012A5.576,5.576,0,0,1,261.07,8.2Zm-2.258-2.3a4.165,4.165,0,0,0-.387-2.061,1.307,1.307,0,0,0-1.207-.645,1.284,1.284,0,0,0-1.176.614,3.9,3.9,0,0,0-.4,1.92v2.768a4.372,4.372,0,0,0,.379,2.068,1.29,1.29,0,0,0,1.215.676,1.268,1.268,0,0,0,1.2-.649,4.268,4.268,0,0,0,.383-1.986Zm11.2-1.346a2.646,2.646,0,0,1-.414,1.469,2.98,2.98,0,0,1-1.141,1.023,3.3,3.3,0,0,1,1.313,1.1,2.816,2.816,0,0,1,.484,1.645,2.981,2.981,0,0,1-1.031,2.395,4.918,4.918,0,0,1-5.617,0,2.974,2.974,0,0,1-1.039-2.391,2.834,2.834,0,0,1,.484-1.648,3.239,3.239,0,0,1,1.3-1.094,2.95,2.95,0,0,1-1.137-1.023,2.664,2.664,0,0,1-.41-1.469,2.948,2.948,0,0,1,.969-2.316,4.457,4.457,0,0,1,5.262-.008A2.937,2.937,0,0,1,270.008,6.648Zm-2.023,5.07a1.638,1.638,0,0,0-.43-1.187,1.719,1.719,0,0,0-2.3,0,1.635,1.635,0,0,0-.43,1.191,1.634,1.634,0,0,0,.422,1.172,1.762,1.762,0,0,0,2.324.016A1.631,1.631,0,0,0,267.984,11.719Zm-.234-4.961a1.563,1.563,0,0,0-.352-1.066,1.43,1.43,0,0,0-1.977-.012,1.553,1.553,0,0,0-.352,1.078,1.633,1.633,0,0,0,.352,1.094,1.391,1.391,0,0,0,1.98,0A1.645,1.645,0,0,0,267.75,6.758Z" transform="translate(1020 10499.5)" fill="#12263f"/>
        <path id="Trazado_834662" data-name="Trazado 834662" d="M113.016,15V3.625h3.5A5.315,5.315,0,0,1,119.2,4.3a4.712,4.712,0,0,1,1.848,1.922,5.928,5.928,0,0,1,.664,2.832v.523a5.945,5.945,0,0,1-.652,2.82,4.672,4.672,0,0,1-1.84,1.914,5.355,5.355,0,0,1-2.68.688Zm2.344-9.477v7.594h1.133a2.545,2.545,0,0,0,2.1-.9,4.06,4.06,0,0,0,.742-2.57v-.6a4.124,4.124,0,0,0-.719-2.629,2.537,2.537,0,0,0-2.1-.895Zm11.8,9.633a4.15,4.15,0,0,1-3.027-1.141,4.054,4.054,0,0,1-1.168-3.039v-.219a5.106,5.106,0,0,1,.492-2.277,3.612,3.612,0,0,1,1.395-1.547,3.914,3.914,0,0,1,2.059-.543,3.508,3.508,0,0,1,2.73,1.094,4.444,4.444,0,0,1,1,3.1v.922H125.25a2.1,2.1,0,0,0,.66,1.328,2,2,0,0,0,1.395.5,2.437,2.437,0,0,0,2.039-.945l1.109,1.242a3.389,3.389,0,0,1-1.375,1.121A4.511,4.511,0,0,1,127.156,15.156ZM126.9,8.211a1.411,1.411,0,0,0-1.09.455,2.357,2.357,0,0,0-.535,1.3h3.141V9.788a1.681,1.681,0,0,0-.406-1.165A1.456,1.456,0,0,0,126.9,8.211Zm8.531,5.125a1.481,1.481,0,0,0,1.016-.344,1.2,1.2,0,0,0,.406-.914h2.117a2.9,2.9,0,0,1-.469,1.574,3.093,3.093,0,0,1-1.262,1.109,3.949,3.949,0,0,1-1.77.395A3.67,3.67,0,0,1,132.609,14a4.56,4.56,0,0,1-1.047-3.184v-.148A4.508,4.508,0,0,1,132.6,7.555a3.627,3.627,0,0,1,2.852-1.164,3.555,3.555,0,0,1,2.543.9,3.2,3.2,0,0,1,.973,2.4h-2.117a1.551,1.551,0,0,0-.406-1.072,1.51,1.51,0,0,0-2.223.163,3.333,3.333,0,0,0-.4,1.866v.235a3.375,3.375,0,0,0,.4,1.878A1.377,1.377,0,0,0,135.43,13.336Zm9.578-4.672A6.134,6.134,0,0,0,144.2,8.6a1.654,1.654,0,0,0-1.68.867V15h-2.258V6.547h2.133l.063,1.008a2.092,2.092,0,0,1,1.883-1.164,2.366,2.366,0,0,1,.7.1Zm4.828,6.492a4.15,4.15,0,0,1-3.027-1.141,4.054,4.054,0,0,1-1.168-3.039v-.219a5.106,5.106,0,0,1,.492-2.277,3.612,3.612,0,0,1,1.395-1.547,3.914,3.914,0,0,1,2.059-.543,3.508,3.508,0,0,1,2.73,1.094,4.444,4.444,0,0,1,1,3.1v.922H147.93a2.1,2.1,0,0,0,.66,1.328,2,2,0,0,0,1.395.5,2.437,2.437,0,0,0,2.039-.945l1.109,1.242a3.389,3.389,0,0,1-1.375,1.121A4.511,4.511,0,0,1,149.836,15.156Zm-.258-6.945a1.411,1.411,0,0,0-1.09.455,2.357,2.357,0,0,0-.535,1.3h3.141V9.788a1.681,1.681,0,0,0-.406-1.165A1.456,1.456,0,0,0,149.578,8.211ZM157.3,4.469V6.547h1.445V8.2H157.3v4.219a1.007,1.007,0,0,0,.18.672.9.9,0,0,0,.688.2,3.6,3.6,0,0,0,.664-.055v1.711a4.648,4.648,0,0,1-1.367.2,2.156,2.156,0,0,1-2.422-2.4V8.2H153.8V6.547h1.234V4.469Zm2.117,6.227a5.013,5.013,0,0,1,.484-2.242,3.546,3.546,0,0,1,1.395-1.523,4.069,4.069,0,0,1,2.113-.539A3.849,3.849,0,0,1,166.2,7.438a4.2,4.2,0,0,1,1.207,2.844l.016.578a4.418,4.418,0,0,1-1.086,3.121,4.209,4.209,0,0,1-5.832,0,4.5,4.5,0,0,1-1.09-3.187Zm2.258.16a3.16,3.16,0,0,0,.453,1.843,1.628,1.628,0,0,0,2.578.008,3.457,3.457,0,0,0,.461-2.015A3.128,3.128,0,0,0,164.7,8.86a1.5,1.5,0,0,0-1.3-.649,1.474,1.474,0,0,0-1.281.646A3.516,3.516,0,0,0,161.672,10.856Zm17.711-.137h1.289v1.82h-1.289V15h-2.258V12.539h-4.664l-.1-1.422L177.1,3.625h2.281Zm-4.773,0h2.516V6.7l-.148.258ZM187.367,15h-2.258V6.3l-2.7.836V5.3l4.711-1.687h.242Zm11.352-4.7a5.762,5.762,0,0,1-.977,3.609,3.9,3.9,0,0,1-5.7.023,5.594,5.594,0,0,1-1.008-3.516V8.32A5.687,5.687,0,0,1,192.02,4.7a3.91,3.91,0,0,1,5.691-.012A5.576,5.576,0,0,1,198.719,8.2Zm-2.258-2.3a4.165,4.165,0,0,0-.387-2.061,1.307,1.307,0,0,0-1.207-.645,1.284,1.284,0,0,0-1.176.614,3.9,3.9,0,0,0-.4,1.92v2.768a4.372,4.372,0,0,0,.379,2.068,1.29,1.29,0,0,0,1.215.676,1.268,1.268,0,0,0,1.2-.649,4.268,4.268,0,0,0,.383-1.986Zm11.516-3.11L203.578,15H201.2L205.6,5.445h-5.656V3.625h8.031Zm5.172,5.826a5.094,5.094,0,0,1,.887-3.148,2.877,2.877,0,0,1,2.426-1.172,2.589,2.589,0,0,1,2.039.922V3h2.266V15h-2.039l-.109-.9a2.657,2.657,0,0,1-2.172,1.055,2.869,2.869,0,0,1-2.395-1.176A5.258,5.258,0,0,1,213.148,10.711Zm2.258.168a3.337,3.337,0,0,0,.414,1.823,1.349,1.349,0,0,0,1.2.634,1.511,1.511,0,0,0,1.477-.884V9.111a1.489,1.489,0,0,0-1.461-.884Q215.406,8.227,215.406,10.879Zm11,4.277a4.15,4.15,0,0,1-3.027-1.141,4.054,4.054,0,0,1-1.168-3.039v-.219A5.106,5.106,0,0,1,222.7,8.48,3.612,3.612,0,0,1,224.1,6.934a3.914,3.914,0,0,1,2.059-.543,3.508,3.508,0,0,1,2.73,1.094,4.444,4.444,0,0,1,1,3.1v.922H224.5a2.1,2.1,0,0,0,.66,1.328,2,2,0,0,0,1.395.5,2.437,2.437,0,0,0,2.039-.945l1.109,1.242a3.389,3.389,0,0,1-1.375,1.121A4.511,4.511,0,0,1,226.406,15.156Zm-.258-6.945a1.411,1.411,0,0,0-1.09.455,2.357,2.357,0,0,0-.535,1.3h3.141V9.788a1.681,1.681,0,0,0-.406-1.165A1.456,1.456,0,0,0,226.148,8.211ZM242.852,15h-7.8V13.453l3.68-3.922a9.078,9.078,0,0,0,1.121-1.445,2.322,2.322,0,0,0,.363-1.172,1.738,1.738,0,0,0-.383-1.191,1.382,1.382,0,0,0-1.094-.434,1.49,1.49,0,0,0-1.207.527,2.089,2.089,0,0,0-.441,1.387h-2.266a3.729,3.729,0,0,1,.5-1.9,3.5,3.5,0,0,1,1.4-1.348,4.262,4.262,0,0,1,2.055-.488,4.036,4.036,0,0,1,2.73.844,2.985,2.985,0,0,1,.973,2.383,3.825,3.825,0,0,1-.437,1.719,9.552,9.552,0,0,1-1.5,2.039l-2.586,2.727h4.891Zm9.039-4.7a5.762,5.762,0,0,1-.977,3.609,3.9,3.9,0,0,1-5.7.023,5.594,5.594,0,0,1-1.008-3.516V8.32a5.687,5.687,0,0,1,.988-3.617,3.91,3.91,0,0,1,5.691-.012A5.576,5.576,0,0,1,251.891,8.2Zm-2.258-2.3a4.165,4.165,0,0,0-.387-2.061,1.307,1.307,0,0,0-1.207-.645,1.284,1.284,0,0,0-1.176.614,3.9,3.9,0,0,0-.4,1.92v2.768a4.372,4.372,0,0,0,.379,2.068,1.29,1.29,0,0,0,1.215.676,1.268,1.268,0,0,0,1.2-.649,4.268,4.268,0,0,0,.383-1.986ZM258.9,15h-2.258V6.3l-2.7.836V5.3l4.711-1.687h.242Zm9.18,0H265.82V6.3l-2.7.836V5.3l4.711-1.687h.242Z" transform="translate(1020 10593.5)" fill="#12263f"/>
        <path id="Trazado_834663" data-name="Trazado 834663" d="M93.25,10.836H91.383V15H89.039V3.625h4.227a4.778,4.778,0,0,1,3.109.9,3.1,3.1,0,0,1,1.094,2.539A3.5,3.5,0,0,1,96.965,9a3.437,3.437,0,0,1-1.527,1.238L97.9,14.891V15H95.383Zm-1.867-1.9h1.891a1.936,1.936,0,0,0,1.367-.449,1.606,1.606,0,0,0,.484-1.238,1.719,1.719,0,0,0-.457-1.266,1.9,1.9,0,0,0-1.4-.461H91.383Zm11.609,6.219a4.15,4.15,0,0,1-3.027-1.141A4.054,4.054,0,0,1,98.8,10.977v-.219a5.106,5.106,0,0,1,.492-2.277,3.612,3.612,0,0,1,1.395-1.547,3.914,3.914,0,0,1,2.059-.543,3.508,3.508,0,0,1,2.73,1.094,4.444,4.444,0,0,1,1,3.1v.922h-5.383a2.1,2.1,0,0,0,.66,1.328,2,2,0,0,0,1.395.5,2.437,2.437,0,0,0,2.039-.945l1.109,1.242a3.389,3.389,0,0,1-1.375,1.121A4.511,4.511,0,0,1,102.992,15.156Zm-.258-6.945a1.411,1.411,0,0,0-1.09.455,2.357,2.357,0,0,0-.535,1.3h3.141V9.788a1.681,1.681,0,0,0-.406-1.165A1.456,1.456,0,0,0,102.734,8.211Zm9.594,4.453a.727.727,0,0,0-.41-.652,4.659,4.659,0,0,0-1.316-.426q-3.016-.633-3.016-2.562a2.323,2.323,0,0,1,.934-1.879,3.766,3.766,0,0,1,2.441-.754,4.053,4.053,0,0,1,2.574.758,2.388,2.388,0,0,1,.965,1.969h-2.258a1.092,1.092,0,0,0-.312-.8A1.322,1.322,0,0,0,110.953,8a1.351,1.351,0,0,0-.883.258.814.814,0,0,0-.312.656.7.7,0,0,0,.355.605,3.657,3.657,0,0,0,1.2.4,9.8,9.8,0,0,1,1.422.379,2.336,2.336,0,0,1,1.789,2.273,2.2,2.2,0,0,1-.992,1.871,4.28,4.28,0,0,1-2.562.715,4.47,4.47,0,0,1-1.887-.379,3.166,3.166,0,0,1-1.293-1.039,2.414,2.414,0,0,1-.469-1.426h2.141a1.179,1.179,0,0,0,.445.922,1.766,1.766,0,0,0,1.109.32,1.635,1.635,0,0,0,.98-.246A.766.766,0,0,0,112.328,12.664Zm3.3-1.969a5.013,5.013,0,0,1,.484-2.242A3.546,3.546,0,0,1,117.5,6.93a4.069,4.069,0,0,1,2.113-.539,3.849,3.849,0,0,1,2.793,1.047,4.2,4.2,0,0,1,1.207,2.844l.016.578a4.418,4.418,0,0,1-1.086,3.121,4.209,4.209,0,0,1-5.832,0,4.5,4.5,0,0,1-1.09-3.187Zm2.258.16a3.16,3.16,0,0,0,.453,1.843,1.628,1.628,0,0,0,2.578.008,3.457,3.457,0,0,0,.461-2.015,3.128,3.128,0,0,0-.461-1.831,1.5,1.5,0,0,0-1.3-.649,1.474,1.474,0,0,0-1.281.646A3.516,3.516,0,0,0,117.883,10.856ZM127.406,15h-2.266V3h2.266Zm6.922-.859a2.831,2.831,0,0,1-2.312,1.016,2.67,2.67,0,0,1-2.074-.781,3.335,3.335,0,0,1-.73-2.289V6.547h2.258v5.467q0,1.322,1.2,1.322a1.63,1.63,0,0,0,1.578-.8V6.547h2.266V15h-2.125Zm7.406-.8a1.481,1.481,0,0,0,1.016-.344,1.2,1.2,0,0,0,.406-.914h2.117a2.9,2.9,0,0,1-.469,1.574,3.093,3.093,0,0,1-1.262,1.109,3.949,3.949,0,0,1-1.77.395A3.67,3.67,0,0,1,138.914,14a4.56,4.56,0,0,1-1.047-3.184v-.148a4.508,4.508,0,0,1,1.039-3.117,3.627,3.627,0,0,1,2.852-1.164,3.555,3.555,0,0,1,2.543.9,3.2,3.2,0,0,1,.973,2.4h-2.117a1.551,1.551,0,0,0-.406-1.072,1.51,1.51,0,0,0-2.223.163,3.333,3.333,0,0,0-.4,1.866v.235a3.375,3.375,0,0,0,.4,1.878A1.377,1.377,0,0,0,141.734,13.336ZM148.945,15H146.68V6.547h2.266Zm-2.4-10.641a1.112,1.112,0,0,1,.34-.836,1.465,1.465,0,0,1,1.848,0,1.105,1.105,0,0,1,.344.836,1.109,1.109,0,0,1-.348.844,1.448,1.448,0,0,1-1.836,0A1.109,1.109,0,0,1,146.547,4.359Zm3.906,6.336a5.013,5.013,0,0,1,.484-2.242,3.546,3.546,0,0,1,1.395-1.523,4.069,4.069,0,0,1,2.113-.539,3.849,3.849,0,0,1,2.793,1.047,4.2,4.2,0,0,1,1.207,2.844l.016.578a4.418,4.418,0,0,1-1.086,3.121,4.209,4.209,0,0,1-5.832,0,4.5,4.5,0,0,1-1.09-3.187Zm2.258.16a3.16,3.16,0,0,0,.453,1.843,1.628,1.628,0,0,0,2.578.008,3.457,3.457,0,0,0,.461-2.015,3.128,3.128,0,0,0-.461-1.831,1.5,1.5,0,0,0-1.3-.649,1.474,1.474,0,0,0-1.281.646A3.516,3.516,0,0,0,152.711,10.856ZM154.891,3h2.461l-2.164,2.422h-1.836Zm7.039,3.547.07.977a2.951,2.951,0,0,1,2.43-1.133,2.453,2.453,0,0,1,2,.789,3.682,3.682,0,0,1,.672,2.359V15h-2.258V9.594a1.465,1.465,0,0,0-.312-1.043,1.4,1.4,0,0,0-1.039-.324,1.553,1.553,0,0,0-1.43.813V15H159.8V6.547ZM178.188,15H175.93V6.3l-2.7.836V5.3l4.711-1.687h.242ZM189.3,6.648a2.646,2.646,0,0,1-.414,1.469,2.98,2.98,0,0,1-1.141,1.023,3.3,3.3,0,0,1,1.313,1.1,2.816,2.816,0,0,1,.484,1.645,2.981,2.981,0,0,1-1.031,2.395,4.918,4.918,0,0,1-5.617,0,2.974,2.974,0,0,1-1.039-2.391,2.834,2.834,0,0,1,.484-1.648,3.239,3.239,0,0,1,1.3-1.094A2.95,2.95,0,0,1,182.5,8.117a2.664,2.664,0,0,1-.41-1.469,2.948,2.948,0,0,1,.969-2.316,4.457,4.457,0,0,1,5.262-.008A2.937,2.937,0,0,1,189.3,6.648Zm-2.023,5.07a1.638,1.638,0,0,0-.43-1.187,1.719,1.719,0,0,0-2.3,0,1.635,1.635,0,0,0-.43,1.191,1.634,1.634,0,0,0,.422,1.172,1.762,1.762,0,0,0,2.324.016A1.631,1.631,0,0,0,187.273,11.719Zm-.234-4.961a1.563,1.563,0,0,0-.352-1.066,1.43,1.43,0,0,0-1.977-.012,1.553,1.553,0,0,0-.352,1.078,1.633,1.633,0,0,0,.352,1.094,1.391,1.391,0,0,0,1.98,0A1.645,1.645,0,0,0,187.039,6.758Zm10.7,3.961h1.289v1.82h-1.289V15h-2.258V12.539H190.82l-.1-1.422,4.742-7.492h2.281Zm-4.773,0h2.516V6.7l-.148.258ZM205.727,15h-2.258V6.3l-2.7.836V5.3l4.711-1.687h.242Zm7.422-4.289a5.094,5.094,0,0,1,.887-3.148,2.877,2.877,0,0,1,2.426-1.172,2.589,2.589,0,0,1,2.039.922V3h2.266V15h-2.039l-.109-.9a2.657,2.657,0,0,1-2.172,1.055,2.869,2.869,0,0,1-2.395-1.176A5.258,5.258,0,0,1,213.148,10.711Zm2.258.168a3.337,3.337,0,0,0,.414,1.823,1.349,1.349,0,0,0,1.2.634,1.511,1.511,0,0,0,1.477-.884V9.111a1.489,1.489,0,0,0-1.461-.884Q215.406,8.227,215.406,10.879Zm11,4.277a4.15,4.15,0,0,1-3.027-1.141,4.054,4.054,0,0,1-1.168-3.039v-.219A5.106,5.106,0,0,1,222.7,8.48,3.612,3.612,0,0,1,224.1,6.934a3.914,3.914,0,0,1,2.059-.543,3.508,3.508,0,0,1,2.73,1.094,4.444,4.444,0,0,1,1,3.1v.922H224.5a2.1,2.1,0,0,0,.66,1.328,2,2,0,0,0,1.395.5,2.437,2.437,0,0,0,2.039-.945l1.109,1.242a3.389,3.389,0,0,1-1.375,1.121A4.511,4.511,0,0,1,226.406,15.156Zm-.258-6.945a1.411,1.411,0,0,0-1.09.455,2.357,2.357,0,0,0-.535,1.3h3.141V9.788a1.681,1.681,0,0,0-.406-1.165A1.456,1.456,0,0,0,226.148,8.211ZM242.852,15h-7.8V13.453l3.68-3.922a9.078,9.078,0,0,0,1.121-1.445,2.322,2.322,0,0,0,.363-1.172,1.738,1.738,0,0,0-.383-1.191,1.382,1.382,0,0,0-1.094-.434,1.49,1.49,0,0,0-1.207.527,2.089,2.089,0,0,0-.441,1.387h-2.266a3.729,3.729,0,0,1,.5-1.9,3.5,3.5,0,0,1,1.4-1.348,4.262,4.262,0,0,1,2.055-.488,4.036,4.036,0,0,1,2.73.844,2.985,2.985,0,0,1,.973,2.383,3.825,3.825,0,0,1-.437,1.719,9.552,9.552,0,0,1-1.5,2.039l-2.586,2.727h4.891Zm9.039-4.7a5.762,5.762,0,0,1-.977,3.609,3.9,3.9,0,0,1-5.7.023,5.594,5.594,0,0,1-1.008-3.516V8.32a5.687,5.687,0,0,1,.988-3.617,3.91,3.91,0,0,1,5.691-.012A5.576,5.576,0,0,1,251.891,8.2Zm-2.258-2.3a4.165,4.165,0,0,0-.387-2.061,1.307,1.307,0,0,0-1.207-.645,1.284,1.284,0,0,0-1.176.614,3.9,3.9,0,0,0-.4,1.92v2.768a4.372,4.372,0,0,0,.379,2.068,1.29,1.29,0,0,0,1.215.676,1.268,1.268,0,0,0,1.2-.649,4.268,4.268,0,0,0,.383-1.986ZM258.9,15h-2.258V6.3l-2.7.836V5.3l4.711-1.687h.242Zm5.992-6.687h1.2a1.7,1.7,0,0,0,1.273-.43,1.575,1.575,0,0,0,.414-1.141,1.392,1.392,0,0,0-.41-1.07,1.59,1.59,0,0,0-1.129-.383,1.666,1.666,0,0,0-1.086.355,1.137,1.137,0,0,0-.437.926h-2.258a2.777,2.777,0,0,1,.48-1.6,3.2,3.2,0,0,1,1.344-1.105,4.485,4.485,0,0,1,1.9-.4,4.253,4.253,0,0,1,2.828.863,2.945,2.945,0,0,1,1.023,2.379,2.393,2.393,0,0,1-.477,1.438,3.1,3.1,0,0,1-1.25,1.008,2.826,2.826,0,0,1,1.434,1.031,2.8,2.8,0,0,1,.473,1.625,2.994,2.994,0,0,1-1.105,2.43,4.445,4.445,0,0,1-2.926.914,4.214,4.214,0,0,1-2.785-.9,2.934,2.934,0,0,1-1.082-2.375h2.258a1.308,1.308,0,0,0,.48,1.047,2,2,0,0,0,2.445-.02,1.47,1.47,0,0,0,.457-1.129q0-1.7-1.875-1.7h-1.2Z" transform="translate(1020 10683.5)" fill="#12263f"/>
      </g>
    </g>
  </g>
</svg>
